%TF.GenerationSoftware,KiCad,Pcbnew,8.0.7*%
%TF.CreationDate,2025-01-14T10:09:15+01:00*%
%TF.ProjectId,pv_test_station,70765f74-6573-4745-9f73-746174696f6e,rev?*%
%TF.SameCoordinates,Original*%
%TF.FileFunction,Drillmap*%
%TF.FilePolarity,Positive*%
%FSLAX45Y45*%
G04 Gerber Fmt 4.5, Leading zero omitted, Abs format (unit mm)*
G04 Created by KiCad (PCBNEW 8.0.7) date 2025-01-14 10:09:15*
%MOMM*%
%LPD*%
G01*
G04 APERTURE LIST*
%ADD10C,3.025000*%
%ADD11C,0.050000*%
%ADD12C,0.200000*%
%ADD13C,0.100000*%
%ADD14C,0.120000*%
%ADD15C,0.150000*%
%ADD16C,0.170000*%
%ADD17C,0.254000*%
G04 APERTURE END LIST*
D10*
X10851250Y-5800000D02*
G75*
G02*
X10548750Y-5800000I-151250J0D01*
G01*
X10548750Y-5800000D02*
G75*
G02*
X10851250Y-5800000I151250J0D01*
G01*
X16151250Y-12900000D02*
G75*
G02*
X15848750Y-12900000I-151250J0D01*
G01*
X15848750Y-12900000D02*
G75*
G02*
X16151250Y-12900000I151250J0D01*
G01*
X8251250Y-9800000D02*
G75*
G02*
X7948750Y-9800000I-151250J0D01*
G01*
X7948750Y-9800000D02*
G75*
G02*
X8251250Y-9800000I151250J0D01*
G01*
D11*
X7050000Y-5250000D02*
X17050000Y-5250000D01*
X17050000Y-15250000D01*
X7050000Y-15250000D01*
X7050000Y-5250000D01*
D12*
D13*
X7585000Y-9185000D02*
X7615000Y-9215000D01*
X7615000Y-9185000D02*
X7585000Y-9215000D01*
X7760000Y-5785000D02*
X7790000Y-5815000D01*
X7790000Y-5785000D02*
X7760000Y-5815000D01*
X7860000Y-12810000D02*
X7890000Y-12840000D01*
X7890000Y-12810000D02*
X7860000Y-12840000D01*
X7885000Y-6360000D02*
X7915000Y-6390000D01*
X7915000Y-6360000D02*
X7885000Y-6390000D01*
X8160000Y-7135000D02*
X8190000Y-7165000D01*
X8190000Y-7135000D02*
X8160000Y-7165000D01*
X8235000Y-7660000D02*
X8265000Y-7690000D01*
X8265000Y-7660000D02*
X8235000Y-7690000D01*
X8410000Y-7135000D02*
X8440000Y-7165000D01*
X8440000Y-7135000D02*
X8410000Y-7165000D01*
X8735000Y-6235000D02*
X8765000Y-6265000D01*
X8765000Y-6235000D02*
X8735000Y-6265000D01*
X8810000Y-7135000D02*
X8840000Y-7165000D01*
X8840000Y-7135000D02*
X8810000Y-7165000D01*
X8910000Y-8235000D02*
X8940000Y-8265000D01*
X8940000Y-8235000D02*
X8910000Y-8265000D01*
X9110000Y-7485000D02*
X9140000Y-7515000D01*
X9140000Y-7485000D02*
X9110000Y-7515000D01*
X9735000Y-7160000D02*
X9765000Y-7190000D01*
X9765000Y-7160000D02*
X9735000Y-7190000D01*
X10085000Y-5585000D02*
X10115000Y-5615000D01*
X10115000Y-5585000D02*
X10085000Y-5615000D01*
X10385000Y-6460000D02*
X10415000Y-6490000D01*
X10415000Y-6460000D02*
X10385000Y-6490000D01*
X10385000Y-6660000D02*
X10415000Y-6690000D01*
X10415000Y-6660000D02*
X10385000Y-6690000D01*
X10485000Y-7435000D02*
X10515000Y-7465000D01*
X10515000Y-7435000D02*
X10485000Y-7465000D01*
X10485000Y-7685000D02*
X10515000Y-7715000D01*
X10515000Y-7685000D02*
X10485000Y-7715000D01*
X10585000Y-9110000D02*
X10615000Y-9140000D01*
X10615000Y-9110000D02*
X10585000Y-9140000D01*
X10585000Y-9760000D02*
X10615000Y-9790000D01*
X10615000Y-9760000D02*
X10585000Y-9790000D01*
X10985000Y-8235000D02*
X11015000Y-8265000D01*
X11015000Y-8235000D02*
X10985000Y-8265000D01*
X11985000Y-12810000D02*
X12015000Y-12840000D01*
X12015000Y-12810000D02*
X11985000Y-12840000D01*
X11985000Y-14910000D02*
X12015000Y-14940000D01*
X12015000Y-14910000D02*
X11985000Y-14940000D01*
X12085000Y-9110000D02*
X12115000Y-9140000D01*
X12115000Y-9110000D02*
X12085000Y-9140000D01*
X12260000Y-6660000D02*
X12290000Y-6690000D01*
X12290000Y-6660000D02*
X12260000Y-6690000D01*
X12410000Y-6210000D02*
X12440000Y-6240000D01*
X12440000Y-6210000D02*
X12410000Y-6240000D01*
X12960000Y-14735000D02*
X12990000Y-14765000D01*
X12990000Y-14735000D02*
X12960000Y-14765000D01*
X13260000Y-9960000D02*
X13290000Y-9990000D01*
X13290000Y-9960000D02*
X13260000Y-9990000D01*
X13360000Y-14735000D02*
X13390000Y-14765000D01*
X13390000Y-14735000D02*
X13360000Y-14765000D01*
X13785000Y-12635000D02*
X13815000Y-12665000D01*
X13815000Y-12635000D02*
X13785000Y-12665000D01*
X13935000Y-12410000D02*
X13965000Y-12440000D01*
X13965000Y-12410000D02*
X13935000Y-12440000D01*
X13960000Y-6660000D02*
X13990000Y-6690000D01*
X13990000Y-6660000D02*
X13960000Y-6690000D01*
X14285000Y-6035000D02*
X14315000Y-6065000D01*
X14315000Y-6035000D02*
X14285000Y-6065000D01*
X14885000Y-12810000D02*
X14915000Y-12840000D01*
X14915000Y-12810000D02*
X14885000Y-12840000D01*
X15035000Y-6035000D02*
X15065000Y-6065000D01*
X15065000Y-6035000D02*
X15035000Y-6065000D01*
X15510000Y-6035000D02*
X15540000Y-6065000D01*
X15540000Y-6035000D02*
X15510000Y-6065000D01*
X15535000Y-7835000D02*
X15565000Y-7865000D01*
X15565000Y-7835000D02*
X15535000Y-7865000D01*
X16660000Y-8210000D02*
X16690000Y-8240000D01*
X16690000Y-8210000D02*
X16660000Y-8240000D01*
X16860000Y-5410000D02*
X16890000Y-5440000D01*
X16890000Y-5410000D02*
X16860000Y-5440000D01*
X9730000Y-11125000D02*
G75*
G02*
X9670000Y-11125000I-30000J0D01*
G01*
X9670000Y-11125000D02*
G75*
G02*
X9730000Y-11125000I30000J0D01*
G01*
X10380000Y-10600000D02*
G75*
G02*
X10320000Y-10600000I-30000J0D01*
G01*
X10320000Y-10600000D02*
G75*
G02*
X10380000Y-10600000I30000J0D01*
G01*
X10380000Y-11650000D02*
G75*
G02*
X10320000Y-11650000I-30000J0D01*
G01*
X10320000Y-11650000D02*
G75*
G02*
X10380000Y-11650000I30000J0D01*
G01*
X11005000Y-12175000D02*
G75*
G02*
X10945000Y-12175000I-30000J0D01*
G01*
X10945000Y-12175000D02*
G75*
G02*
X11005000Y-12175000I30000J0D01*
G01*
X11030000Y-11125000D02*
G75*
G02*
X10970000Y-11125000I-30000J0D01*
G01*
X10970000Y-11125000D02*
G75*
G02*
X11030000Y-11125000I30000J0D01*
G01*
X11855000Y-10500000D02*
G75*
G02*
X11795000Y-10500000I-30000J0D01*
G01*
X11795000Y-10500000D02*
G75*
G02*
X11855000Y-10500000I30000J0D01*
G01*
X7450000Y-11373500D02*
X7450000Y-11473500D01*
X7400000Y-11423500D02*
X7500000Y-11423500D01*
X7450000Y-11627500D02*
X7450000Y-11727500D01*
X7400000Y-11677500D02*
X7500000Y-11677500D01*
X7788000Y-6800000D02*
X7788000Y-6900000D01*
X7738000Y-6850000D02*
X7838000Y-6850000D01*
X7792000Y-7400000D02*
X7792000Y-7500000D01*
X7742000Y-7450000D02*
X7842000Y-7450000D01*
X8042000Y-6800000D02*
X8042000Y-6900000D01*
X7992000Y-6850000D02*
X8092000Y-6850000D01*
X8046000Y-7400000D02*
X8046000Y-7500000D01*
X7996000Y-7450000D02*
X8096000Y-7450000D01*
X8296000Y-6800000D02*
X8296000Y-6900000D01*
X8246000Y-6850000D02*
X8346000Y-6850000D01*
X8300000Y-7400000D02*
X8300000Y-7500000D01*
X8250000Y-7450000D02*
X8350000Y-7450000D01*
X8550000Y-6800000D02*
X8550000Y-6900000D01*
X8500000Y-6850000D02*
X8600000Y-6850000D01*
X8554000Y-7400000D02*
X8554000Y-7500000D01*
X8504000Y-7450000D02*
X8604000Y-7450000D01*
X9450000Y-5742000D02*
X9450000Y-5842000D01*
X9400000Y-5792000D02*
X9500000Y-5792000D01*
X9450000Y-5996000D02*
X9450000Y-6096000D01*
X9400000Y-6046000D02*
X9500000Y-6046000D01*
X9450000Y-6250000D02*
X9450000Y-6350000D01*
X9400000Y-6300000D02*
X9500000Y-6300000D01*
X9450000Y-6504000D02*
X9450000Y-6604000D01*
X9400000Y-6554000D02*
X9500000Y-6554000D01*
X9450000Y-6758000D02*
X9450000Y-6858000D01*
X9400000Y-6808000D02*
X9500000Y-6808000D01*
X9450000Y-7012000D02*
X9450000Y-7112000D01*
X9400000Y-7062000D02*
X9500000Y-7062000D01*
X9450000Y-7266000D02*
X9450000Y-7366000D01*
X9400000Y-7316000D02*
X9500000Y-7316000D01*
X9450000Y-7520000D02*
X9450000Y-7620000D01*
X9400000Y-7570000D02*
X9500000Y-7570000D01*
X9450000Y-8684000D02*
X9450000Y-8784000D01*
X9400000Y-8734000D02*
X9500000Y-8734000D01*
X9450000Y-8938000D02*
X9450000Y-9038000D01*
X9400000Y-8988000D02*
X9500000Y-8988000D01*
X9450000Y-9192000D02*
X9450000Y-9292000D01*
X9400000Y-9242000D02*
X9500000Y-9242000D01*
X9450000Y-9446000D02*
X9450000Y-9546000D01*
X9400000Y-9496000D02*
X9500000Y-9496000D01*
X9450000Y-9700000D02*
X9450000Y-9800000D01*
X9400000Y-9750000D02*
X9500000Y-9750000D01*
X12332000Y-7543000D02*
X12332000Y-7643000D01*
X12282000Y-7593000D02*
X12382000Y-7593000D01*
X12586000Y-7543000D02*
X12586000Y-7643000D01*
X12536000Y-7593000D02*
X12636000Y-7593000D01*
X12840000Y-7543000D02*
X12840000Y-7643000D01*
X12790000Y-7593000D02*
X12890000Y-7593000D01*
X13094000Y-7543000D02*
X13094000Y-7643000D01*
X13044000Y-7593000D02*
X13144000Y-7593000D01*
X13348000Y-5511000D02*
X13348000Y-5611000D01*
X13298000Y-5561000D02*
X13398000Y-5561000D01*
X13348000Y-7543000D02*
X13348000Y-7643000D01*
X13298000Y-7593000D02*
X13398000Y-7593000D01*
X13602000Y-5511000D02*
X13602000Y-5611000D01*
X13552000Y-5561000D02*
X13652000Y-5561000D01*
X13602000Y-7543000D02*
X13602000Y-7643000D01*
X13552000Y-7593000D02*
X13652000Y-7593000D01*
X13856000Y-5511000D02*
X13856000Y-5611000D01*
X13806000Y-5561000D02*
X13906000Y-5561000D01*
X13856000Y-7543000D02*
X13856000Y-7643000D01*
X13806000Y-7593000D02*
X13906000Y-7593000D01*
X14110000Y-5511000D02*
X14110000Y-5611000D01*
X14060000Y-5561000D02*
X14160000Y-5561000D01*
X14110000Y-7543000D02*
X14110000Y-7643000D01*
X14060000Y-7593000D02*
X14160000Y-7593000D01*
X14364000Y-5511000D02*
X14364000Y-5611000D01*
X14314000Y-5561000D02*
X14414000Y-5561000D01*
X14364000Y-7543000D02*
X14364000Y-7643000D01*
X14314000Y-7593000D02*
X14414000Y-7593000D01*
X14618000Y-5511000D02*
X14618000Y-5611000D01*
X14568000Y-5561000D02*
X14668000Y-5561000D01*
X14618000Y-7543000D02*
X14618000Y-7643000D01*
X14568000Y-7593000D02*
X14668000Y-7593000D01*
X14872000Y-5511000D02*
X14872000Y-5611000D01*
X14822000Y-5561000D02*
X14922000Y-5561000D01*
X14872000Y-7543000D02*
X14872000Y-7643000D01*
X14822000Y-7593000D02*
X14922000Y-7593000D01*
X15126000Y-5511000D02*
X15126000Y-5611000D01*
X15076000Y-5561000D02*
X15176000Y-5561000D01*
X15126000Y-7543000D02*
X15126000Y-7643000D01*
X15076000Y-7593000D02*
X15176000Y-7593000D01*
X15380000Y-5511000D02*
X15380000Y-5611000D01*
X15330000Y-5561000D02*
X15430000Y-5561000D01*
X15380000Y-7543000D02*
X15380000Y-7643000D01*
X15330000Y-7593000D02*
X15430000Y-7593000D01*
X15634000Y-5511000D02*
X15634000Y-5611000D01*
X15584000Y-5561000D02*
X15684000Y-5561000D01*
X15634000Y-7543000D02*
X15634000Y-7643000D01*
X15584000Y-7593000D02*
X15684000Y-7593000D01*
X15888000Y-5511000D02*
X15888000Y-5611000D01*
X15838000Y-5561000D02*
X15938000Y-5561000D01*
X15888000Y-7543000D02*
X15888000Y-7643000D01*
X15838000Y-7593000D02*
X15938000Y-7593000D01*
X16142000Y-5511000D02*
X16142000Y-5611000D01*
X16092000Y-5561000D02*
X16192000Y-5561000D01*
X16142000Y-7543000D02*
X16142000Y-7643000D01*
X16092000Y-7593000D02*
X16192000Y-7593000D01*
X16650000Y-5892000D02*
X16650000Y-5992000D01*
X16600000Y-5942000D02*
X16700000Y-5942000D01*
X16650000Y-6146000D02*
X16650000Y-6246000D01*
X16600000Y-6196000D02*
X16700000Y-6196000D01*
X16650000Y-6400000D02*
X16650000Y-6500000D01*
X16600000Y-6450000D02*
X16700000Y-6450000D01*
X16650000Y-7162000D02*
X16650000Y-7262000D01*
X16600000Y-7212000D02*
X16700000Y-7212000D01*
D14*
X14277192Y-9757427D02*
X14277192Y-9672573D01*
X14192338Y-9672573D01*
X14192338Y-9757427D01*
X14277192Y-9757427D01*
X14277192Y-10517427D02*
X14277192Y-10432573D01*
X14192338Y-10432573D01*
X14192338Y-10517427D01*
X14277192Y-10517427D01*
D15*
X16234765Y-9790000D02*
X16309765Y-9715000D01*
X16234765Y-9640000D01*
X16159765Y-9715000D01*
X16234765Y-9790000D01*
X16234765Y-10550000D02*
X16309765Y-10475000D01*
X16234765Y-10400000D01*
X16159765Y-10475000D01*
X16234765Y-10550000D01*
X16734765Y-9790000D02*
X16809765Y-9715000D01*
X16734765Y-9640000D01*
X16659765Y-9715000D01*
X16734765Y-9790000D01*
X16734765Y-10550000D02*
X16809765Y-10475000D01*
X16734765Y-10400000D01*
X16659765Y-10475000D01*
X16734765Y-10550000D01*
D16*
X7861250Y-14375000D02*
X8031250Y-14545000D01*
X8031250Y-14375000D02*
X7861250Y-14545000D01*
X8031250Y-14460000D02*
G75*
G02*
X7861250Y-14460000I-85000J0D01*
G01*
X7861250Y-14460000D02*
G75*
G02*
X8031250Y-14460000I85000J0D01*
G01*
X8811250Y-13740000D02*
X8981250Y-13910000D01*
X8981250Y-13740000D02*
X8811250Y-13910000D01*
X8981250Y-13825000D02*
G75*
G02*
X8811250Y-13825000I-85000J0D01*
G01*
X8811250Y-13825000D02*
G75*
G02*
X8981250Y-13825000I85000J0D01*
G01*
X15105000Y-11857500D02*
X15275000Y-12027500D01*
X15275000Y-11857500D02*
X15105000Y-12027500D01*
X15275000Y-11942500D02*
G75*
G02*
X15105000Y-11942500I-85000J0D01*
G01*
X15105000Y-11942500D02*
G75*
G02*
X15275000Y-11942500I85000J0D01*
G01*
X15118750Y-14357500D02*
X15288750Y-14527500D01*
X15288750Y-14357500D02*
X15118750Y-14527500D01*
X15288750Y-14442500D02*
G75*
G02*
X15118750Y-14442500I-85000J0D01*
G01*
X15118750Y-14442500D02*
G75*
G02*
X15288750Y-14442500I85000J0D01*
G01*
X16055000Y-11222500D02*
X16225000Y-11392500D01*
X16225000Y-11222500D02*
X16055000Y-11392500D01*
X16225000Y-11307500D02*
G75*
G02*
X16055000Y-11307500I-85000J0D01*
G01*
X16055000Y-11307500D02*
G75*
G02*
X16225000Y-11307500I85000J0D01*
G01*
X16068750Y-13722500D02*
X16238750Y-13892500D01*
X16238750Y-13722500D02*
X16068750Y-13892500D01*
X16238750Y-13807500D02*
G75*
G02*
X16068750Y-13807500I-85000J0D01*
G01*
X16068750Y-13807500D02*
G75*
G02*
X16238750Y-13807500I85000J0D01*
G01*
D17*
X10214000Y-14048000D02*
X10468000Y-14302000D01*
X10468000Y-14048000D02*
X10214000Y-14302000D01*
X10341000Y-14048000D02*
X10341000Y-14302000D01*
X10214000Y-14175000D02*
X10468000Y-14175000D01*
X10976000Y-14048000D02*
X11230000Y-14302000D01*
X11230000Y-14048000D02*
X10976000Y-14302000D01*
X11103000Y-14048000D02*
X11103000Y-14302000D01*
X10976000Y-14175000D02*
X11230000Y-14175000D01*
X12523000Y-8337500D02*
X12777000Y-8591500D01*
X12777000Y-8337500D02*
X12523000Y-8591500D01*
X12650000Y-8337500D02*
X12650000Y-8591500D01*
X12523000Y-8464500D02*
X12777000Y-8464500D01*
X12523000Y-9099500D02*
X12777000Y-9353500D01*
X12777000Y-9099500D02*
X12523000Y-9353500D01*
X12650000Y-9099500D02*
X12650000Y-9353500D01*
X12523000Y-9226500D02*
X12777000Y-9226500D01*
X12523000Y-10996500D02*
X12777000Y-11250500D01*
X12777000Y-10996500D02*
X12523000Y-11250500D01*
X12650000Y-10996500D02*
X12650000Y-11250500D01*
X12523000Y-11123500D02*
X12777000Y-11123500D01*
X12523000Y-11758500D02*
X12777000Y-12012500D01*
X12777000Y-11758500D02*
X12523000Y-12012500D01*
X12650000Y-11758500D02*
X12650000Y-12012500D01*
X12523000Y-11885500D02*
X12777000Y-11885500D01*
X12873000Y-14048000D02*
X13127000Y-14302000D01*
X13127000Y-14048000D02*
X12873000Y-14302000D01*
X13000000Y-14048000D02*
X13000000Y-14302000D01*
X12873000Y-14175000D02*
X13127000Y-14175000D01*
X13635000Y-14048000D02*
X13889000Y-14302000D01*
X13889000Y-14048000D02*
X13635000Y-14302000D01*
X13762000Y-14048000D02*
X13762000Y-14302000D01*
X13635000Y-14175000D02*
X13889000Y-14175000D01*
D12*
X7308277Y-15563984D02*
X7308277Y-15363984D01*
X7308277Y-15363984D02*
X7355896Y-15363984D01*
X7355896Y-15363984D02*
X7384467Y-15373508D01*
X7384467Y-15373508D02*
X7403515Y-15392555D01*
X7403515Y-15392555D02*
X7413039Y-15411603D01*
X7413039Y-15411603D02*
X7422562Y-15449698D01*
X7422562Y-15449698D02*
X7422562Y-15478269D01*
X7422562Y-15478269D02*
X7413039Y-15516365D01*
X7413039Y-15516365D02*
X7403515Y-15535412D01*
X7403515Y-15535412D02*
X7384467Y-15554460D01*
X7384467Y-15554460D02*
X7355896Y-15563984D01*
X7355896Y-15563984D02*
X7308277Y-15563984D01*
X7508277Y-15563984D02*
X7508277Y-15430650D01*
X7508277Y-15468746D02*
X7517801Y-15449698D01*
X7517801Y-15449698D02*
X7527324Y-15440174D01*
X7527324Y-15440174D02*
X7546372Y-15430650D01*
X7546372Y-15430650D02*
X7565420Y-15430650D01*
X7632086Y-15563984D02*
X7632086Y-15430650D01*
X7632086Y-15363984D02*
X7622562Y-15373508D01*
X7622562Y-15373508D02*
X7632086Y-15383031D01*
X7632086Y-15383031D02*
X7641610Y-15373508D01*
X7641610Y-15373508D02*
X7632086Y-15363984D01*
X7632086Y-15363984D02*
X7632086Y-15383031D01*
X7755896Y-15563984D02*
X7736848Y-15554460D01*
X7736848Y-15554460D02*
X7727324Y-15535412D01*
X7727324Y-15535412D02*
X7727324Y-15363984D01*
X7860658Y-15563984D02*
X7841610Y-15554460D01*
X7841610Y-15554460D02*
X7832086Y-15535412D01*
X7832086Y-15535412D02*
X7832086Y-15363984D01*
X8089229Y-15563984D02*
X8089229Y-15363984D01*
X8089229Y-15363984D02*
X8155896Y-15506841D01*
X8155896Y-15506841D02*
X8222562Y-15363984D01*
X8222562Y-15363984D02*
X8222562Y-15563984D01*
X8403515Y-15563984D02*
X8403515Y-15459222D01*
X8403515Y-15459222D02*
X8393991Y-15440174D01*
X8393991Y-15440174D02*
X8374943Y-15430650D01*
X8374943Y-15430650D02*
X8336848Y-15430650D01*
X8336848Y-15430650D02*
X8317801Y-15440174D01*
X8403515Y-15554460D02*
X8384467Y-15563984D01*
X8384467Y-15563984D02*
X8336848Y-15563984D01*
X8336848Y-15563984D02*
X8317801Y-15554460D01*
X8317801Y-15554460D02*
X8308277Y-15535412D01*
X8308277Y-15535412D02*
X8308277Y-15516365D01*
X8308277Y-15516365D02*
X8317801Y-15497317D01*
X8317801Y-15497317D02*
X8336848Y-15487793D01*
X8336848Y-15487793D02*
X8384467Y-15487793D01*
X8384467Y-15487793D02*
X8403515Y-15478269D01*
X8498753Y-15430650D02*
X8498753Y-15630650D01*
X8498753Y-15440174D02*
X8517801Y-15430650D01*
X8517801Y-15430650D02*
X8555896Y-15430650D01*
X8555896Y-15430650D02*
X8574944Y-15440174D01*
X8574944Y-15440174D02*
X8584467Y-15449698D01*
X8584467Y-15449698D02*
X8593991Y-15468746D01*
X8593991Y-15468746D02*
X8593991Y-15525888D01*
X8593991Y-15525888D02*
X8584467Y-15544936D01*
X8584467Y-15544936D02*
X8574944Y-15554460D01*
X8574944Y-15554460D02*
X8555896Y-15563984D01*
X8555896Y-15563984D02*
X8517801Y-15563984D01*
X8517801Y-15563984D02*
X8498753Y-15554460D01*
X8679705Y-15544936D02*
X8689229Y-15554460D01*
X8689229Y-15554460D02*
X8679705Y-15563984D01*
X8679705Y-15563984D02*
X8670182Y-15554460D01*
X8670182Y-15554460D02*
X8679705Y-15544936D01*
X8679705Y-15544936D02*
X8679705Y-15563984D01*
X8679705Y-15440174D02*
X8689229Y-15449698D01*
X8689229Y-15449698D02*
X8679705Y-15459222D01*
X8679705Y-15459222D02*
X8670182Y-15449698D01*
X8670182Y-15449698D02*
X8679705Y-15440174D01*
X8679705Y-15440174D02*
X8679705Y-15459222D01*
D13*
X7017500Y-15877500D02*
X7047500Y-15907500D01*
X7047500Y-15877500D02*
X7017500Y-15907500D01*
D12*
X7346372Y-15783984D02*
X7365420Y-15783984D01*
X7365420Y-15783984D02*
X7384467Y-15793508D01*
X7384467Y-15793508D02*
X7393991Y-15803031D01*
X7393991Y-15803031D02*
X7403515Y-15822079D01*
X7403515Y-15822079D02*
X7413039Y-15860174D01*
X7413039Y-15860174D02*
X7413039Y-15907793D01*
X7413039Y-15907793D02*
X7403515Y-15945888D01*
X7403515Y-15945888D02*
X7393991Y-15964936D01*
X7393991Y-15964936D02*
X7384467Y-15974460D01*
X7384467Y-15974460D02*
X7365420Y-15983984D01*
X7365420Y-15983984D02*
X7346372Y-15983984D01*
X7346372Y-15983984D02*
X7327324Y-15974460D01*
X7327324Y-15974460D02*
X7317801Y-15964936D01*
X7317801Y-15964936D02*
X7308277Y-15945888D01*
X7308277Y-15945888D02*
X7298753Y-15907793D01*
X7298753Y-15907793D02*
X7298753Y-15860174D01*
X7298753Y-15860174D02*
X7308277Y-15822079D01*
X7308277Y-15822079D02*
X7317801Y-15803031D01*
X7317801Y-15803031D02*
X7327324Y-15793508D01*
X7327324Y-15793508D02*
X7346372Y-15783984D01*
X7498753Y-15964936D02*
X7508277Y-15974460D01*
X7508277Y-15974460D02*
X7498753Y-15983984D01*
X7498753Y-15983984D02*
X7489229Y-15974460D01*
X7489229Y-15974460D02*
X7498753Y-15964936D01*
X7498753Y-15964936D02*
X7498753Y-15983984D01*
X7574943Y-15783984D02*
X7698753Y-15783984D01*
X7698753Y-15783984D02*
X7632086Y-15860174D01*
X7632086Y-15860174D02*
X7660658Y-15860174D01*
X7660658Y-15860174D02*
X7679705Y-15869698D01*
X7679705Y-15869698D02*
X7689229Y-15879222D01*
X7689229Y-15879222D02*
X7698753Y-15898269D01*
X7698753Y-15898269D02*
X7698753Y-15945888D01*
X7698753Y-15945888D02*
X7689229Y-15964936D01*
X7689229Y-15964936D02*
X7679705Y-15974460D01*
X7679705Y-15974460D02*
X7660658Y-15983984D01*
X7660658Y-15983984D02*
X7603515Y-15983984D01*
X7603515Y-15983984D02*
X7584467Y-15974460D01*
X7584467Y-15974460D02*
X7574943Y-15964936D01*
X7822562Y-15783984D02*
X7841610Y-15783984D01*
X7841610Y-15783984D02*
X7860658Y-15793508D01*
X7860658Y-15793508D02*
X7870182Y-15803031D01*
X7870182Y-15803031D02*
X7879705Y-15822079D01*
X7879705Y-15822079D02*
X7889229Y-15860174D01*
X7889229Y-15860174D02*
X7889229Y-15907793D01*
X7889229Y-15907793D02*
X7879705Y-15945888D01*
X7879705Y-15945888D02*
X7870182Y-15964936D01*
X7870182Y-15964936D02*
X7860658Y-15974460D01*
X7860658Y-15974460D02*
X7841610Y-15983984D01*
X7841610Y-15983984D02*
X7822562Y-15983984D01*
X7822562Y-15983984D02*
X7803515Y-15974460D01*
X7803515Y-15974460D02*
X7793991Y-15964936D01*
X7793991Y-15964936D02*
X7784467Y-15945888D01*
X7784467Y-15945888D02*
X7774943Y-15907793D01*
X7774943Y-15907793D02*
X7774943Y-15860174D01*
X7774943Y-15860174D02*
X7784467Y-15822079D01*
X7784467Y-15822079D02*
X7793991Y-15803031D01*
X7793991Y-15803031D02*
X7803515Y-15793508D01*
X7803515Y-15793508D02*
X7822562Y-15783984D01*
X8013039Y-15783984D02*
X8032086Y-15783984D01*
X8032086Y-15783984D02*
X8051134Y-15793508D01*
X8051134Y-15793508D02*
X8060658Y-15803031D01*
X8060658Y-15803031D02*
X8070182Y-15822079D01*
X8070182Y-15822079D02*
X8079705Y-15860174D01*
X8079705Y-15860174D02*
X8079705Y-15907793D01*
X8079705Y-15907793D02*
X8070182Y-15945888D01*
X8070182Y-15945888D02*
X8060658Y-15964936D01*
X8060658Y-15964936D02*
X8051134Y-15974460D01*
X8051134Y-15974460D02*
X8032086Y-15983984D01*
X8032086Y-15983984D02*
X8013039Y-15983984D01*
X8013039Y-15983984D02*
X7993991Y-15974460D01*
X7993991Y-15974460D02*
X7984467Y-15964936D01*
X7984467Y-15964936D02*
X7974943Y-15945888D01*
X7974943Y-15945888D02*
X7965420Y-15907793D01*
X7965420Y-15907793D02*
X7965420Y-15860174D01*
X7965420Y-15860174D02*
X7974943Y-15822079D01*
X7974943Y-15822079D02*
X7984467Y-15803031D01*
X7984467Y-15803031D02*
X7993991Y-15793508D01*
X7993991Y-15793508D02*
X8013039Y-15783984D01*
X8165420Y-15983984D02*
X8165420Y-15850650D01*
X8165420Y-15869698D02*
X8174943Y-15860174D01*
X8174943Y-15860174D02*
X8193991Y-15850650D01*
X8193991Y-15850650D02*
X8222563Y-15850650D01*
X8222563Y-15850650D02*
X8241610Y-15860174D01*
X8241610Y-15860174D02*
X8251134Y-15879222D01*
X8251134Y-15879222D02*
X8251134Y-15983984D01*
X8251134Y-15879222D02*
X8260658Y-15860174D01*
X8260658Y-15860174D02*
X8279705Y-15850650D01*
X8279705Y-15850650D02*
X8308277Y-15850650D01*
X8308277Y-15850650D02*
X8327324Y-15860174D01*
X8327324Y-15860174D02*
X8336848Y-15879222D01*
X8336848Y-15879222D02*
X8336848Y-15983984D01*
X8432086Y-15983984D02*
X8432086Y-15850650D01*
X8432086Y-15869698D02*
X8441610Y-15860174D01*
X8441610Y-15860174D02*
X8460658Y-15850650D01*
X8460658Y-15850650D02*
X8489229Y-15850650D01*
X8489229Y-15850650D02*
X8508277Y-15860174D01*
X8508277Y-15860174D02*
X8517801Y-15879222D01*
X8517801Y-15879222D02*
X8517801Y-15983984D01*
X8517801Y-15879222D02*
X8527325Y-15860174D01*
X8527325Y-15860174D02*
X8546372Y-15850650D01*
X8546372Y-15850650D02*
X8574944Y-15850650D01*
X8574944Y-15850650D02*
X8593991Y-15860174D01*
X8593991Y-15860174D02*
X8603515Y-15879222D01*
X8603515Y-15879222D02*
X8603515Y-15983984D01*
X8993991Y-15774460D02*
X8822563Y-16031603D01*
X9251134Y-15783984D02*
X9270182Y-15783984D01*
X9270182Y-15783984D02*
X9289229Y-15793508D01*
X9289229Y-15793508D02*
X9298753Y-15803031D01*
X9298753Y-15803031D02*
X9308277Y-15822079D01*
X9308277Y-15822079D02*
X9317801Y-15860174D01*
X9317801Y-15860174D02*
X9317801Y-15907793D01*
X9317801Y-15907793D02*
X9308277Y-15945888D01*
X9308277Y-15945888D02*
X9298753Y-15964936D01*
X9298753Y-15964936D02*
X9289229Y-15974460D01*
X9289229Y-15974460D02*
X9270182Y-15983984D01*
X9270182Y-15983984D02*
X9251134Y-15983984D01*
X9251134Y-15983984D02*
X9232087Y-15974460D01*
X9232087Y-15974460D02*
X9222563Y-15964936D01*
X9222563Y-15964936D02*
X9213039Y-15945888D01*
X9213039Y-15945888D02*
X9203515Y-15907793D01*
X9203515Y-15907793D02*
X9203515Y-15860174D01*
X9203515Y-15860174D02*
X9213039Y-15822079D01*
X9213039Y-15822079D02*
X9222563Y-15803031D01*
X9222563Y-15803031D02*
X9232087Y-15793508D01*
X9232087Y-15793508D02*
X9251134Y-15783984D01*
X9403515Y-15964936D02*
X9413039Y-15974460D01*
X9413039Y-15974460D02*
X9403515Y-15983984D01*
X9403515Y-15983984D02*
X9393991Y-15974460D01*
X9393991Y-15974460D02*
X9403515Y-15964936D01*
X9403515Y-15964936D02*
X9403515Y-15983984D01*
X9536848Y-15783984D02*
X9555896Y-15783984D01*
X9555896Y-15783984D02*
X9574944Y-15793508D01*
X9574944Y-15793508D02*
X9584468Y-15803031D01*
X9584468Y-15803031D02*
X9593991Y-15822079D01*
X9593991Y-15822079D02*
X9603515Y-15860174D01*
X9603515Y-15860174D02*
X9603515Y-15907793D01*
X9603515Y-15907793D02*
X9593991Y-15945888D01*
X9593991Y-15945888D02*
X9584468Y-15964936D01*
X9584468Y-15964936D02*
X9574944Y-15974460D01*
X9574944Y-15974460D02*
X9555896Y-15983984D01*
X9555896Y-15983984D02*
X9536848Y-15983984D01*
X9536848Y-15983984D02*
X9517801Y-15974460D01*
X9517801Y-15974460D02*
X9508277Y-15964936D01*
X9508277Y-15964936D02*
X9498753Y-15945888D01*
X9498753Y-15945888D02*
X9489229Y-15907793D01*
X9489229Y-15907793D02*
X9489229Y-15860174D01*
X9489229Y-15860174D02*
X9498753Y-15822079D01*
X9498753Y-15822079D02*
X9508277Y-15803031D01*
X9508277Y-15803031D02*
X9517801Y-15793508D01*
X9517801Y-15793508D02*
X9536848Y-15783984D01*
X9793991Y-15983984D02*
X9679706Y-15983984D01*
X9736848Y-15983984D02*
X9736848Y-15783984D01*
X9736848Y-15783984D02*
X9717801Y-15812555D01*
X9717801Y-15812555D02*
X9698753Y-15831603D01*
X9698753Y-15831603D02*
X9679706Y-15841127D01*
X9984468Y-15983984D02*
X9870182Y-15983984D01*
X9927325Y-15983984D02*
X9927325Y-15783984D01*
X9927325Y-15783984D02*
X9908277Y-15812555D01*
X9908277Y-15812555D02*
X9889229Y-15831603D01*
X9889229Y-15831603D02*
X9870182Y-15841127D01*
X10098753Y-15869698D02*
X10079706Y-15860174D01*
X10079706Y-15860174D02*
X10070182Y-15850650D01*
X10070182Y-15850650D02*
X10060658Y-15831603D01*
X10060658Y-15831603D02*
X10060658Y-15822079D01*
X10060658Y-15822079D02*
X10070182Y-15803031D01*
X10070182Y-15803031D02*
X10079706Y-15793508D01*
X10079706Y-15793508D02*
X10098753Y-15783984D01*
X10098753Y-15783984D02*
X10136849Y-15783984D01*
X10136849Y-15783984D02*
X10155896Y-15793508D01*
X10155896Y-15793508D02*
X10165420Y-15803031D01*
X10165420Y-15803031D02*
X10174944Y-15822079D01*
X10174944Y-15822079D02*
X10174944Y-15831603D01*
X10174944Y-15831603D02*
X10165420Y-15850650D01*
X10165420Y-15850650D02*
X10155896Y-15860174D01*
X10155896Y-15860174D02*
X10136849Y-15869698D01*
X10136849Y-15869698D02*
X10098753Y-15869698D01*
X10098753Y-15869698D02*
X10079706Y-15879222D01*
X10079706Y-15879222D02*
X10070182Y-15888746D01*
X10070182Y-15888746D02*
X10060658Y-15907793D01*
X10060658Y-15907793D02*
X10060658Y-15945888D01*
X10060658Y-15945888D02*
X10070182Y-15964936D01*
X10070182Y-15964936D02*
X10079706Y-15974460D01*
X10079706Y-15974460D02*
X10098753Y-15983984D01*
X10098753Y-15983984D02*
X10136849Y-15983984D01*
X10136849Y-15983984D02*
X10155896Y-15974460D01*
X10155896Y-15974460D02*
X10165420Y-15964936D01*
X10165420Y-15964936D02*
X10174944Y-15945888D01*
X10174944Y-15945888D02*
X10174944Y-15907793D01*
X10174944Y-15907793D02*
X10165420Y-15888746D01*
X10165420Y-15888746D02*
X10155896Y-15879222D01*
X10155896Y-15879222D02*
X10136849Y-15869698D01*
X10251134Y-15783984D02*
X10251134Y-15822079D01*
X10327325Y-15783984D02*
X10327325Y-15822079D01*
X10622563Y-16060174D02*
X10613039Y-16050650D01*
X10613039Y-16050650D02*
X10593991Y-16022079D01*
X10593991Y-16022079D02*
X10584468Y-16003031D01*
X10584468Y-16003031D02*
X10574944Y-15974460D01*
X10574944Y-15974460D02*
X10565420Y-15926841D01*
X10565420Y-15926841D02*
X10565420Y-15888746D01*
X10565420Y-15888746D02*
X10574944Y-15841127D01*
X10574944Y-15841127D02*
X10584468Y-15812555D01*
X10584468Y-15812555D02*
X10593991Y-15793508D01*
X10593991Y-15793508D02*
X10613039Y-15764936D01*
X10613039Y-15764936D02*
X10622563Y-15755412D01*
X10679706Y-15783984D02*
X10803515Y-15783984D01*
X10803515Y-15783984D02*
X10736849Y-15860174D01*
X10736849Y-15860174D02*
X10765420Y-15860174D01*
X10765420Y-15860174D02*
X10784468Y-15869698D01*
X10784468Y-15869698D02*
X10793991Y-15879222D01*
X10793991Y-15879222D02*
X10803515Y-15898269D01*
X10803515Y-15898269D02*
X10803515Y-15945888D01*
X10803515Y-15945888D02*
X10793991Y-15964936D01*
X10793991Y-15964936D02*
X10784468Y-15974460D01*
X10784468Y-15974460D02*
X10765420Y-15983984D01*
X10765420Y-15983984D02*
X10708277Y-15983984D01*
X10708277Y-15983984D02*
X10689230Y-15974460D01*
X10689230Y-15974460D02*
X10679706Y-15964936D01*
X10917801Y-15869698D02*
X10898753Y-15860174D01*
X10898753Y-15860174D02*
X10889230Y-15850650D01*
X10889230Y-15850650D02*
X10879706Y-15831603D01*
X10879706Y-15831603D02*
X10879706Y-15822079D01*
X10879706Y-15822079D02*
X10889230Y-15803031D01*
X10889230Y-15803031D02*
X10898753Y-15793508D01*
X10898753Y-15793508D02*
X10917801Y-15783984D01*
X10917801Y-15783984D02*
X10955896Y-15783984D01*
X10955896Y-15783984D02*
X10974944Y-15793508D01*
X10974944Y-15793508D02*
X10984468Y-15803031D01*
X10984468Y-15803031D02*
X10993991Y-15822079D01*
X10993991Y-15822079D02*
X10993991Y-15831603D01*
X10993991Y-15831603D02*
X10984468Y-15850650D01*
X10984468Y-15850650D02*
X10974944Y-15860174D01*
X10974944Y-15860174D02*
X10955896Y-15869698D01*
X10955896Y-15869698D02*
X10917801Y-15869698D01*
X10917801Y-15869698D02*
X10898753Y-15879222D01*
X10898753Y-15879222D02*
X10889230Y-15888746D01*
X10889230Y-15888746D02*
X10879706Y-15907793D01*
X10879706Y-15907793D02*
X10879706Y-15945888D01*
X10879706Y-15945888D02*
X10889230Y-15964936D01*
X10889230Y-15964936D02*
X10898753Y-15974460D01*
X10898753Y-15974460D02*
X10917801Y-15983984D01*
X10917801Y-15983984D02*
X10955896Y-15983984D01*
X10955896Y-15983984D02*
X10974944Y-15974460D01*
X10974944Y-15974460D02*
X10984468Y-15964936D01*
X10984468Y-15964936D02*
X10993991Y-15945888D01*
X10993991Y-15945888D02*
X10993991Y-15907793D01*
X10993991Y-15907793D02*
X10984468Y-15888746D01*
X10984468Y-15888746D02*
X10974944Y-15879222D01*
X10974944Y-15879222D02*
X10955896Y-15869698D01*
X11232087Y-15983984D02*
X11232087Y-15783984D01*
X11317801Y-15983984D02*
X11317801Y-15879222D01*
X11317801Y-15879222D02*
X11308277Y-15860174D01*
X11308277Y-15860174D02*
X11289230Y-15850650D01*
X11289230Y-15850650D02*
X11260658Y-15850650D01*
X11260658Y-15850650D02*
X11241610Y-15860174D01*
X11241610Y-15860174D02*
X11232087Y-15869698D01*
X11441610Y-15983984D02*
X11422563Y-15974460D01*
X11422563Y-15974460D02*
X11413039Y-15964936D01*
X11413039Y-15964936D02*
X11403515Y-15945888D01*
X11403515Y-15945888D02*
X11403515Y-15888746D01*
X11403515Y-15888746D02*
X11413039Y-15869698D01*
X11413039Y-15869698D02*
X11422563Y-15860174D01*
X11422563Y-15860174D02*
X11441610Y-15850650D01*
X11441610Y-15850650D02*
X11470182Y-15850650D01*
X11470182Y-15850650D02*
X11489230Y-15860174D01*
X11489230Y-15860174D02*
X11498753Y-15869698D01*
X11498753Y-15869698D02*
X11508277Y-15888746D01*
X11508277Y-15888746D02*
X11508277Y-15945888D01*
X11508277Y-15945888D02*
X11498753Y-15964936D01*
X11498753Y-15964936D02*
X11489230Y-15974460D01*
X11489230Y-15974460D02*
X11470182Y-15983984D01*
X11470182Y-15983984D02*
X11441610Y-15983984D01*
X11622563Y-15983984D02*
X11603515Y-15974460D01*
X11603515Y-15974460D02*
X11593991Y-15955412D01*
X11593991Y-15955412D02*
X11593991Y-15783984D01*
X11774944Y-15974460D02*
X11755896Y-15983984D01*
X11755896Y-15983984D02*
X11717801Y-15983984D01*
X11717801Y-15983984D02*
X11698753Y-15974460D01*
X11698753Y-15974460D02*
X11689230Y-15955412D01*
X11689230Y-15955412D02*
X11689230Y-15879222D01*
X11689230Y-15879222D02*
X11698753Y-15860174D01*
X11698753Y-15860174D02*
X11717801Y-15850650D01*
X11717801Y-15850650D02*
X11755896Y-15850650D01*
X11755896Y-15850650D02*
X11774944Y-15860174D01*
X11774944Y-15860174D02*
X11784468Y-15879222D01*
X11784468Y-15879222D02*
X11784468Y-15898269D01*
X11784468Y-15898269D02*
X11689230Y-15917317D01*
X11860658Y-15974460D02*
X11879706Y-15983984D01*
X11879706Y-15983984D02*
X11917801Y-15983984D01*
X11917801Y-15983984D02*
X11936849Y-15974460D01*
X11936849Y-15974460D02*
X11946372Y-15955412D01*
X11946372Y-15955412D02*
X11946372Y-15945888D01*
X11946372Y-15945888D02*
X11936849Y-15926841D01*
X11936849Y-15926841D02*
X11917801Y-15917317D01*
X11917801Y-15917317D02*
X11889230Y-15917317D01*
X11889230Y-15917317D02*
X11870182Y-15907793D01*
X11870182Y-15907793D02*
X11860658Y-15888746D01*
X11860658Y-15888746D02*
X11860658Y-15879222D01*
X11860658Y-15879222D02*
X11870182Y-15860174D01*
X11870182Y-15860174D02*
X11889230Y-15850650D01*
X11889230Y-15850650D02*
X11917801Y-15850650D01*
X11917801Y-15850650D02*
X11936849Y-15860174D01*
X12013039Y-16060174D02*
X12022563Y-16050650D01*
X12022563Y-16050650D02*
X12041611Y-16022079D01*
X12041611Y-16022079D02*
X12051134Y-16003031D01*
X12051134Y-16003031D02*
X12060658Y-15974460D01*
X12060658Y-15974460D02*
X12070182Y-15926841D01*
X12070182Y-15926841D02*
X12070182Y-15888746D01*
X12070182Y-15888746D02*
X12060658Y-15841127D01*
X12060658Y-15841127D02*
X12051134Y-15812555D01*
X12051134Y-15812555D02*
X12041611Y-15793508D01*
X12041611Y-15793508D02*
X12022563Y-15764936D01*
X12022563Y-15764936D02*
X12013039Y-15755412D01*
D13*
X7047500Y-16156500D02*
G75*
G02*
X6987500Y-16156500I-30000J0D01*
G01*
X6987500Y-16156500D02*
G75*
G02*
X7047500Y-16156500I30000J0D01*
G01*
D12*
X7346372Y-16047984D02*
X7365420Y-16047984D01*
X7365420Y-16047984D02*
X7384467Y-16057508D01*
X7384467Y-16057508D02*
X7393991Y-16067031D01*
X7393991Y-16067031D02*
X7403515Y-16086079D01*
X7403515Y-16086079D02*
X7413039Y-16124174D01*
X7413039Y-16124174D02*
X7413039Y-16171793D01*
X7413039Y-16171793D02*
X7403515Y-16209888D01*
X7403515Y-16209888D02*
X7393991Y-16228936D01*
X7393991Y-16228936D02*
X7384467Y-16238460D01*
X7384467Y-16238460D02*
X7365420Y-16247984D01*
X7365420Y-16247984D02*
X7346372Y-16247984D01*
X7346372Y-16247984D02*
X7327324Y-16238460D01*
X7327324Y-16238460D02*
X7317801Y-16228936D01*
X7317801Y-16228936D02*
X7308277Y-16209888D01*
X7308277Y-16209888D02*
X7298753Y-16171793D01*
X7298753Y-16171793D02*
X7298753Y-16124174D01*
X7298753Y-16124174D02*
X7308277Y-16086079D01*
X7308277Y-16086079D02*
X7317801Y-16067031D01*
X7317801Y-16067031D02*
X7327324Y-16057508D01*
X7327324Y-16057508D02*
X7346372Y-16047984D01*
X7498753Y-16228936D02*
X7508277Y-16238460D01*
X7508277Y-16238460D02*
X7498753Y-16247984D01*
X7498753Y-16247984D02*
X7489229Y-16238460D01*
X7489229Y-16238460D02*
X7498753Y-16228936D01*
X7498753Y-16228936D02*
X7498753Y-16247984D01*
X7679705Y-16047984D02*
X7641610Y-16047984D01*
X7641610Y-16047984D02*
X7622562Y-16057508D01*
X7622562Y-16057508D02*
X7613039Y-16067031D01*
X7613039Y-16067031D02*
X7593991Y-16095603D01*
X7593991Y-16095603D02*
X7584467Y-16133698D01*
X7584467Y-16133698D02*
X7584467Y-16209888D01*
X7584467Y-16209888D02*
X7593991Y-16228936D01*
X7593991Y-16228936D02*
X7603515Y-16238460D01*
X7603515Y-16238460D02*
X7622562Y-16247984D01*
X7622562Y-16247984D02*
X7660658Y-16247984D01*
X7660658Y-16247984D02*
X7679705Y-16238460D01*
X7679705Y-16238460D02*
X7689229Y-16228936D01*
X7689229Y-16228936D02*
X7698753Y-16209888D01*
X7698753Y-16209888D02*
X7698753Y-16162269D01*
X7698753Y-16162269D02*
X7689229Y-16143222D01*
X7689229Y-16143222D02*
X7679705Y-16133698D01*
X7679705Y-16133698D02*
X7660658Y-16124174D01*
X7660658Y-16124174D02*
X7622562Y-16124174D01*
X7622562Y-16124174D02*
X7603515Y-16133698D01*
X7603515Y-16133698D02*
X7593991Y-16143222D01*
X7593991Y-16143222D02*
X7584467Y-16162269D01*
X7822562Y-16047984D02*
X7841610Y-16047984D01*
X7841610Y-16047984D02*
X7860658Y-16057508D01*
X7860658Y-16057508D02*
X7870182Y-16067031D01*
X7870182Y-16067031D02*
X7879705Y-16086079D01*
X7879705Y-16086079D02*
X7889229Y-16124174D01*
X7889229Y-16124174D02*
X7889229Y-16171793D01*
X7889229Y-16171793D02*
X7879705Y-16209888D01*
X7879705Y-16209888D02*
X7870182Y-16228936D01*
X7870182Y-16228936D02*
X7860658Y-16238460D01*
X7860658Y-16238460D02*
X7841610Y-16247984D01*
X7841610Y-16247984D02*
X7822562Y-16247984D01*
X7822562Y-16247984D02*
X7803515Y-16238460D01*
X7803515Y-16238460D02*
X7793991Y-16228936D01*
X7793991Y-16228936D02*
X7784467Y-16209888D01*
X7784467Y-16209888D02*
X7774943Y-16171793D01*
X7774943Y-16171793D02*
X7774943Y-16124174D01*
X7774943Y-16124174D02*
X7784467Y-16086079D01*
X7784467Y-16086079D02*
X7793991Y-16067031D01*
X7793991Y-16067031D02*
X7803515Y-16057508D01*
X7803515Y-16057508D02*
X7822562Y-16047984D01*
X8013039Y-16047984D02*
X8032086Y-16047984D01*
X8032086Y-16047984D02*
X8051134Y-16057508D01*
X8051134Y-16057508D02*
X8060658Y-16067031D01*
X8060658Y-16067031D02*
X8070182Y-16086079D01*
X8070182Y-16086079D02*
X8079705Y-16124174D01*
X8079705Y-16124174D02*
X8079705Y-16171793D01*
X8079705Y-16171793D02*
X8070182Y-16209888D01*
X8070182Y-16209888D02*
X8060658Y-16228936D01*
X8060658Y-16228936D02*
X8051134Y-16238460D01*
X8051134Y-16238460D02*
X8032086Y-16247984D01*
X8032086Y-16247984D02*
X8013039Y-16247984D01*
X8013039Y-16247984D02*
X7993991Y-16238460D01*
X7993991Y-16238460D02*
X7984467Y-16228936D01*
X7984467Y-16228936D02*
X7974943Y-16209888D01*
X7974943Y-16209888D02*
X7965420Y-16171793D01*
X7965420Y-16171793D02*
X7965420Y-16124174D01*
X7965420Y-16124174D02*
X7974943Y-16086079D01*
X7974943Y-16086079D02*
X7984467Y-16067031D01*
X7984467Y-16067031D02*
X7993991Y-16057508D01*
X7993991Y-16057508D02*
X8013039Y-16047984D01*
X8165420Y-16247984D02*
X8165420Y-16114650D01*
X8165420Y-16133698D02*
X8174943Y-16124174D01*
X8174943Y-16124174D02*
X8193991Y-16114650D01*
X8193991Y-16114650D02*
X8222563Y-16114650D01*
X8222563Y-16114650D02*
X8241610Y-16124174D01*
X8241610Y-16124174D02*
X8251134Y-16143222D01*
X8251134Y-16143222D02*
X8251134Y-16247984D01*
X8251134Y-16143222D02*
X8260658Y-16124174D01*
X8260658Y-16124174D02*
X8279705Y-16114650D01*
X8279705Y-16114650D02*
X8308277Y-16114650D01*
X8308277Y-16114650D02*
X8327324Y-16124174D01*
X8327324Y-16124174D02*
X8336848Y-16143222D01*
X8336848Y-16143222D02*
X8336848Y-16247984D01*
X8432086Y-16247984D02*
X8432086Y-16114650D01*
X8432086Y-16133698D02*
X8441610Y-16124174D01*
X8441610Y-16124174D02*
X8460658Y-16114650D01*
X8460658Y-16114650D02*
X8489229Y-16114650D01*
X8489229Y-16114650D02*
X8508277Y-16124174D01*
X8508277Y-16124174D02*
X8517801Y-16143222D01*
X8517801Y-16143222D02*
X8517801Y-16247984D01*
X8517801Y-16143222D02*
X8527325Y-16124174D01*
X8527325Y-16124174D02*
X8546372Y-16114650D01*
X8546372Y-16114650D02*
X8574944Y-16114650D01*
X8574944Y-16114650D02*
X8593991Y-16124174D01*
X8593991Y-16124174D02*
X8603515Y-16143222D01*
X8603515Y-16143222D02*
X8603515Y-16247984D01*
X8993991Y-16038460D02*
X8822563Y-16295603D01*
X9251134Y-16047984D02*
X9270182Y-16047984D01*
X9270182Y-16047984D02*
X9289229Y-16057508D01*
X9289229Y-16057508D02*
X9298753Y-16067031D01*
X9298753Y-16067031D02*
X9308277Y-16086079D01*
X9308277Y-16086079D02*
X9317801Y-16124174D01*
X9317801Y-16124174D02*
X9317801Y-16171793D01*
X9317801Y-16171793D02*
X9308277Y-16209888D01*
X9308277Y-16209888D02*
X9298753Y-16228936D01*
X9298753Y-16228936D02*
X9289229Y-16238460D01*
X9289229Y-16238460D02*
X9270182Y-16247984D01*
X9270182Y-16247984D02*
X9251134Y-16247984D01*
X9251134Y-16247984D02*
X9232087Y-16238460D01*
X9232087Y-16238460D02*
X9222563Y-16228936D01*
X9222563Y-16228936D02*
X9213039Y-16209888D01*
X9213039Y-16209888D02*
X9203515Y-16171793D01*
X9203515Y-16171793D02*
X9203515Y-16124174D01*
X9203515Y-16124174D02*
X9213039Y-16086079D01*
X9213039Y-16086079D02*
X9222563Y-16067031D01*
X9222563Y-16067031D02*
X9232087Y-16057508D01*
X9232087Y-16057508D02*
X9251134Y-16047984D01*
X9403515Y-16228936D02*
X9413039Y-16238460D01*
X9413039Y-16238460D02*
X9403515Y-16247984D01*
X9403515Y-16247984D02*
X9393991Y-16238460D01*
X9393991Y-16238460D02*
X9403515Y-16228936D01*
X9403515Y-16228936D02*
X9403515Y-16247984D01*
X9536848Y-16047984D02*
X9555896Y-16047984D01*
X9555896Y-16047984D02*
X9574944Y-16057508D01*
X9574944Y-16057508D02*
X9584468Y-16067031D01*
X9584468Y-16067031D02*
X9593991Y-16086079D01*
X9593991Y-16086079D02*
X9603515Y-16124174D01*
X9603515Y-16124174D02*
X9603515Y-16171793D01*
X9603515Y-16171793D02*
X9593991Y-16209888D01*
X9593991Y-16209888D02*
X9584468Y-16228936D01*
X9584468Y-16228936D02*
X9574944Y-16238460D01*
X9574944Y-16238460D02*
X9555896Y-16247984D01*
X9555896Y-16247984D02*
X9536848Y-16247984D01*
X9536848Y-16247984D02*
X9517801Y-16238460D01*
X9517801Y-16238460D02*
X9508277Y-16228936D01*
X9508277Y-16228936D02*
X9498753Y-16209888D01*
X9498753Y-16209888D02*
X9489229Y-16171793D01*
X9489229Y-16171793D02*
X9489229Y-16124174D01*
X9489229Y-16124174D02*
X9498753Y-16086079D01*
X9498753Y-16086079D02*
X9508277Y-16067031D01*
X9508277Y-16067031D02*
X9517801Y-16057508D01*
X9517801Y-16057508D02*
X9536848Y-16047984D01*
X9679706Y-16067031D02*
X9689229Y-16057508D01*
X9689229Y-16057508D02*
X9708277Y-16047984D01*
X9708277Y-16047984D02*
X9755896Y-16047984D01*
X9755896Y-16047984D02*
X9774944Y-16057508D01*
X9774944Y-16057508D02*
X9784468Y-16067031D01*
X9784468Y-16067031D02*
X9793991Y-16086079D01*
X9793991Y-16086079D02*
X9793991Y-16105127D01*
X9793991Y-16105127D02*
X9784468Y-16133698D01*
X9784468Y-16133698D02*
X9670182Y-16247984D01*
X9670182Y-16247984D02*
X9793991Y-16247984D01*
X9860658Y-16047984D02*
X9984468Y-16047984D01*
X9984468Y-16047984D02*
X9917801Y-16124174D01*
X9917801Y-16124174D02*
X9946372Y-16124174D01*
X9946372Y-16124174D02*
X9965420Y-16133698D01*
X9965420Y-16133698D02*
X9974944Y-16143222D01*
X9974944Y-16143222D02*
X9984468Y-16162269D01*
X9984468Y-16162269D02*
X9984468Y-16209888D01*
X9984468Y-16209888D02*
X9974944Y-16228936D01*
X9974944Y-16228936D02*
X9965420Y-16238460D01*
X9965420Y-16238460D02*
X9946372Y-16247984D01*
X9946372Y-16247984D02*
X9889229Y-16247984D01*
X9889229Y-16247984D02*
X9870182Y-16238460D01*
X9870182Y-16238460D02*
X9860658Y-16228936D01*
X10155896Y-16047984D02*
X10117801Y-16047984D01*
X10117801Y-16047984D02*
X10098753Y-16057508D01*
X10098753Y-16057508D02*
X10089229Y-16067031D01*
X10089229Y-16067031D02*
X10070182Y-16095603D01*
X10070182Y-16095603D02*
X10060658Y-16133698D01*
X10060658Y-16133698D02*
X10060658Y-16209888D01*
X10060658Y-16209888D02*
X10070182Y-16228936D01*
X10070182Y-16228936D02*
X10079706Y-16238460D01*
X10079706Y-16238460D02*
X10098753Y-16247984D01*
X10098753Y-16247984D02*
X10136849Y-16247984D01*
X10136849Y-16247984D02*
X10155896Y-16238460D01*
X10155896Y-16238460D02*
X10165420Y-16228936D01*
X10165420Y-16228936D02*
X10174944Y-16209888D01*
X10174944Y-16209888D02*
X10174944Y-16162269D01*
X10174944Y-16162269D02*
X10165420Y-16143222D01*
X10165420Y-16143222D02*
X10155896Y-16133698D01*
X10155896Y-16133698D02*
X10136849Y-16124174D01*
X10136849Y-16124174D02*
X10098753Y-16124174D01*
X10098753Y-16124174D02*
X10079706Y-16133698D01*
X10079706Y-16133698D02*
X10070182Y-16143222D01*
X10070182Y-16143222D02*
X10060658Y-16162269D01*
X10251134Y-16047984D02*
X10251134Y-16086079D01*
X10327325Y-16047984D02*
X10327325Y-16086079D01*
X10622563Y-16324174D02*
X10613039Y-16314650D01*
X10613039Y-16314650D02*
X10593991Y-16286079D01*
X10593991Y-16286079D02*
X10584468Y-16267031D01*
X10584468Y-16267031D02*
X10574944Y-16238460D01*
X10574944Y-16238460D02*
X10565420Y-16190841D01*
X10565420Y-16190841D02*
X10565420Y-16152746D01*
X10565420Y-16152746D02*
X10574944Y-16105127D01*
X10574944Y-16105127D02*
X10584468Y-16076555D01*
X10584468Y-16076555D02*
X10593991Y-16057508D01*
X10593991Y-16057508D02*
X10613039Y-16028936D01*
X10613039Y-16028936D02*
X10622563Y-16019412D01*
X10784468Y-16047984D02*
X10746372Y-16047984D01*
X10746372Y-16047984D02*
X10727325Y-16057508D01*
X10727325Y-16057508D02*
X10717801Y-16067031D01*
X10717801Y-16067031D02*
X10698753Y-16095603D01*
X10698753Y-16095603D02*
X10689230Y-16133698D01*
X10689230Y-16133698D02*
X10689230Y-16209888D01*
X10689230Y-16209888D02*
X10698753Y-16228936D01*
X10698753Y-16228936D02*
X10708277Y-16238460D01*
X10708277Y-16238460D02*
X10727325Y-16247984D01*
X10727325Y-16247984D02*
X10765420Y-16247984D01*
X10765420Y-16247984D02*
X10784468Y-16238460D01*
X10784468Y-16238460D02*
X10793991Y-16228936D01*
X10793991Y-16228936D02*
X10803515Y-16209888D01*
X10803515Y-16209888D02*
X10803515Y-16162269D01*
X10803515Y-16162269D02*
X10793991Y-16143222D01*
X10793991Y-16143222D02*
X10784468Y-16133698D01*
X10784468Y-16133698D02*
X10765420Y-16124174D01*
X10765420Y-16124174D02*
X10727325Y-16124174D01*
X10727325Y-16124174D02*
X10708277Y-16133698D01*
X10708277Y-16133698D02*
X10698753Y-16143222D01*
X10698753Y-16143222D02*
X10689230Y-16162269D01*
X11041611Y-16247984D02*
X11041611Y-16047984D01*
X11127325Y-16247984D02*
X11127325Y-16143222D01*
X11127325Y-16143222D02*
X11117801Y-16124174D01*
X11117801Y-16124174D02*
X11098753Y-16114650D01*
X11098753Y-16114650D02*
X11070182Y-16114650D01*
X11070182Y-16114650D02*
X11051134Y-16124174D01*
X11051134Y-16124174D02*
X11041611Y-16133698D01*
X11251134Y-16247984D02*
X11232087Y-16238460D01*
X11232087Y-16238460D02*
X11222563Y-16228936D01*
X11222563Y-16228936D02*
X11213039Y-16209888D01*
X11213039Y-16209888D02*
X11213039Y-16152746D01*
X11213039Y-16152746D02*
X11222563Y-16133698D01*
X11222563Y-16133698D02*
X11232087Y-16124174D01*
X11232087Y-16124174D02*
X11251134Y-16114650D01*
X11251134Y-16114650D02*
X11279706Y-16114650D01*
X11279706Y-16114650D02*
X11298753Y-16124174D01*
X11298753Y-16124174D02*
X11308277Y-16133698D01*
X11308277Y-16133698D02*
X11317801Y-16152746D01*
X11317801Y-16152746D02*
X11317801Y-16209888D01*
X11317801Y-16209888D02*
X11308277Y-16228936D01*
X11308277Y-16228936D02*
X11298753Y-16238460D01*
X11298753Y-16238460D02*
X11279706Y-16247984D01*
X11279706Y-16247984D02*
X11251134Y-16247984D01*
X11432087Y-16247984D02*
X11413039Y-16238460D01*
X11413039Y-16238460D02*
X11403515Y-16219412D01*
X11403515Y-16219412D02*
X11403515Y-16047984D01*
X11584468Y-16238460D02*
X11565420Y-16247984D01*
X11565420Y-16247984D02*
X11527325Y-16247984D01*
X11527325Y-16247984D02*
X11508277Y-16238460D01*
X11508277Y-16238460D02*
X11498753Y-16219412D01*
X11498753Y-16219412D02*
X11498753Y-16143222D01*
X11498753Y-16143222D02*
X11508277Y-16124174D01*
X11508277Y-16124174D02*
X11527325Y-16114650D01*
X11527325Y-16114650D02*
X11565420Y-16114650D01*
X11565420Y-16114650D02*
X11584468Y-16124174D01*
X11584468Y-16124174D02*
X11593991Y-16143222D01*
X11593991Y-16143222D02*
X11593991Y-16162269D01*
X11593991Y-16162269D02*
X11498753Y-16181317D01*
X11670182Y-16238460D02*
X11689230Y-16247984D01*
X11689230Y-16247984D02*
X11727325Y-16247984D01*
X11727325Y-16247984D02*
X11746372Y-16238460D01*
X11746372Y-16238460D02*
X11755896Y-16219412D01*
X11755896Y-16219412D02*
X11755896Y-16209888D01*
X11755896Y-16209888D02*
X11746372Y-16190841D01*
X11746372Y-16190841D02*
X11727325Y-16181317D01*
X11727325Y-16181317D02*
X11698753Y-16181317D01*
X11698753Y-16181317D02*
X11679706Y-16171793D01*
X11679706Y-16171793D02*
X11670182Y-16152746D01*
X11670182Y-16152746D02*
X11670182Y-16143222D01*
X11670182Y-16143222D02*
X11679706Y-16124174D01*
X11679706Y-16124174D02*
X11698753Y-16114650D01*
X11698753Y-16114650D02*
X11727325Y-16114650D01*
X11727325Y-16114650D02*
X11746372Y-16124174D01*
X11822563Y-16324174D02*
X11832087Y-16314650D01*
X11832087Y-16314650D02*
X11851134Y-16286079D01*
X11851134Y-16286079D02*
X11860658Y-16267031D01*
X11860658Y-16267031D02*
X11870182Y-16238460D01*
X11870182Y-16238460D02*
X11879706Y-16190841D01*
X11879706Y-16190841D02*
X11879706Y-16152746D01*
X11879706Y-16152746D02*
X11870182Y-16105127D01*
X11870182Y-16105127D02*
X11860658Y-16076555D01*
X11860658Y-16076555D02*
X11851134Y-16057508D01*
X11851134Y-16057508D02*
X11832087Y-16028936D01*
X11832087Y-16028936D02*
X11822563Y-16019412D01*
D13*
X6997500Y-16370500D02*
X6997500Y-16470500D01*
X6947500Y-16420500D02*
X7047500Y-16420500D01*
D12*
X7413039Y-16511984D02*
X7298753Y-16511984D01*
X7355896Y-16511984D02*
X7355896Y-16311984D01*
X7355896Y-16311984D02*
X7336848Y-16340555D01*
X7336848Y-16340555D02*
X7317801Y-16359603D01*
X7317801Y-16359603D02*
X7298753Y-16369127D01*
X7498753Y-16492936D02*
X7508277Y-16502460D01*
X7508277Y-16502460D02*
X7498753Y-16511984D01*
X7498753Y-16511984D02*
X7489229Y-16502460D01*
X7489229Y-16502460D02*
X7498753Y-16492936D01*
X7498753Y-16492936D02*
X7498753Y-16511984D01*
X7632086Y-16311984D02*
X7651134Y-16311984D01*
X7651134Y-16311984D02*
X7670182Y-16321508D01*
X7670182Y-16321508D02*
X7679705Y-16331031D01*
X7679705Y-16331031D02*
X7689229Y-16350079D01*
X7689229Y-16350079D02*
X7698753Y-16388174D01*
X7698753Y-16388174D02*
X7698753Y-16435793D01*
X7698753Y-16435793D02*
X7689229Y-16473888D01*
X7689229Y-16473888D02*
X7679705Y-16492936D01*
X7679705Y-16492936D02*
X7670182Y-16502460D01*
X7670182Y-16502460D02*
X7651134Y-16511984D01*
X7651134Y-16511984D02*
X7632086Y-16511984D01*
X7632086Y-16511984D02*
X7613039Y-16502460D01*
X7613039Y-16502460D02*
X7603515Y-16492936D01*
X7603515Y-16492936D02*
X7593991Y-16473888D01*
X7593991Y-16473888D02*
X7584467Y-16435793D01*
X7584467Y-16435793D02*
X7584467Y-16388174D01*
X7584467Y-16388174D02*
X7593991Y-16350079D01*
X7593991Y-16350079D02*
X7603515Y-16331031D01*
X7603515Y-16331031D02*
X7613039Y-16321508D01*
X7613039Y-16321508D02*
X7632086Y-16311984D01*
X7822562Y-16311984D02*
X7841610Y-16311984D01*
X7841610Y-16311984D02*
X7860658Y-16321508D01*
X7860658Y-16321508D02*
X7870182Y-16331031D01*
X7870182Y-16331031D02*
X7879705Y-16350079D01*
X7879705Y-16350079D02*
X7889229Y-16388174D01*
X7889229Y-16388174D02*
X7889229Y-16435793D01*
X7889229Y-16435793D02*
X7879705Y-16473888D01*
X7879705Y-16473888D02*
X7870182Y-16492936D01*
X7870182Y-16492936D02*
X7860658Y-16502460D01*
X7860658Y-16502460D02*
X7841610Y-16511984D01*
X7841610Y-16511984D02*
X7822562Y-16511984D01*
X7822562Y-16511984D02*
X7803515Y-16502460D01*
X7803515Y-16502460D02*
X7793991Y-16492936D01*
X7793991Y-16492936D02*
X7784467Y-16473888D01*
X7784467Y-16473888D02*
X7774943Y-16435793D01*
X7774943Y-16435793D02*
X7774943Y-16388174D01*
X7774943Y-16388174D02*
X7784467Y-16350079D01*
X7784467Y-16350079D02*
X7793991Y-16331031D01*
X7793991Y-16331031D02*
X7803515Y-16321508D01*
X7803515Y-16321508D02*
X7822562Y-16311984D01*
X8013039Y-16311984D02*
X8032086Y-16311984D01*
X8032086Y-16311984D02*
X8051134Y-16321508D01*
X8051134Y-16321508D02*
X8060658Y-16331031D01*
X8060658Y-16331031D02*
X8070182Y-16350079D01*
X8070182Y-16350079D02*
X8079705Y-16388174D01*
X8079705Y-16388174D02*
X8079705Y-16435793D01*
X8079705Y-16435793D02*
X8070182Y-16473888D01*
X8070182Y-16473888D02*
X8060658Y-16492936D01*
X8060658Y-16492936D02*
X8051134Y-16502460D01*
X8051134Y-16502460D02*
X8032086Y-16511984D01*
X8032086Y-16511984D02*
X8013039Y-16511984D01*
X8013039Y-16511984D02*
X7993991Y-16502460D01*
X7993991Y-16502460D02*
X7984467Y-16492936D01*
X7984467Y-16492936D02*
X7974943Y-16473888D01*
X7974943Y-16473888D02*
X7965420Y-16435793D01*
X7965420Y-16435793D02*
X7965420Y-16388174D01*
X7965420Y-16388174D02*
X7974943Y-16350079D01*
X7974943Y-16350079D02*
X7984467Y-16331031D01*
X7984467Y-16331031D02*
X7993991Y-16321508D01*
X7993991Y-16321508D02*
X8013039Y-16311984D01*
X8165420Y-16511984D02*
X8165420Y-16378650D01*
X8165420Y-16397698D02*
X8174943Y-16388174D01*
X8174943Y-16388174D02*
X8193991Y-16378650D01*
X8193991Y-16378650D02*
X8222563Y-16378650D01*
X8222563Y-16378650D02*
X8241610Y-16388174D01*
X8241610Y-16388174D02*
X8251134Y-16407222D01*
X8251134Y-16407222D02*
X8251134Y-16511984D01*
X8251134Y-16407222D02*
X8260658Y-16388174D01*
X8260658Y-16388174D02*
X8279705Y-16378650D01*
X8279705Y-16378650D02*
X8308277Y-16378650D01*
X8308277Y-16378650D02*
X8327324Y-16388174D01*
X8327324Y-16388174D02*
X8336848Y-16407222D01*
X8336848Y-16407222D02*
X8336848Y-16511984D01*
X8432086Y-16511984D02*
X8432086Y-16378650D01*
X8432086Y-16397698D02*
X8441610Y-16388174D01*
X8441610Y-16388174D02*
X8460658Y-16378650D01*
X8460658Y-16378650D02*
X8489229Y-16378650D01*
X8489229Y-16378650D02*
X8508277Y-16388174D01*
X8508277Y-16388174D02*
X8517801Y-16407222D01*
X8517801Y-16407222D02*
X8517801Y-16511984D01*
X8517801Y-16407222D02*
X8527325Y-16388174D01*
X8527325Y-16388174D02*
X8546372Y-16378650D01*
X8546372Y-16378650D02*
X8574944Y-16378650D01*
X8574944Y-16378650D02*
X8593991Y-16388174D01*
X8593991Y-16388174D02*
X8603515Y-16407222D01*
X8603515Y-16407222D02*
X8603515Y-16511984D01*
X8993991Y-16302460D02*
X8822563Y-16559603D01*
X9251134Y-16311984D02*
X9270182Y-16311984D01*
X9270182Y-16311984D02*
X9289229Y-16321508D01*
X9289229Y-16321508D02*
X9298753Y-16331031D01*
X9298753Y-16331031D02*
X9308277Y-16350079D01*
X9308277Y-16350079D02*
X9317801Y-16388174D01*
X9317801Y-16388174D02*
X9317801Y-16435793D01*
X9317801Y-16435793D02*
X9308277Y-16473888D01*
X9308277Y-16473888D02*
X9298753Y-16492936D01*
X9298753Y-16492936D02*
X9289229Y-16502460D01*
X9289229Y-16502460D02*
X9270182Y-16511984D01*
X9270182Y-16511984D02*
X9251134Y-16511984D01*
X9251134Y-16511984D02*
X9232087Y-16502460D01*
X9232087Y-16502460D02*
X9222563Y-16492936D01*
X9222563Y-16492936D02*
X9213039Y-16473888D01*
X9213039Y-16473888D02*
X9203515Y-16435793D01*
X9203515Y-16435793D02*
X9203515Y-16388174D01*
X9203515Y-16388174D02*
X9213039Y-16350079D01*
X9213039Y-16350079D02*
X9222563Y-16331031D01*
X9222563Y-16331031D02*
X9232087Y-16321508D01*
X9232087Y-16321508D02*
X9251134Y-16311984D01*
X9403515Y-16492936D02*
X9413039Y-16502460D01*
X9413039Y-16502460D02*
X9403515Y-16511984D01*
X9403515Y-16511984D02*
X9393991Y-16502460D01*
X9393991Y-16502460D02*
X9403515Y-16492936D01*
X9403515Y-16492936D02*
X9403515Y-16511984D01*
X9536848Y-16311984D02*
X9555896Y-16311984D01*
X9555896Y-16311984D02*
X9574944Y-16321508D01*
X9574944Y-16321508D02*
X9584468Y-16331031D01*
X9584468Y-16331031D02*
X9593991Y-16350079D01*
X9593991Y-16350079D02*
X9603515Y-16388174D01*
X9603515Y-16388174D02*
X9603515Y-16435793D01*
X9603515Y-16435793D02*
X9593991Y-16473888D01*
X9593991Y-16473888D02*
X9584468Y-16492936D01*
X9584468Y-16492936D02*
X9574944Y-16502460D01*
X9574944Y-16502460D02*
X9555896Y-16511984D01*
X9555896Y-16511984D02*
X9536848Y-16511984D01*
X9536848Y-16511984D02*
X9517801Y-16502460D01*
X9517801Y-16502460D02*
X9508277Y-16492936D01*
X9508277Y-16492936D02*
X9498753Y-16473888D01*
X9498753Y-16473888D02*
X9489229Y-16435793D01*
X9489229Y-16435793D02*
X9489229Y-16388174D01*
X9489229Y-16388174D02*
X9498753Y-16350079D01*
X9498753Y-16350079D02*
X9508277Y-16331031D01*
X9508277Y-16331031D02*
X9517801Y-16321508D01*
X9517801Y-16321508D02*
X9536848Y-16311984D01*
X9670182Y-16311984D02*
X9793991Y-16311984D01*
X9793991Y-16311984D02*
X9727325Y-16388174D01*
X9727325Y-16388174D02*
X9755896Y-16388174D01*
X9755896Y-16388174D02*
X9774944Y-16397698D01*
X9774944Y-16397698D02*
X9784468Y-16407222D01*
X9784468Y-16407222D02*
X9793991Y-16426269D01*
X9793991Y-16426269D02*
X9793991Y-16473888D01*
X9793991Y-16473888D02*
X9784468Y-16492936D01*
X9784468Y-16492936D02*
X9774944Y-16502460D01*
X9774944Y-16502460D02*
X9755896Y-16511984D01*
X9755896Y-16511984D02*
X9698753Y-16511984D01*
X9698753Y-16511984D02*
X9679706Y-16502460D01*
X9679706Y-16502460D02*
X9670182Y-16492936D01*
X9889229Y-16511984D02*
X9927325Y-16511984D01*
X9927325Y-16511984D02*
X9946372Y-16502460D01*
X9946372Y-16502460D02*
X9955896Y-16492936D01*
X9955896Y-16492936D02*
X9974944Y-16464365D01*
X9974944Y-16464365D02*
X9984468Y-16426269D01*
X9984468Y-16426269D02*
X9984468Y-16350079D01*
X9984468Y-16350079D02*
X9974944Y-16331031D01*
X9974944Y-16331031D02*
X9965420Y-16321508D01*
X9965420Y-16321508D02*
X9946372Y-16311984D01*
X9946372Y-16311984D02*
X9908277Y-16311984D01*
X9908277Y-16311984D02*
X9889229Y-16321508D01*
X9889229Y-16321508D02*
X9879706Y-16331031D01*
X9879706Y-16331031D02*
X9870182Y-16350079D01*
X9870182Y-16350079D02*
X9870182Y-16397698D01*
X9870182Y-16397698D02*
X9879706Y-16416746D01*
X9879706Y-16416746D02*
X9889229Y-16426269D01*
X9889229Y-16426269D02*
X9908277Y-16435793D01*
X9908277Y-16435793D02*
X9946372Y-16435793D01*
X9946372Y-16435793D02*
X9965420Y-16426269D01*
X9965420Y-16426269D02*
X9974944Y-16416746D01*
X9974944Y-16416746D02*
X9984468Y-16397698D01*
X10155896Y-16378650D02*
X10155896Y-16511984D01*
X10108277Y-16302460D02*
X10060658Y-16445317D01*
X10060658Y-16445317D02*
X10184468Y-16445317D01*
X10251134Y-16311984D02*
X10251134Y-16350079D01*
X10327325Y-16311984D02*
X10327325Y-16350079D01*
X10622563Y-16588174D02*
X10613039Y-16578650D01*
X10613039Y-16578650D02*
X10593991Y-16550079D01*
X10593991Y-16550079D02*
X10584468Y-16531031D01*
X10584468Y-16531031D02*
X10574944Y-16502460D01*
X10574944Y-16502460D02*
X10565420Y-16454841D01*
X10565420Y-16454841D02*
X10565420Y-16416746D01*
X10565420Y-16416746D02*
X10574944Y-16369127D01*
X10574944Y-16369127D02*
X10584468Y-16340555D01*
X10584468Y-16340555D02*
X10593991Y-16321508D01*
X10593991Y-16321508D02*
X10613039Y-16292936D01*
X10613039Y-16292936D02*
X10622563Y-16283412D01*
X10793991Y-16311984D02*
X10698753Y-16311984D01*
X10698753Y-16311984D02*
X10689230Y-16407222D01*
X10689230Y-16407222D02*
X10698753Y-16397698D01*
X10698753Y-16397698D02*
X10717801Y-16388174D01*
X10717801Y-16388174D02*
X10765420Y-16388174D01*
X10765420Y-16388174D02*
X10784468Y-16397698D01*
X10784468Y-16397698D02*
X10793991Y-16407222D01*
X10793991Y-16407222D02*
X10803515Y-16426269D01*
X10803515Y-16426269D02*
X10803515Y-16473888D01*
X10803515Y-16473888D02*
X10793991Y-16492936D01*
X10793991Y-16492936D02*
X10784468Y-16502460D01*
X10784468Y-16502460D02*
X10765420Y-16511984D01*
X10765420Y-16511984D02*
X10717801Y-16511984D01*
X10717801Y-16511984D02*
X10698753Y-16502460D01*
X10698753Y-16502460D02*
X10689230Y-16492936D01*
X10984468Y-16311984D02*
X10889230Y-16311984D01*
X10889230Y-16311984D02*
X10879706Y-16407222D01*
X10879706Y-16407222D02*
X10889230Y-16397698D01*
X10889230Y-16397698D02*
X10908277Y-16388174D01*
X10908277Y-16388174D02*
X10955896Y-16388174D01*
X10955896Y-16388174D02*
X10974944Y-16397698D01*
X10974944Y-16397698D02*
X10984468Y-16407222D01*
X10984468Y-16407222D02*
X10993991Y-16426269D01*
X10993991Y-16426269D02*
X10993991Y-16473888D01*
X10993991Y-16473888D02*
X10984468Y-16492936D01*
X10984468Y-16492936D02*
X10974944Y-16502460D01*
X10974944Y-16502460D02*
X10955896Y-16511984D01*
X10955896Y-16511984D02*
X10908277Y-16511984D01*
X10908277Y-16511984D02*
X10889230Y-16502460D01*
X10889230Y-16502460D02*
X10879706Y-16492936D01*
X11232087Y-16511984D02*
X11232087Y-16311984D01*
X11317801Y-16511984D02*
X11317801Y-16407222D01*
X11317801Y-16407222D02*
X11308277Y-16388174D01*
X11308277Y-16388174D02*
X11289230Y-16378650D01*
X11289230Y-16378650D02*
X11260658Y-16378650D01*
X11260658Y-16378650D02*
X11241610Y-16388174D01*
X11241610Y-16388174D02*
X11232087Y-16397698D01*
X11441610Y-16511984D02*
X11422563Y-16502460D01*
X11422563Y-16502460D02*
X11413039Y-16492936D01*
X11413039Y-16492936D02*
X11403515Y-16473888D01*
X11403515Y-16473888D02*
X11403515Y-16416746D01*
X11403515Y-16416746D02*
X11413039Y-16397698D01*
X11413039Y-16397698D02*
X11422563Y-16388174D01*
X11422563Y-16388174D02*
X11441610Y-16378650D01*
X11441610Y-16378650D02*
X11470182Y-16378650D01*
X11470182Y-16378650D02*
X11489230Y-16388174D01*
X11489230Y-16388174D02*
X11498753Y-16397698D01*
X11498753Y-16397698D02*
X11508277Y-16416746D01*
X11508277Y-16416746D02*
X11508277Y-16473888D01*
X11508277Y-16473888D02*
X11498753Y-16492936D01*
X11498753Y-16492936D02*
X11489230Y-16502460D01*
X11489230Y-16502460D02*
X11470182Y-16511984D01*
X11470182Y-16511984D02*
X11441610Y-16511984D01*
X11622563Y-16511984D02*
X11603515Y-16502460D01*
X11603515Y-16502460D02*
X11593991Y-16483412D01*
X11593991Y-16483412D02*
X11593991Y-16311984D01*
X11774944Y-16502460D02*
X11755896Y-16511984D01*
X11755896Y-16511984D02*
X11717801Y-16511984D01*
X11717801Y-16511984D02*
X11698753Y-16502460D01*
X11698753Y-16502460D02*
X11689230Y-16483412D01*
X11689230Y-16483412D02*
X11689230Y-16407222D01*
X11689230Y-16407222D02*
X11698753Y-16388174D01*
X11698753Y-16388174D02*
X11717801Y-16378650D01*
X11717801Y-16378650D02*
X11755896Y-16378650D01*
X11755896Y-16378650D02*
X11774944Y-16388174D01*
X11774944Y-16388174D02*
X11784468Y-16407222D01*
X11784468Y-16407222D02*
X11784468Y-16426269D01*
X11784468Y-16426269D02*
X11689230Y-16445317D01*
X11860658Y-16502460D02*
X11879706Y-16511984D01*
X11879706Y-16511984D02*
X11917801Y-16511984D01*
X11917801Y-16511984D02*
X11936849Y-16502460D01*
X11936849Y-16502460D02*
X11946372Y-16483412D01*
X11946372Y-16483412D02*
X11946372Y-16473888D01*
X11946372Y-16473888D02*
X11936849Y-16454841D01*
X11936849Y-16454841D02*
X11917801Y-16445317D01*
X11917801Y-16445317D02*
X11889230Y-16445317D01*
X11889230Y-16445317D02*
X11870182Y-16435793D01*
X11870182Y-16435793D02*
X11860658Y-16416746D01*
X11860658Y-16416746D02*
X11860658Y-16407222D01*
X11860658Y-16407222D02*
X11870182Y-16388174D01*
X11870182Y-16388174D02*
X11889230Y-16378650D01*
X11889230Y-16378650D02*
X11917801Y-16378650D01*
X11917801Y-16378650D02*
X11936849Y-16388174D01*
X12013039Y-16588174D02*
X12022563Y-16578650D01*
X12022563Y-16578650D02*
X12041611Y-16550079D01*
X12041611Y-16550079D02*
X12051134Y-16531031D01*
X12051134Y-16531031D02*
X12060658Y-16502460D01*
X12060658Y-16502460D02*
X12070182Y-16454841D01*
X12070182Y-16454841D02*
X12070182Y-16416746D01*
X12070182Y-16416746D02*
X12060658Y-16369127D01*
X12060658Y-16369127D02*
X12051134Y-16340555D01*
X12051134Y-16340555D02*
X12041611Y-16321508D01*
X12041611Y-16321508D02*
X12022563Y-16292936D01*
X12022563Y-16292936D02*
X12013039Y-16283412D01*
D14*
X7029927Y-16726927D02*
X7029927Y-16642073D01*
X6945073Y-16642073D01*
X6945073Y-16726927D01*
X7029927Y-16726927D01*
D12*
X7413039Y-16775984D02*
X7298753Y-16775984D01*
X7355896Y-16775984D02*
X7355896Y-16575984D01*
X7355896Y-16575984D02*
X7336848Y-16604555D01*
X7336848Y-16604555D02*
X7317801Y-16623603D01*
X7317801Y-16623603D02*
X7298753Y-16633127D01*
X7498753Y-16756936D02*
X7508277Y-16766460D01*
X7508277Y-16766460D02*
X7498753Y-16775984D01*
X7498753Y-16775984D02*
X7489229Y-16766460D01*
X7489229Y-16766460D02*
X7498753Y-16756936D01*
X7498753Y-16756936D02*
X7498753Y-16775984D01*
X7584467Y-16595031D02*
X7593991Y-16585508D01*
X7593991Y-16585508D02*
X7613039Y-16575984D01*
X7613039Y-16575984D02*
X7660658Y-16575984D01*
X7660658Y-16575984D02*
X7679705Y-16585508D01*
X7679705Y-16585508D02*
X7689229Y-16595031D01*
X7689229Y-16595031D02*
X7698753Y-16614079D01*
X7698753Y-16614079D02*
X7698753Y-16633127D01*
X7698753Y-16633127D02*
X7689229Y-16661698D01*
X7689229Y-16661698D02*
X7574943Y-16775984D01*
X7574943Y-16775984D02*
X7698753Y-16775984D01*
X7822562Y-16575984D02*
X7841610Y-16575984D01*
X7841610Y-16575984D02*
X7860658Y-16585508D01*
X7860658Y-16585508D02*
X7870182Y-16595031D01*
X7870182Y-16595031D02*
X7879705Y-16614079D01*
X7879705Y-16614079D02*
X7889229Y-16652174D01*
X7889229Y-16652174D02*
X7889229Y-16699793D01*
X7889229Y-16699793D02*
X7879705Y-16737888D01*
X7879705Y-16737888D02*
X7870182Y-16756936D01*
X7870182Y-16756936D02*
X7860658Y-16766460D01*
X7860658Y-16766460D02*
X7841610Y-16775984D01*
X7841610Y-16775984D02*
X7822562Y-16775984D01*
X7822562Y-16775984D02*
X7803515Y-16766460D01*
X7803515Y-16766460D02*
X7793991Y-16756936D01*
X7793991Y-16756936D02*
X7784467Y-16737888D01*
X7784467Y-16737888D02*
X7774943Y-16699793D01*
X7774943Y-16699793D02*
X7774943Y-16652174D01*
X7774943Y-16652174D02*
X7784467Y-16614079D01*
X7784467Y-16614079D02*
X7793991Y-16595031D01*
X7793991Y-16595031D02*
X7803515Y-16585508D01*
X7803515Y-16585508D02*
X7822562Y-16575984D01*
X8013039Y-16575984D02*
X8032086Y-16575984D01*
X8032086Y-16575984D02*
X8051134Y-16585508D01*
X8051134Y-16585508D02*
X8060658Y-16595031D01*
X8060658Y-16595031D02*
X8070182Y-16614079D01*
X8070182Y-16614079D02*
X8079705Y-16652174D01*
X8079705Y-16652174D02*
X8079705Y-16699793D01*
X8079705Y-16699793D02*
X8070182Y-16737888D01*
X8070182Y-16737888D02*
X8060658Y-16756936D01*
X8060658Y-16756936D02*
X8051134Y-16766460D01*
X8051134Y-16766460D02*
X8032086Y-16775984D01*
X8032086Y-16775984D02*
X8013039Y-16775984D01*
X8013039Y-16775984D02*
X7993991Y-16766460D01*
X7993991Y-16766460D02*
X7984467Y-16756936D01*
X7984467Y-16756936D02*
X7974943Y-16737888D01*
X7974943Y-16737888D02*
X7965420Y-16699793D01*
X7965420Y-16699793D02*
X7965420Y-16652174D01*
X7965420Y-16652174D02*
X7974943Y-16614079D01*
X7974943Y-16614079D02*
X7984467Y-16595031D01*
X7984467Y-16595031D02*
X7993991Y-16585508D01*
X7993991Y-16585508D02*
X8013039Y-16575984D01*
X8165420Y-16775984D02*
X8165420Y-16642650D01*
X8165420Y-16661698D02*
X8174943Y-16652174D01*
X8174943Y-16652174D02*
X8193991Y-16642650D01*
X8193991Y-16642650D02*
X8222563Y-16642650D01*
X8222563Y-16642650D02*
X8241610Y-16652174D01*
X8241610Y-16652174D02*
X8251134Y-16671222D01*
X8251134Y-16671222D02*
X8251134Y-16775984D01*
X8251134Y-16671222D02*
X8260658Y-16652174D01*
X8260658Y-16652174D02*
X8279705Y-16642650D01*
X8279705Y-16642650D02*
X8308277Y-16642650D01*
X8308277Y-16642650D02*
X8327324Y-16652174D01*
X8327324Y-16652174D02*
X8336848Y-16671222D01*
X8336848Y-16671222D02*
X8336848Y-16775984D01*
X8432086Y-16775984D02*
X8432086Y-16642650D01*
X8432086Y-16661698D02*
X8441610Y-16652174D01*
X8441610Y-16652174D02*
X8460658Y-16642650D01*
X8460658Y-16642650D02*
X8489229Y-16642650D01*
X8489229Y-16642650D02*
X8508277Y-16652174D01*
X8508277Y-16652174D02*
X8517801Y-16671222D01*
X8517801Y-16671222D02*
X8517801Y-16775984D01*
X8517801Y-16671222D02*
X8527325Y-16652174D01*
X8527325Y-16652174D02*
X8546372Y-16642650D01*
X8546372Y-16642650D02*
X8574944Y-16642650D01*
X8574944Y-16642650D02*
X8593991Y-16652174D01*
X8593991Y-16652174D02*
X8603515Y-16671222D01*
X8603515Y-16671222D02*
X8603515Y-16775984D01*
X8993991Y-16566460D02*
X8822563Y-16823603D01*
X9251134Y-16575984D02*
X9270182Y-16575984D01*
X9270182Y-16575984D02*
X9289229Y-16585508D01*
X9289229Y-16585508D02*
X9298753Y-16595031D01*
X9298753Y-16595031D02*
X9308277Y-16614079D01*
X9308277Y-16614079D02*
X9317801Y-16652174D01*
X9317801Y-16652174D02*
X9317801Y-16699793D01*
X9317801Y-16699793D02*
X9308277Y-16737888D01*
X9308277Y-16737888D02*
X9298753Y-16756936D01*
X9298753Y-16756936D02*
X9289229Y-16766460D01*
X9289229Y-16766460D02*
X9270182Y-16775984D01*
X9270182Y-16775984D02*
X9251134Y-16775984D01*
X9251134Y-16775984D02*
X9232087Y-16766460D01*
X9232087Y-16766460D02*
X9222563Y-16756936D01*
X9222563Y-16756936D02*
X9213039Y-16737888D01*
X9213039Y-16737888D02*
X9203515Y-16699793D01*
X9203515Y-16699793D02*
X9203515Y-16652174D01*
X9203515Y-16652174D02*
X9213039Y-16614079D01*
X9213039Y-16614079D02*
X9222563Y-16595031D01*
X9222563Y-16595031D02*
X9232087Y-16585508D01*
X9232087Y-16585508D02*
X9251134Y-16575984D01*
X9403515Y-16756936D02*
X9413039Y-16766460D01*
X9413039Y-16766460D02*
X9403515Y-16775984D01*
X9403515Y-16775984D02*
X9393991Y-16766460D01*
X9393991Y-16766460D02*
X9403515Y-16756936D01*
X9403515Y-16756936D02*
X9403515Y-16775984D01*
X9536848Y-16575984D02*
X9555896Y-16575984D01*
X9555896Y-16575984D02*
X9574944Y-16585508D01*
X9574944Y-16585508D02*
X9584468Y-16595031D01*
X9584468Y-16595031D02*
X9593991Y-16614079D01*
X9593991Y-16614079D02*
X9603515Y-16652174D01*
X9603515Y-16652174D02*
X9603515Y-16699793D01*
X9603515Y-16699793D02*
X9593991Y-16737888D01*
X9593991Y-16737888D02*
X9584468Y-16756936D01*
X9584468Y-16756936D02*
X9574944Y-16766460D01*
X9574944Y-16766460D02*
X9555896Y-16775984D01*
X9555896Y-16775984D02*
X9536848Y-16775984D01*
X9536848Y-16775984D02*
X9517801Y-16766460D01*
X9517801Y-16766460D02*
X9508277Y-16756936D01*
X9508277Y-16756936D02*
X9498753Y-16737888D01*
X9498753Y-16737888D02*
X9489229Y-16699793D01*
X9489229Y-16699793D02*
X9489229Y-16652174D01*
X9489229Y-16652174D02*
X9498753Y-16614079D01*
X9498753Y-16614079D02*
X9508277Y-16595031D01*
X9508277Y-16595031D02*
X9517801Y-16585508D01*
X9517801Y-16585508D02*
X9536848Y-16575984D01*
X9774944Y-16642650D02*
X9774944Y-16775984D01*
X9727325Y-16566460D02*
X9679706Y-16709317D01*
X9679706Y-16709317D02*
X9803515Y-16709317D01*
X9860658Y-16575984D02*
X9993991Y-16575984D01*
X9993991Y-16575984D02*
X9908277Y-16775984D01*
X10060658Y-16595031D02*
X10070182Y-16585508D01*
X10070182Y-16585508D02*
X10089229Y-16575984D01*
X10089229Y-16575984D02*
X10136849Y-16575984D01*
X10136849Y-16575984D02*
X10155896Y-16585508D01*
X10155896Y-16585508D02*
X10165420Y-16595031D01*
X10165420Y-16595031D02*
X10174944Y-16614079D01*
X10174944Y-16614079D02*
X10174944Y-16633127D01*
X10174944Y-16633127D02*
X10165420Y-16661698D01*
X10165420Y-16661698D02*
X10051134Y-16775984D01*
X10051134Y-16775984D02*
X10174944Y-16775984D01*
X10251134Y-16575984D02*
X10251134Y-16614079D01*
X10327325Y-16575984D02*
X10327325Y-16614079D01*
X10622563Y-16852174D02*
X10613039Y-16842650D01*
X10613039Y-16842650D02*
X10593991Y-16814079D01*
X10593991Y-16814079D02*
X10584468Y-16795031D01*
X10584468Y-16795031D02*
X10574944Y-16766460D01*
X10574944Y-16766460D02*
X10565420Y-16718841D01*
X10565420Y-16718841D02*
X10565420Y-16680746D01*
X10565420Y-16680746D02*
X10574944Y-16633127D01*
X10574944Y-16633127D02*
X10584468Y-16604555D01*
X10584468Y-16604555D02*
X10593991Y-16585508D01*
X10593991Y-16585508D02*
X10613039Y-16556936D01*
X10613039Y-16556936D02*
X10622563Y-16547412D01*
X10689230Y-16595031D02*
X10698753Y-16585508D01*
X10698753Y-16585508D02*
X10717801Y-16575984D01*
X10717801Y-16575984D02*
X10765420Y-16575984D01*
X10765420Y-16575984D02*
X10784468Y-16585508D01*
X10784468Y-16585508D02*
X10793991Y-16595031D01*
X10793991Y-16595031D02*
X10803515Y-16614079D01*
X10803515Y-16614079D02*
X10803515Y-16633127D01*
X10803515Y-16633127D02*
X10793991Y-16661698D01*
X10793991Y-16661698D02*
X10679706Y-16775984D01*
X10679706Y-16775984D02*
X10803515Y-16775984D01*
X11041611Y-16775984D02*
X11041611Y-16575984D01*
X11127325Y-16775984D02*
X11127325Y-16671222D01*
X11127325Y-16671222D02*
X11117801Y-16652174D01*
X11117801Y-16652174D02*
X11098753Y-16642650D01*
X11098753Y-16642650D02*
X11070182Y-16642650D01*
X11070182Y-16642650D02*
X11051134Y-16652174D01*
X11051134Y-16652174D02*
X11041611Y-16661698D01*
X11251134Y-16775984D02*
X11232087Y-16766460D01*
X11232087Y-16766460D02*
X11222563Y-16756936D01*
X11222563Y-16756936D02*
X11213039Y-16737888D01*
X11213039Y-16737888D02*
X11213039Y-16680746D01*
X11213039Y-16680746D02*
X11222563Y-16661698D01*
X11222563Y-16661698D02*
X11232087Y-16652174D01*
X11232087Y-16652174D02*
X11251134Y-16642650D01*
X11251134Y-16642650D02*
X11279706Y-16642650D01*
X11279706Y-16642650D02*
X11298753Y-16652174D01*
X11298753Y-16652174D02*
X11308277Y-16661698D01*
X11308277Y-16661698D02*
X11317801Y-16680746D01*
X11317801Y-16680746D02*
X11317801Y-16737888D01*
X11317801Y-16737888D02*
X11308277Y-16756936D01*
X11308277Y-16756936D02*
X11298753Y-16766460D01*
X11298753Y-16766460D02*
X11279706Y-16775984D01*
X11279706Y-16775984D02*
X11251134Y-16775984D01*
X11432087Y-16775984D02*
X11413039Y-16766460D01*
X11413039Y-16766460D02*
X11403515Y-16747412D01*
X11403515Y-16747412D02*
X11403515Y-16575984D01*
X11584468Y-16766460D02*
X11565420Y-16775984D01*
X11565420Y-16775984D02*
X11527325Y-16775984D01*
X11527325Y-16775984D02*
X11508277Y-16766460D01*
X11508277Y-16766460D02*
X11498753Y-16747412D01*
X11498753Y-16747412D02*
X11498753Y-16671222D01*
X11498753Y-16671222D02*
X11508277Y-16652174D01*
X11508277Y-16652174D02*
X11527325Y-16642650D01*
X11527325Y-16642650D02*
X11565420Y-16642650D01*
X11565420Y-16642650D02*
X11584468Y-16652174D01*
X11584468Y-16652174D02*
X11593991Y-16671222D01*
X11593991Y-16671222D02*
X11593991Y-16690269D01*
X11593991Y-16690269D02*
X11498753Y-16709317D01*
X11670182Y-16766460D02*
X11689230Y-16775984D01*
X11689230Y-16775984D02*
X11727325Y-16775984D01*
X11727325Y-16775984D02*
X11746372Y-16766460D01*
X11746372Y-16766460D02*
X11755896Y-16747412D01*
X11755896Y-16747412D02*
X11755896Y-16737888D01*
X11755896Y-16737888D02*
X11746372Y-16718841D01*
X11746372Y-16718841D02*
X11727325Y-16709317D01*
X11727325Y-16709317D02*
X11698753Y-16709317D01*
X11698753Y-16709317D02*
X11679706Y-16699793D01*
X11679706Y-16699793D02*
X11670182Y-16680746D01*
X11670182Y-16680746D02*
X11670182Y-16671222D01*
X11670182Y-16671222D02*
X11679706Y-16652174D01*
X11679706Y-16652174D02*
X11698753Y-16642650D01*
X11698753Y-16642650D02*
X11727325Y-16642650D01*
X11727325Y-16642650D02*
X11746372Y-16652174D01*
X11822563Y-16852174D02*
X11832087Y-16842650D01*
X11832087Y-16842650D02*
X11851134Y-16814079D01*
X11851134Y-16814079D02*
X11860658Y-16795031D01*
X11860658Y-16795031D02*
X11870182Y-16766460D01*
X11870182Y-16766460D02*
X11879706Y-16718841D01*
X11879706Y-16718841D02*
X11879706Y-16680746D01*
X11879706Y-16680746D02*
X11870182Y-16633127D01*
X11870182Y-16633127D02*
X11860658Y-16604555D01*
X11860658Y-16604555D02*
X11851134Y-16585508D01*
X11851134Y-16585508D02*
X11832087Y-16556936D01*
X11832087Y-16556936D02*
X11822563Y-16547412D01*
D15*
X6972500Y-17023500D02*
X7047500Y-16948500D01*
X6972500Y-16873500D01*
X6897500Y-16948500D01*
X6972500Y-17023500D01*
D12*
X7413039Y-17039984D02*
X7298753Y-17039984D01*
X7355896Y-17039984D02*
X7355896Y-16839984D01*
X7355896Y-16839984D02*
X7336848Y-16868555D01*
X7336848Y-16868555D02*
X7317801Y-16887603D01*
X7317801Y-16887603D02*
X7298753Y-16897127D01*
X7498753Y-17020936D02*
X7508277Y-17030460D01*
X7508277Y-17030460D02*
X7498753Y-17039984D01*
X7498753Y-17039984D02*
X7489229Y-17030460D01*
X7489229Y-17030460D02*
X7498753Y-17020936D01*
X7498753Y-17020936D02*
X7498753Y-17039984D01*
X7689229Y-16839984D02*
X7593991Y-16839984D01*
X7593991Y-16839984D02*
X7584467Y-16935222D01*
X7584467Y-16935222D02*
X7593991Y-16925698D01*
X7593991Y-16925698D02*
X7613039Y-16916174D01*
X7613039Y-16916174D02*
X7660658Y-16916174D01*
X7660658Y-16916174D02*
X7679705Y-16925698D01*
X7679705Y-16925698D02*
X7689229Y-16935222D01*
X7689229Y-16935222D02*
X7698753Y-16954270D01*
X7698753Y-16954270D02*
X7698753Y-17001889D01*
X7698753Y-17001889D02*
X7689229Y-17020936D01*
X7689229Y-17020936D02*
X7679705Y-17030460D01*
X7679705Y-17030460D02*
X7660658Y-17039984D01*
X7660658Y-17039984D02*
X7613039Y-17039984D01*
X7613039Y-17039984D02*
X7593991Y-17030460D01*
X7593991Y-17030460D02*
X7584467Y-17020936D01*
X7822562Y-16839984D02*
X7841610Y-16839984D01*
X7841610Y-16839984D02*
X7860658Y-16849508D01*
X7860658Y-16849508D02*
X7870182Y-16859031D01*
X7870182Y-16859031D02*
X7879705Y-16878079D01*
X7879705Y-16878079D02*
X7889229Y-16916174D01*
X7889229Y-16916174D02*
X7889229Y-16963793D01*
X7889229Y-16963793D02*
X7879705Y-17001889D01*
X7879705Y-17001889D02*
X7870182Y-17020936D01*
X7870182Y-17020936D02*
X7860658Y-17030460D01*
X7860658Y-17030460D02*
X7841610Y-17039984D01*
X7841610Y-17039984D02*
X7822562Y-17039984D01*
X7822562Y-17039984D02*
X7803515Y-17030460D01*
X7803515Y-17030460D02*
X7793991Y-17020936D01*
X7793991Y-17020936D02*
X7784467Y-17001889D01*
X7784467Y-17001889D02*
X7774943Y-16963793D01*
X7774943Y-16963793D02*
X7774943Y-16916174D01*
X7774943Y-16916174D02*
X7784467Y-16878079D01*
X7784467Y-16878079D02*
X7793991Y-16859031D01*
X7793991Y-16859031D02*
X7803515Y-16849508D01*
X7803515Y-16849508D02*
X7822562Y-16839984D01*
X8013039Y-16839984D02*
X8032086Y-16839984D01*
X8032086Y-16839984D02*
X8051134Y-16849508D01*
X8051134Y-16849508D02*
X8060658Y-16859031D01*
X8060658Y-16859031D02*
X8070182Y-16878079D01*
X8070182Y-16878079D02*
X8079705Y-16916174D01*
X8079705Y-16916174D02*
X8079705Y-16963793D01*
X8079705Y-16963793D02*
X8070182Y-17001889D01*
X8070182Y-17001889D02*
X8060658Y-17020936D01*
X8060658Y-17020936D02*
X8051134Y-17030460D01*
X8051134Y-17030460D02*
X8032086Y-17039984D01*
X8032086Y-17039984D02*
X8013039Y-17039984D01*
X8013039Y-17039984D02*
X7993991Y-17030460D01*
X7993991Y-17030460D02*
X7984467Y-17020936D01*
X7984467Y-17020936D02*
X7974943Y-17001889D01*
X7974943Y-17001889D02*
X7965420Y-16963793D01*
X7965420Y-16963793D02*
X7965420Y-16916174D01*
X7965420Y-16916174D02*
X7974943Y-16878079D01*
X7974943Y-16878079D02*
X7984467Y-16859031D01*
X7984467Y-16859031D02*
X7993991Y-16849508D01*
X7993991Y-16849508D02*
X8013039Y-16839984D01*
X8165420Y-17039984D02*
X8165420Y-16906650D01*
X8165420Y-16925698D02*
X8174943Y-16916174D01*
X8174943Y-16916174D02*
X8193991Y-16906650D01*
X8193991Y-16906650D02*
X8222563Y-16906650D01*
X8222563Y-16906650D02*
X8241610Y-16916174D01*
X8241610Y-16916174D02*
X8251134Y-16935222D01*
X8251134Y-16935222D02*
X8251134Y-17039984D01*
X8251134Y-16935222D02*
X8260658Y-16916174D01*
X8260658Y-16916174D02*
X8279705Y-16906650D01*
X8279705Y-16906650D02*
X8308277Y-16906650D01*
X8308277Y-16906650D02*
X8327324Y-16916174D01*
X8327324Y-16916174D02*
X8336848Y-16935222D01*
X8336848Y-16935222D02*
X8336848Y-17039984D01*
X8432086Y-17039984D02*
X8432086Y-16906650D01*
X8432086Y-16925698D02*
X8441610Y-16916174D01*
X8441610Y-16916174D02*
X8460658Y-16906650D01*
X8460658Y-16906650D02*
X8489229Y-16906650D01*
X8489229Y-16906650D02*
X8508277Y-16916174D01*
X8508277Y-16916174D02*
X8517801Y-16935222D01*
X8517801Y-16935222D02*
X8517801Y-17039984D01*
X8517801Y-16935222D02*
X8527325Y-16916174D01*
X8527325Y-16916174D02*
X8546372Y-16906650D01*
X8546372Y-16906650D02*
X8574944Y-16906650D01*
X8574944Y-16906650D02*
X8593991Y-16916174D01*
X8593991Y-16916174D02*
X8603515Y-16935222D01*
X8603515Y-16935222D02*
X8603515Y-17039984D01*
X8993991Y-16830460D02*
X8822563Y-17087603D01*
X9251134Y-16839984D02*
X9270182Y-16839984D01*
X9270182Y-16839984D02*
X9289229Y-16849508D01*
X9289229Y-16849508D02*
X9298753Y-16859031D01*
X9298753Y-16859031D02*
X9308277Y-16878079D01*
X9308277Y-16878079D02*
X9317801Y-16916174D01*
X9317801Y-16916174D02*
X9317801Y-16963793D01*
X9317801Y-16963793D02*
X9308277Y-17001889D01*
X9308277Y-17001889D02*
X9298753Y-17020936D01*
X9298753Y-17020936D02*
X9289229Y-17030460D01*
X9289229Y-17030460D02*
X9270182Y-17039984D01*
X9270182Y-17039984D02*
X9251134Y-17039984D01*
X9251134Y-17039984D02*
X9232087Y-17030460D01*
X9232087Y-17030460D02*
X9222563Y-17020936D01*
X9222563Y-17020936D02*
X9213039Y-17001889D01*
X9213039Y-17001889D02*
X9203515Y-16963793D01*
X9203515Y-16963793D02*
X9203515Y-16916174D01*
X9203515Y-16916174D02*
X9213039Y-16878079D01*
X9213039Y-16878079D02*
X9222563Y-16859031D01*
X9222563Y-16859031D02*
X9232087Y-16849508D01*
X9232087Y-16849508D02*
X9251134Y-16839984D01*
X9403515Y-17020936D02*
X9413039Y-17030460D01*
X9413039Y-17030460D02*
X9403515Y-17039984D01*
X9403515Y-17039984D02*
X9393991Y-17030460D01*
X9393991Y-17030460D02*
X9403515Y-17020936D01*
X9403515Y-17020936D02*
X9403515Y-17039984D01*
X9536848Y-16839984D02*
X9555896Y-16839984D01*
X9555896Y-16839984D02*
X9574944Y-16849508D01*
X9574944Y-16849508D02*
X9584468Y-16859031D01*
X9584468Y-16859031D02*
X9593991Y-16878079D01*
X9593991Y-16878079D02*
X9603515Y-16916174D01*
X9603515Y-16916174D02*
X9603515Y-16963793D01*
X9603515Y-16963793D02*
X9593991Y-17001889D01*
X9593991Y-17001889D02*
X9584468Y-17020936D01*
X9584468Y-17020936D02*
X9574944Y-17030460D01*
X9574944Y-17030460D02*
X9555896Y-17039984D01*
X9555896Y-17039984D02*
X9536848Y-17039984D01*
X9536848Y-17039984D02*
X9517801Y-17030460D01*
X9517801Y-17030460D02*
X9508277Y-17020936D01*
X9508277Y-17020936D02*
X9498753Y-17001889D01*
X9498753Y-17001889D02*
X9489229Y-16963793D01*
X9489229Y-16963793D02*
X9489229Y-16916174D01*
X9489229Y-16916174D02*
X9498753Y-16878079D01*
X9498753Y-16878079D02*
X9508277Y-16859031D01*
X9508277Y-16859031D02*
X9517801Y-16849508D01*
X9517801Y-16849508D02*
X9536848Y-16839984D01*
X9784468Y-16839984D02*
X9689229Y-16839984D01*
X9689229Y-16839984D02*
X9679706Y-16935222D01*
X9679706Y-16935222D02*
X9689229Y-16925698D01*
X9689229Y-16925698D02*
X9708277Y-16916174D01*
X9708277Y-16916174D02*
X9755896Y-16916174D01*
X9755896Y-16916174D02*
X9774944Y-16925698D01*
X9774944Y-16925698D02*
X9784468Y-16935222D01*
X9784468Y-16935222D02*
X9793991Y-16954270D01*
X9793991Y-16954270D02*
X9793991Y-17001889D01*
X9793991Y-17001889D02*
X9784468Y-17020936D01*
X9784468Y-17020936D02*
X9774944Y-17030460D01*
X9774944Y-17030460D02*
X9755896Y-17039984D01*
X9755896Y-17039984D02*
X9708277Y-17039984D01*
X9708277Y-17039984D02*
X9689229Y-17030460D01*
X9689229Y-17030460D02*
X9679706Y-17020936D01*
X9889229Y-17039984D02*
X9927325Y-17039984D01*
X9927325Y-17039984D02*
X9946372Y-17030460D01*
X9946372Y-17030460D02*
X9955896Y-17020936D01*
X9955896Y-17020936D02*
X9974944Y-16992365D01*
X9974944Y-16992365D02*
X9984468Y-16954270D01*
X9984468Y-16954270D02*
X9984468Y-16878079D01*
X9984468Y-16878079D02*
X9974944Y-16859031D01*
X9974944Y-16859031D02*
X9965420Y-16849508D01*
X9965420Y-16849508D02*
X9946372Y-16839984D01*
X9946372Y-16839984D02*
X9908277Y-16839984D01*
X9908277Y-16839984D02*
X9889229Y-16849508D01*
X9889229Y-16849508D02*
X9879706Y-16859031D01*
X9879706Y-16859031D02*
X9870182Y-16878079D01*
X9870182Y-16878079D02*
X9870182Y-16925698D01*
X9870182Y-16925698D02*
X9879706Y-16944746D01*
X9879706Y-16944746D02*
X9889229Y-16954270D01*
X9889229Y-16954270D02*
X9908277Y-16963793D01*
X9908277Y-16963793D02*
X9946372Y-16963793D01*
X9946372Y-16963793D02*
X9965420Y-16954270D01*
X9965420Y-16954270D02*
X9974944Y-16944746D01*
X9974944Y-16944746D02*
X9984468Y-16925698D01*
X10174944Y-17039984D02*
X10060658Y-17039984D01*
X10117801Y-17039984D02*
X10117801Y-16839984D01*
X10117801Y-16839984D02*
X10098753Y-16868555D01*
X10098753Y-16868555D02*
X10079706Y-16887603D01*
X10079706Y-16887603D02*
X10060658Y-16897127D01*
X10251134Y-16839984D02*
X10251134Y-16878079D01*
X10327325Y-16839984D02*
X10327325Y-16878079D01*
X10622563Y-17116174D02*
X10613039Y-17106650D01*
X10613039Y-17106650D02*
X10593991Y-17078079D01*
X10593991Y-17078079D02*
X10584468Y-17059031D01*
X10584468Y-17059031D02*
X10574944Y-17030460D01*
X10574944Y-17030460D02*
X10565420Y-16982841D01*
X10565420Y-16982841D02*
X10565420Y-16944746D01*
X10565420Y-16944746D02*
X10574944Y-16897127D01*
X10574944Y-16897127D02*
X10584468Y-16868555D01*
X10584468Y-16868555D02*
X10593991Y-16849508D01*
X10593991Y-16849508D02*
X10613039Y-16820936D01*
X10613039Y-16820936D02*
X10622563Y-16811412D01*
X10784468Y-16906650D02*
X10784468Y-17039984D01*
X10736849Y-16830460D02*
X10689230Y-16973317D01*
X10689230Y-16973317D02*
X10813039Y-16973317D01*
X11041611Y-17039984D02*
X11041611Y-16839984D01*
X11127325Y-17039984D02*
X11127325Y-16935222D01*
X11127325Y-16935222D02*
X11117801Y-16916174D01*
X11117801Y-16916174D02*
X11098753Y-16906650D01*
X11098753Y-16906650D02*
X11070182Y-16906650D01*
X11070182Y-16906650D02*
X11051134Y-16916174D01*
X11051134Y-16916174D02*
X11041611Y-16925698D01*
X11251134Y-17039984D02*
X11232087Y-17030460D01*
X11232087Y-17030460D02*
X11222563Y-17020936D01*
X11222563Y-17020936D02*
X11213039Y-17001889D01*
X11213039Y-17001889D02*
X11213039Y-16944746D01*
X11213039Y-16944746D02*
X11222563Y-16925698D01*
X11222563Y-16925698D02*
X11232087Y-16916174D01*
X11232087Y-16916174D02*
X11251134Y-16906650D01*
X11251134Y-16906650D02*
X11279706Y-16906650D01*
X11279706Y-16906650D02*
X11298753Y-16916174D01*
X11298753Y-16916174D02*
X11308277Y-16925698D01*
X11308277Y-16925698D02*
X11317801Y-16944746D01*
X11317801Y-16944746D02*
X11317801Y-17001889D01*
X11317801Y-17001889D02*
X11308277Y-17020936D01*
X11308277Y-17020936D02*
X11298753Y-17030460D01*
X11298753Y-17030460D02*
X11279706Y-17039984D01*
X11279706Y-17039984D02*
X11251134Y-17039984D01*
X11432087Y-17039984D02*
X11413039Y-17030460D01*
X11413039Y-17030460D02*
X11403515Y-17011412D01*
X11403515Y-17011412D02*
X11403515Y-16839984D01*
X11584468Y-17030460D02*
X11565420Y-17039984D01*
X11565420Y-17039984D02*
X11527325Y-17039984D01*
X11527325Y-17039984D02*
X11508277Y-17030460D01*
X11508277Y-17030460D02*
X11498753Y-17011412D01*
X11498753Y-17011412D02*
X11498753Y-16935222D01*
X11498753Y-16935222D02*
X11508277Y-16916174D01*
X11508277Y-16916174D02*
X11527325Y-16906650D01*
X11527325Y-16906650D02*
X11565420Y-16906650D01*
X11565420Y-16906650D02*
X11584468Y-16916174D01*
X11584468Y-16916174D02*
X11593991Y-16935222D01*
X11593991Y-16935222D02*
X11593991Y-16954270D01*
X11593991Y-16954270D02*
X11498753Y-16973317D01*
X11670182Y-17030460D02*
X11689230Y-17039984D01*
X11689230Y-17039984D02*
X11727325Y-17039984D01*
X11727325Y-17039984D02*
X11746372Y-17030460D01*
X11746372Y-17030460D02*
X11755896Y-17011412D01*
X11755896Y-17011412D02*
X11755896Y-17001889D01*
X11755896Y-17001889D02*
X11746372Y-16982841D01*
X11746372Y-16982841D02*
X11727325Y-16973317D01*
X11727325Y-16973317D02*
X11698753Y-16973317D01*
X11698753Y-16973317D02*
X11679706Y-16963793D01*
X11679706Y-16963793D02*
X11670182Y-16944746D01*
X11670182Y-16944746D02*
X11670182Y-16935222D01*
X11670182Y-16935222D02*
X11679706Y-16916174D01*
X11679706Y-16916174D02*
X11698753Y-16906650D01*
X11698753Y-16906650D02*
X11727325Y-16906650D01*
X11727325Y-16906650D02*
X11746372Y-16916174D01*
X11822563Y-17116174D02*
X11832087Y-17106650D01*
X11832087Y-17106650D02*
X11851134Y-17078079D01*
X11851134Y-17078079D02*
X11860658Y-17059031D01*
X11860658Y-17059031D02*
X11870182Y-17030460D01*
X11870182Y-17030460D02*
X11879706Y-16982841D01*
X11879706Y-16982841D02*
X11879706Y-16944746D01*
X11879706Y-16944746D02*
X11870182Y-16897127D01*
X11870182Y-16897127D02*
X11860658Y-16868555D01*
X11860658Y-16868555D02*
X11851134Y-16849508D01*
X11851134Y-16849508D02*
X11832087Y-16820936D01*
X11832087Y-16820936D02*
X11822563Y-16811412D01*
D16*
X6877500Y-17133500D02*
X7047500Y-17303500D01*
X7047500Y-17133500D02*
X6877500Y-17303500D01*
X7047500Y-17218500D02*
G75*
G02*
X6877500Y-17218500I-85000J0D01*
G01*
X6877500Y-17218500D02*
G75*
G02*
X7047500Y-17218500I85000J0D01*
G01*
D12*
X7413039Y-17309984D02*
X7298753Y-17309984D01*
X7355896Y-17309984D02*
X7355896Y-17109984D01*
X7355896Y-17109984D02*
X7336848Y-17138555D01*
X7336848Y-17138555D02*
X7317801Y-17157603D01*
X7317801Y-17157603D02*
X7298753Y-17167127D01*
X7498753Y-17290936D02*
X7508277Y-17300460D01*
X7508277Y-17300460D02*
X7498753Y-17309984D01*
X7498753Y-17309984D02*
X7489229Y-17300460D01*
X7489229Y-17300460D02*
X7498753Y-17290936D01*
X7498753Y-17290936D02*
X7498753Y-17309984D01*
X7574943Y-17109984D02*
X7708277Y-17109984D01*
X7708277Y-17109984D02*
X7622562Y-17309984D01*
X7822562Y-17109984D02*
X7841610Y-17109984D01*
X7841610Y-17109984D02*
X7860658Y-17119508D01*
X7860658Y-17119508D02*
X7870182Y-17129031D01*
X7870182Y-17129031D02*
X7879705Y-17148079D01*
X7879705Y-17148079D02*
X7889229Y-17186174D01*
X7889229Y-17186174D02*
X7889229Y-17233793D01*
X7889229Y-17233793D02*
X7879705Y-17271889D01*
X7879705Y-17271889D02*
X7870182Y-17290936D01*
X7870182Y-17290936D02*
X7860658Y-17300460D01*
X7860658Y-17300460D02*
X7841610Y-17309984D01*
X7841610Y-17309984D02*
X7822562Y-17309984D01*
X7822562Y-17309984D02*
X7803515Y-17300460D01*
X7803515Y-17300460D02*
X7793991Y-17290936D01*
X7793991Y-17290936D02*
X7784467Y-17271889D01*
X7784467Y-17271889D02*
X7774943Y-17233793D01*
X7774943Y-17233793D02*
X7774943Y-17186174D01*
X7774943Y-17186174D02*
X7784467Y-17148079D01*
X7784467Y-17148079D02*
X7793991Y-17129031D01*
X7793991Y-17129031D02*
X7803515Y-17119508D01*
X7803515Y-17119508D02*
X7822562Y-17109984D01*
X8013039Y-17109984D02*
X8032086Y-17109984D01*
X8032086Y-17109984D02*
X8051134Y-17119508D01*
X8051134Y-17119508D02*
X8060658Y-17129031D01*
X8060658Y-17129031D02*
X8070182Y-17148079D01*
X8070182Y-17148079D02*
X8079705Y-17186174D01*
X8079705Y-17186174D02*
X8079705Y-17233793D01*
X8079705Y-17233793D02*
X8070182Y-17271889D01*
X8070182Y-17271889D02*
X8060658Y-17290936D01*
X8060658Y-17290936D02*
X8051134Y-17300460D01*
X8051134Y-17300460D02*
X8032086Y-17309984D01*
X8032086Y-17309984D02*
X8013039Y-17309984D01*
X8013039Y-17309984D02*
X7993991Y-17300460D01*
X7993991Y-17300460D02*
X7984467Y-17290936D01*
X7984467Y-17290936D02*
X7974943Y-17271889D01*
X7974943Y-17271889D02*
X7965420Y-17233793D01*
X7965420Y-17233793D02*
X7965420Y-17186174D01*
X7965420Y-17186174D02*
X7974943Y-17148079D01*
X7974943Y-17148079D02*
X7984467Y-17129031D01*
X7984467Y-17129031D02*
X7993991Y-17119508D01*
X7993991Y-17119508D02*
X8013039Y-17109984D01*
X8165420Y-17309984D02*
X8165420Y-17176650D01*
X8165420Y-17195698D02*
X8174943Y-17186174D01*
X8174943Y-17186174D02*
X8193991Y-17176650D01*
X8193991Y-17176650D02*
X8222563Y-17176650D01*
X8222563Y-17176650D02*
X8241610Y-17186174D01*
X8241610Y-17186174D02*
X8251134Y-17205222D01*
X8251134Y-17205222D02*
X8251134Y-17309984D01*
X8251134Y-17205222D02*
X8260658Y-17186174D01*
X8260658Y-17186174D02*
X8279705Y-17176650D01*
X8279705Y-17176650D02*
X8308277Y-17176650D01*
X8308277Y-17176650D02*
X8327324Y-17186174D01*
X8327324Y-17186174D02*
X8336848Y-17205222D01*
X8336848Y-17205222D02*
X8336848Y-17309984D01*
X8432086Y-17309984D02*
X8432086Y-17176650D01*
X8432086Y-17195698D02*
X8441610Y-17186174D01*
X8441610Y-17186174D02*
X8460658Y-17176650D01*
X8460658Y-17176650D02*
X8489229Y-17176650D01*
X8489229Y-17176650D02*
X8508277Y-17186174D01*
X8508277Y-17186174D02*
X8517801Y-17205222D01*
X8517801Y-17205222D02*
X8517801Y-17309984D01*
X8517801Y-17205222D02*
X8527325Y-17186174D01*
X8527325Y-17186174D02*
X8546372Y-17176650D01*
X8546372Y-17176650D02*
X8574944Y-17176650D01*
X8574944Y-17176650D02*
X8593991Y-17186174D01*
X8593991Y-17186174D02*
X8603515Y-17205222D01*
X8603515Y-17205222D02*
X8603515Y-17309984D01*
X8993991Y-17100460D02*
X8822563Y-17357603D01*
X9251134Y-17109984D02*
X9270182Y-17109984D01*
X9270182Y-17109984D02*
X9289229Y-17119508D01*
X9289229Y-17119508D02*
X9298753Y-17129031D01*
X9298753Y-17129031D02*
X9308277Y-17148079D01*
X9308277Y-17148079D02*
X9317801Y-17186174D01*
X9317801Y-17186174D02*
X9317801Y-17233793D01*
X9317801Y-17233793D02*
X9308277Y-17271889D01*
X9308277Y-17271889D02*
X9298753Y-17290936D01*
X9298753Y-17290936D02*
X9289229Y-17300460D01*
X9289229Y-17300460D02*
X9270182Y-17309984D01*
X9270182Y-17309984D02*
X9251134Y-17309984D01*
X9251134Y-17309984D02*
X9232087Y-17300460D01*
X9232087Y-17300460D02*
X9222563Y-17290936D01*
X9222563Y-17290936D02*
X9213039Y-17271889D01*
X9213039Y-17271889D02*
X9203515Y-17233793D01*
X9203515Y-17233793D02*
X9203515Y-17186174D01*
X9203515Y-17186174D02*
X9213039Y-17148079D01*
X9213039Y-17148079D02*
X9222563Y-17129031D01*
X9222563Y-17129031D02*
X9232087Y-17119508D01*
X9232087Y-17119508D02*
X9251134Y-17109984D01*
X9403515Y-17290936D02*
X9413039Y-17300460D01*
X9413039Y-17300460D02*
X9403515Y-17309984D01*
X9403515Y-17309984D02*
X9393991Y-17300460D01*
X9393991Y-17300460D02*
X9403515Y-17290936D01*
X9403515Y-17290936D02*
X9403515Y-17309984D01*
X9536848Y-17109984D02*
X9555896Y-17109984D01*
X9555896Y-17109984D02*
X9574944Y-17119508D01*
X9574944Y-17119508D02*
X9584468Y-17129031D01*
X9584468Y-17129031D02*
X9593991Y-17148079D01*
X9593991Y-17148079D02*
X9603515Y-17186174D01*
X9603515Y-17186174D02*
X9603515Y-17233793D01*
X9603515Y-17233793D02*
X9593991Y-17271889D01*
X9593991Y-17271889D02*
X9584468Y-17290936D01*
X9584468Y-17290936D02*
X9574944Y-17300460D01*
X9574944Y-17300460D02*
X9555896Y-17309984D01*
X9555896Y-17309984D02*
X9536848Y-17309984D01*
X9536848Y-17309984D02*
X9517801Y-17300460D01*
X9517801Y-17300460D02*
X9508277Y-17290936D01*
X9508277Y-17290936D02*
X9498753Y-17271889D01*
X9498753Y-17271889D02*
X9489229Y-17233793D01*
X9489229Y-17233793D02*
X9489229Y-17186174D01*
X9489229Y-17186174D02*
X9498753Y-17148079D01*
X9498753Y-17148079D02*
X9508277Y-17129031D01*
X9508277Y-17129031D02*
X9517801Y-17119508D01*
X9517801Y-17119508D02*
X9536848Y-17109984D01*
X9774944Y-17109984D02*
X9736848Y-17109984D01*
X9736848Y-17109984D02*
X9717801Y-17119508D01*
X9717801Y-17119508D02*
X9708277Y-17129031D01*
X9708277Y-17129031D02*
X9689229Y-17157603D01*
X9689229Y-17157603D02*
X9679706Y-17195698D01*
X9679706Y-17195698D02*
X9679706Y-17271889D01*
X9679706Y-17271889D02*
X9689229Y-17290936D01*
X9689229Y-17290936D02*
X9698753Y-17300460D01*
X9698753Y-17300460D02*
X9717801Y-17309984D01*
X9717801Y-17309984D02*
X9755896Y-17309984D01*
X9755896Y-17309984D02*
X9774944Y-17300460D01*
X9774944Y-17300460D02*
X9784468Y-17290936D01*
X9784468Y-17290936D02*
X9793991Y-17271889D01*
X9793991Y-17271889D02*
X9793991Y-17224270D01*
X9793991Y-17224270D02*
X9784468Y-17205222D01*
X9784468Y-17205222D02*
X9774944Y-17195698D01*
X9774944Y-17195698D02*
X9755896Y-17186174D01*
X9755896Y-17186174D02*
X9717801Y-17186174D01*
X9717801Y-17186174D02*
X9698753Y-17195698D01*
X9698753Y-17195698D02*
X9689229Y-17205222D01*
X9689229Y-17205222D02*
X9679706Y-17224270D01*
X9965420Y-17109984D02*
X9927325Y-17109984D01*
X9927325Y-17109984D02*
X9908277Y-17119508D01*
X9908277Y-17119508D02*
X9898753Y-17129031D01*
X9898753Y-17129031D02*
X9879706Y-17157603D01*
X9879706Y-17157603D02*
X9870182Y-17195698D01*
X9870182Y-17195698D02*
X9870182Y-17271889D01*
X9870182Y-17271889D02*
X9879706Y-17290936D01*
X9879706Y-17290936D02*
X9889229Y-17300460D01*
X9889229Y-17300460D02*
X9908277Y-17309984D01*
X9908277Y-17309984D02*
X9946372Y-17309984D01*
X9946372Y-17309984D02*
X9965420Y-17300460D01*
X9965420Y-17300460D02*
X9974944Y-17290936D01*
X9974944Y-17290936D02*
X9984468Y-17271889D01*
X9984468Y-17271889D02*
X9984468Y-17224270D01*
X9984468Y-17224270D02*
X9974944Y-17205222D01*
X9974944Y-17205222D02*
X9965420Y-17195698D01*
X9965420Y-17195698D02*
X9946372Y-17186174D01*
X9946372Y-17186174D02*
X9908277Y-17186174D01*
X9908277Y-17186174D02*
X9889229Y-17195698D01*
X9889229Y-17195698D02*
X9879706Y-17205222D01*
X9879706Y-17205222D02*
X9870182Y-17224270D01*
X10079706Y-17309984D02*
X10117801Y-17309984D01*
X10117801Y-17309984D02*
X10136849Y-17300460D01*
X10136849Y-17300460D02*
X10146372Y-17290936D01*
X10146372Y-17290936D02*
X10165420Y-17262365D01*
X10165420Y-17262365D02*
X10174944Y-17224270D01*
X10174944Y-17224270D02*
X10174944Y-17148079D01*
X10174944Y-17148079D02*
X10165420Y-17129031D01*
X10165420Y-17129031D02*
X10155896Y-17119508D01*
X10155896Y-17119508D02*
X10136849Y-17109984D01*
X10136849Y-17109984D02*
X10098753Y-17109984D01*
X10098753Y-17109984D02*
X10079706Y-17119508D01*
X10079706Y-17119508D02*
X10070182Y-17129031D01*
X10070182Y-17129031D02*
X10060658Y-17148079D01*
X10060658Y-17148079D02*
X10060658Y-17195698D01*
X10060658Y-17195698D02*
X10070182Y-17214746D01*
X10070182Y-17214746D02*
X10079706Y-17224270D01*
X10079706Y-17224270D02*
X10098753Y-17233793D01*
X10098753Y-17233793D02*
X10136849Y-17233793D01*
X10136849Y-17233793D02*
X10155896Y-17224270D01*
X10155896Y-17224270D02*
X10165420Y-17214746D01*
X10165420Y-17214746D02*
X10174944Y-17195698D01*
X10251134Y-17109984D02*
X10251134Y-17148079D01*
X10327325Y-17109984D02*
X10327325Y-17148079D01*
X10622563Y-17386174D02*
X10613039Y-17376650D01*
X10613039Y-17376650D02*
X10593991Y-17348079D01*
X10593991Y-17348079D02*
X10584468Y-17329031D01*
X10584468Y-17329031D02*
X10574944Y-17300460D01*
X10574944Y-17300460D02*
X10565420Y-17252841D01*
X10565420Y-17252841D02*
X10565420Y-17214746D01*
X10565420Y-17214746D02*
X10574944Y-17167127D01*
X10574944Y-17167127D02*
X10584468Y-17138555D01*
X10584468Y-17138555D02*
X10593991Y-17119508D01*
X10593991Y-17119508D02*
X10613039Y-17090936D01*
X10613039Y-17090936D02*
X10622563Y-17081412D01*
X10784468Y-17109984D02*
X10746372Y-17109984D01*
X10746372Y-17109984D02*
X10727325Y-17119508D01*
X10727325Y-17119508D02*
X10717801Y-17129031D01*
X10717801Y-17129031D02*
X10698753Y-17157603D01*
X10698753Y-17157603D02*
X10689230Y-17195698D01*
X10689230Y-17195698D02*
X10689230Y-17271889D01*
X10689230Y-17271889D02*
X10698753Y-17290936D01*
X10698753Y-17290936D02*
X10708277Y-17300460D01*
X10708277Y-17300460D02*
X10727325Y-17309984D01*
X10727325Y-17309984D02*
X10765420Y-17309984D01*
X10765420Y-17309984D02*
X10784468Y-17300460D01*
X10784468Y-17300460D02*
X10793991Y-17290936D01*
X10793991Y-17290936D02*
X10803515Y-17271889D01*
X10803515Y-17271889D02*
X10803515Y-17224270D01*
X10803515Y-17224270D02*
X10793991Y-17205222D01*
X10793991Y-17205222D02*
X10784468Y-17195698D01*
X10784468Y-17195698D02*
X10765420Y-17186174D01*
X10765420Y-17186174D02*
X10727325Y-17186174D01*
X10727325Y-17186174D02*
X10708277Y-17195698D01*
X10708277Y-17195698D02*
X10698753Y-17205222D01*
X10698753Y-17205222D02*
X10689230Y-17224270D01*
X11041611Y-17309984D02*
X11041611Y-17109984D01*
X11127325Y-17309984D02*
X11127325Y-17205222D01*
X11127325Y-17205222D02*
X11117801Y-17186174D01*
X11117801Y-17186174D02*
X11098753Y-17176650D01*
X11098753Y-17176650D02*
X11070182Y-17176650D01*
X11070182Y-17176650D02*
X11051134Y-17186174D01*
X11051134Y-17186174D02*
X11041611Y-17195698D01*
X11251134Y-17309984D02*
X11232087Y-17300460D01*
X11232087Y-17300460D02*
X11222563Y-17290936D01*
X11222563Y-17290936D02*
X11213039Y-17271889D01*
X11213039Y-17271889D02*
X11213039Y-17214746D01*
X11213039Y-17214746D02*
X11222563Y-17195698D01*
X11222563Y-17195698D02*
X11232087Y-17186174D01*
X11232087Y-17186174D02*
X11251134Y-17176650D01*
X11251134Y-17176650D02*
X11279706Y-17176650D01*
X11279706Y-17176650D02*
X11298753Y-17186174D01*
X11298753Y-17186174D02*
X11308277Y-17195698D01*
X11308277Y-17195698D02*
X11317801Y-17214746D01*
X11317801Y-17214746D02*
X11317801Y-17271889D01*
X11317801Y-17271889D02*
X11308277Y-17290936D01*
X11308277Y-17290936D02*
X11298753Y-17300460D01*
X11298753Y-17300460D02*
X11279706Y-17309984D01*
X11279706Y-17309984D02*
X11251134Y-17309984D01*
X11432087Y-17309984D02*
X11413039Y-17300460D01*
X11413039Y-17300460D02*
X11403515Y-17281412D01*
X11403515Y-17281412D02*
X11403515Y-17109984D01*
X11584468Y-17300460D02*
X11565420Y-17309984D01*
X11565420Y-17309984D02*
X11527325Y-17309984D01*
X11527325Y-17309984D02*
X11508277Y-17300460D01*
X11508277Y-17300460D02*
X11498753Y-17281412D01*
X11498753Y-17281412D02*
X11498753Y-17205222D01*
X11498753Y-17205222D02*
X11508277Y-17186174D01*
X11508277Y-17186174D02*
X11527325Y-17176650D01*
X11527325Y-17176650D02*
X11565420Y-17176650D01*
X11565420Y-17176650D02*
X11584468Y-17186174D01*
X11584468Y-17186174D02*
X11593991Y-17205222D01*
X11593991Y-17205222D02*
X11593991Y-17224270D01*
X11593991Y-17224270D02*
X11498753Y-17243317D01*
X11670182Y-17300460D02*
X11689230Y-17309984D01*
X11689230Y-17309984D02*
X11727325Y-17309984D01*
X11727325Y-17309984D02*
X11746372Y-17300460D01*
X11746372Y-17300460D02*
X11755896Y-17281412D01*
X11755896Y-17281412D02*
X11755896Y-17271889D01*
X11755896Y-17271889D02*
X11746372Y-17252841D01*
X11746372Y-17252841D02*
X11727325Y-17243317D01*
X11727325Y-17243317D02*
X11698753Y-17243317D01*
X11698753Y-17243317D02*
X11679706Y-17233793D01*
X11679706Y-17233793D02*
X11670182Y-17214746D01*
X11670182Y-17214746D02*
X11670182Y-17205222D01*
X11670182Y-17205222D02*
X11679706Y-17186174D01*
X11679706Y-17186174D02*
X11698753Y-17176650D01*
X11698753Y-17176650D02*
X11727325Y-17176650D01*
X11727325Y-17176650D02*
X11746372Y-17186174D01*
X11822563Y-17386174D02*
X11832087Y-17376650D01*
X11832087Y-17376650D02*
X11851134Y-17348079D01*
X11851134Y-17348079D02*
X11860658Y-17329031D01*
X11860658Y-17329031D02*
X11870182Y-17300460D01*
X11870182Y-17300460D02*
X11879706Y-17252841D01*
X11879706Y-17252841D02*
X11879706Y-17214746D01*
X11879706Y-17214746D02*
X11870182Y-17167127D01*
X11870182Y-17167127D02*
X11860658Y-17138555D01*
X11860658Y-17138555D02*
X11851134Y-17119508D01*
X11851134Y-17119508D02*
X11832087Y-17090936D01*
X11832087Y-17090936D02*
X11822563Y-17081412D01*
X6847500Y-17408500D02*
X7047500Y-17608500D01*
X7047500Y-17408500D02*
X6847500Y-17608500D01*
X6947500Y-17408500D02*
X6947500Y-17608500D01*
X6847500Y-17508500D02*
X7047500Y-17508500D01*
X7298753Y-17419031D02*
X7308277Y-17409508D01*
X7308277Y-17409508D02*
X7327324Y-17399984D01*
X7327324Y-17399984D02*
X7374943Y-17399984D01*
X7374943Y-17399984D02*
X7393991Y-17409508D01*
X7393991Y-17409508D02*
X7403515Y-17419031D01*
X7403515Y-17419031D02*
X7413039Y-17438079D01*
X7413039Y-17438079D02*
X7413039Y-17457127D01*
X7413039Y-17457127D02*
X7403515Y-17485698D01*
X7403515Y-17485698D02*
X7289229Y-17599984D01*
X7289229Y-17599984D02*
X7413039Y-17599984D01*
X7498753Y-17580936D02*
X7508277Y-17590460D01*
X7508277Y-17590460D02*
X7498753Y-17599984D01*
X7498753Y-17599984D02*
X7489229Y-17590460D01*
X7489229Y-17590460D02*
X7498753Y-17580936D01*
X7498753Y-17580936D02*
X7498753Y-17599984D01*
X7689229Y-17399984D02*
X7593991Y-17399984D01*
X7593991Y-17399984D02*
X7584467Y-17495222D01*
X7584467Y-17495222D02*
X7593991Y-17485698D01*
X7593991Y-17485698D02*
X7613039Y-17476174D01*
X7613039Y-17476174D02*
X7660658Y-17476174D01*
X7660658Y-17476174D02*
X7679705Y-17485698D01*
X7679705Y-17485698D02*
X7689229Y-17495222D01*
X7689229Y-17495222D02*
X7698753Y-17514270D01*
X7698753Y-17514270D02*
X7698753Y-17561889D01*
X7698753Y-17561889D02*
X7689229Y-17580936D01*
X7689229Y-17580936D02*
X7679705Y-17590460D01*
X7679705Y-17590460D02*
X7660658Y-17599984D01*
X7660658Y-17599984D02*
X7613039Y-17599984D01*
X7613039Y-17599984D02*
X7593991Y-17590460D01*
X7593991Y-17590460D02*
X7584467Y-17580936D01*
X7870182Y-17466650D02*
X7870182Y-17599984D01*
X7822562Y-17390460D02*
X7774943Y-17533317D01*
X7774943Y-17533317D02*
X7898753Y-17533317D01*
X8013039Y-17399984D02*
X8032086Y-17399984D01*
X8032086Y-17399984D02*
X8051134Y-17409508D01*
X8051134Y-17409508D02*
X8060658Y-17419031D01*
X8060658Y-17419031D02*
X8070182Y-17438079D01*
X8070182Y-17438079D02*
X8079705Y-17476174D01*
X8079705Y-17476174D02*
X8079705Y-17523793D01*
X8079705Y-17523793D02*
X8070182Y-17561889D01*
X8070182Y-17561889D02*
X8060658Y-17580936D01*
X8060658Y-17580936D02*
X8051134Y-17590460D01*
X8051134Y-17590460D02*
X8032086Y-17599984D01*
X8032086Y-17599984D02*
X8013039Y-17599984D01*
X8013039Y-17599984D02*
X7993991Y-17590460D01*
X7993991Y-17590460D02*
X7984467Y-17580936D01*
X7984467Y-17580936D02*
X7974943Y-17561889D01*
X7974943Y-17561889D02*
X7965420Y-17523793D01*
X7965420Y-17523793D02*
X7965420Y-17476174D01*
X7965420Y-17476174D02*
X7974943Y-17438079D01*
X7974943Y-17438079D02*
X7984467Y-17419031D01*
X7984467Y-17419031D02*
X7993991Y-17409508D01*
X7993991Y-17409508D02*
X8013039Y-17399984D01*
X8165420Y-17599984D02*
X8165420Y-17466650D01*
X8165420Y-17485698D02*
X8174943Y-17476174D01*
X8174943Y-17476174D02*
X8193991Y-17466650D01*
X8193991Y-17466650D02*
X8222563Y-17466650D01*
X8222563Y-17466650D02*
X8241610Y-17476174D01*
X8241610Y-17476174D02*
X8251134Y-17495222D01*
X8251134Y-17495222D02*
X8251134Y-17599984D01*
X8251134Y-17495222D02*
X8260658Y-17476174D01*
X8260658Y-17476174D02*
X8279705Y-17466650D01*
X8279705Y-17466650D02*
X8308277Y-17466650D01*
X8308277Y-17466650D02*
X8327324Y-17476174D01*
X8327324Y-17476174D02*
X8336848Y-17495222D01*
X8336848Y-17495222D02*
X8336848Y-17599984D01*
X8432086Y-17599984D02*
X8432086Y-17466650D01*
X8432086Y-17485698D02*
X8441610Y-17476174D01*
X8441610Y-17476174D02*
X8460658Y-17466650D01*
X8460658Y-17466650D02*
X8489229Y-17466650D01*
X8489229Y-17466650D02*
X8508277Y-17476174D01*
X8508277Y-17476174D02*
X8517801Y-17495222D01*
X8517801Y-17495222D02*
X8517801Y-17599984D01*
X8517801Y-17495222D02*
X8527325Y-17476174D01*
X8527325Y-17476174D02*
X8546372Y-17466650D01*
X8546372Y-17466650D02*
X8574944Y-17466650D01*
X8574944Y-17466650D02*
X8593991Y-17476174D01*
X8593991Y-17476174D02*
X8603515Y-17495222D01*
X8603515Y-17495222D02*
X8603515Y-17599984D01*
X8993991Y-17390460D02*
X8822563Y-17647603D01*
X9251134Y-17399984D02*
X9270182Y-17399984D01*
X9270182Y-17399984D02*
X9289229Y-17409508D01*
X9289229Y-17409508D02*
X9298753Y-17419031D01*
X9298753Y-17419031D02*
X9308277Y-17438079D01*
X9308277Y-17438079D02*
X9317801Y-17476174D01*
X9317801Y-17476174D02*
X9317801Y-17523793D01*
X9317801Y-17523793D02*
X9308277Y-17561889D01*
X9308277Y-17561889D02*
X9298753Y-17580936D01*
X9298753Y-17580936D02*
X9289229Y-17590460D01*
X9289229Y-17590460D02*
X9270182Y-17599984D01*
X9270182Y-17599984D02*
X9251134Y-17599984D01*
X9251134Y-17599984D02*
X9232087Y-17590460D01*
X9232087Y-17590460D02*
X9222563Y-17580936D01*
X9222563Y-17580936D02*
X9213039Y-17561889D01*
X9213039Y-17561889D02*
X9203515Y-17523793D01*
X9203515Y-17523793D02*
X9203515Y-17476174D01*
X9203515Y-17476174D02*
X9213039Y-17438079D01*
X9213039Y-17438079D02*
X9222563Y-17419031D01*
X9222563Y-17419031D02*
X9232087Y-17409508D01*
X9232087Y-17409508D02*
X9251134Y-17399984D01*
X9403515Y-17580936D02*
X9413039Y-17590460D01*
X9413039Y-17590460D02*
X9403515Y-17599984D01*
X9403515Y-17599984D02*
X9393991Y-17590460D01*
X9393991Y-17590460D02*
X9403515Y-17580936D01*
X9403515Y-17580936D02*
X9403515Y-17599984D01*
X9603515Y-17599984D02*
X9489229Y-17599984D01*
X9546372Y-17599984D02*
X9546372Y-17399984D01*
X9546372Y-17399984D02*
X9527325Y-17428555D01*
X9527325Y-17428555D02*
X9508277Y-17447603D01*
X9508277Y-17447603D02*
X9489229Y-17457127D01*
X9727325Y-17399984D02*
X9746372Y-17399984D01*
X9746372Y-17399984D02*
X9765420Y-17409508D01*
X9765420Y-17409508D02*
X9774944Y-17419031D01*
X9774944Y-17419031D02*
X9784468Y-17438079D01*
X9784468Y-17438079D02*
X9793991Y-17476174D01*
X9793991Y-17476174D02*
X9793991Y-17523793D01*
X9793991Y-17523793D02*
X9784468Y-17561889D01*
X9784468Y-17561889D02*
X9774944Y-17580936D01*
X9774944Y-17580936D02*
X9765420Y-17590460D01*
X9765420Y-17590460D02*
X9746372Y-17599984D01*
X9746372Y-17599984D02*
X9727325Y-17599984D01*
X9727325Y-17599984D02*
X9708277Y-17590460D01*
X9708277Y-17590460D02*
X9698753Y-17580936D01*
X9698753Y-17580936D02*
X9689229Y-17561889D01*
X9689229Y-17561889D02*
X9679706Y-17523793D01*
X9679706Y-17523793D02*
X9679706Y-17476174D01*
X9679706Y-17476174D02*
X9689229Y-17438079D01*
X9689229Y-17438079D02*
X9698753Y-17419031D01*
X9698753Y-17419031D02*
X9708277Y-17409508D01*
X9708277Y-17409508D02*
X9727325Y-17399984D01*
X9917801Y-17399984D02*
X9936849Y-17399984D01*
X9936849Y-17399984D02*
X9955896Y-17409508D01*
X9955896Y-17409508D02*
X9965420Y-17419031D01*
X9965420Y-17419031D02*
X9974944Y-17438079D01*
X9974944Y-17438079D02*
X9984468Y-17476174D01*
X9984468Y-17476174D02*
X9984468Y-17523793D01*
X9984468Y-17523793D02*
X9974944Y-17561889D01*
X9974944Y-17561889D02*
X9965420Y-17580936D01*
X9965420Y-17580936D02*
X9955896Y-17590460D01*
X9955896Y-17590460D02*
X9936849Y-17599984D01*
X9936849Y-17599984D02*
X9917801Y-17599984D01*
X9917801Y-17599984D02*
X9898753Y-17590460D01*
X9898753Y-17590460D02*
X9889229Y-17580936D01*
X9889229Y-17580936D02*
X9879706Y-17561889D01*
X9879706Y-17561889D02*
X9870182Y-17523793D01*
X9870182Y-17523793D02*
X9870182Y-17476174D01*
X9870182Y-17476174D02*
X9879706Y-17438079D01*
X9879706Y-17438079D02*
X9889229Y-17419031D01*
X9889229Y-17419031D02*
X9898753Y-17409508D01*
X9898753Y-17409508D02*
X9917801Y-17399984D01*
X10108277Y-17399984D02*
X10127325Y-17399984D01*
X10127325Y-17399984D02*
X10146372Y-17409508D01*
X10146372Y-17409508D02*
X10155896Y-17419031D01*
X10155896Y-17419031D02*
X10165420Y-17438079D01*
X10165420Y-17438079D02*
X10174944Y-17476174D01*
X10174944Y-17476174D02*
X10174944Y-17523793D01*
X10174944Y-17523793D02*
X10165420Y-17561889D01*
X10165420Y-17561889D02*
X10155896Y-17580936D01*
X10155896Y-17580936D02*
X10146372Y-17590460D01*
X10146372Y-17590460D02*
X10127325Y-17599984D01*
X10127325Y-17599984D02*
X10108277Y-17599984D01*
X10108277Y-17599984D02*
X10089229Y-17590460D01*
X10089229Y-17590460D02*
X10079706Y-17580936D01*
X10079706Y-17580936D02*
X10070182Y-17561889D01*
X10070182Y-17561889D02*
X10060658Y-17523793D01*
X10060658Y-17523793D02*
X10060658Y-17476174D01*
X10060658Y-17476174D02*
X10070182Y-17438079D01*
X10070182Y-17438079D02*
X10079706Y-17419031D01*
X10079706Y-17419031D02*
X10089229Y-17409508D01*
X10089229Y-17409508D02*
X10108277Y-17399984D01*
X10251134Y-17399984D02*
X10251134Y-17438079D01*
X10327325Y-17399984D02*
X10327325Y-17438079D01*
X10622563Y-17676174D02*
X10613039Y-17666650D01*
X10613039Y-17666650D02*
X10593991Y-17638079D01*
X10593991Y-17638079D02*
X10584468Y-17619031D01*
X10584468Y-17619031D02*
X10574944Y-17590460D01*
X10574944Y-17590460D02*
X10565420Y-17542841D01*
X10565420Y-17542841D02*
X10565420Y-17504746D01*
X10565420Y-17504746D02*
X10574944Y-17457127D01*
X10574944Y-17457127D02*
X10584468Y-17428555D01*
X10584468Y-17428555D02*
X10593991Y-17409508D01*
X10593991Y-17409508D02*
X10613039Y-17380936D01*
X10613039Y-17380936D02*
X10622563Y-17371412D01*
X10727325Y-17485698D02*
X10708277Y-17476174D01*
X10708277Y-17476174D02*
X10698753Y-17466650D01*
X10698753Y-17466650D02*
X10689230Y-17447603D01*
X10689230Y-17447603D02*
X10689230Y-17438079D01*
X10689230Y-17438079D02*
X10698753Y-17419031D01*
X10698753Y-17419031D02*
X10708277Y-17409508D01*
X10708277Y-17409508D02*
X10727325Y-17399984D01*
X10727325Y-17399984D02*
X10765420Y-17399984D01*
X10765420Y-17399984D02*
X10784468Y-17409508D01*
X10784468Y-17409508D02*
X10793991Y-17419031D01*
X10793991Y-17419031D02*
X10803515Y-17438079D01*
X10803515Y-17438079D02*
X10803515Y-17447603D01*
X10803515Y-17447603D02*
X10793991Y-17466650D01*
X10793991Y-17466650D02*
X10784468Y-17476174D01*
X10784468Y-17476174D02*
X10765420Y-17485698D01*
X10765420Y-17485698D02*
X10727325Y-17485698D01*
X10727325Y-17485698D02*
X10708277Y-17495222D01*
X10708277Y-17495222D02*
X10698753Y-17504746D01*
X10698753Y-17504746D02*
X10689230Y-17523793D01*
X10689230Y-17523793D02*
X10689230Y-17561889D01*
X10689230Y-17561889D02*
X10698753Y-17580936D01*
X10698753Y-17580936D02*
X10708277Y-17590460D01*
X10708277Y-17590460D02*
X10727325Y-17599984D01*
X10727325Y-17599984D02*
X10765420Y-17599984D01*
X10765420Y-17599984D02*
X10784468Y-17590460D01*
X10784468Y-17590460D02*
X10793991Y-17580936D01*
X10793991Y-17580936D02*
X10803515Y-17561889D01*
X10803515Y-17561889D02*
X10803515Y-17523793D01*
X10803515Y-17523793D02*
X10793991Y-17504746D01*
X10793991Y-17504746D02*
X10784468Y-17495222D01*
X10784468Y-17495222D02*
X10765420Y-17485698D01*
X11041611Y-17599984D02*
X11041611Y-17399984D01*
X11127325Y-17599984D02*
X11127325Y-17495222D01*
X11127325Y-17495222D02*
X11117801Y-17476174D01*
X11117801Y-17476174D02*
X11098753Y-17466650D01*
X11098753Y-17466650D02*
X11070182Y-17466650D01*
X11070182Y-17466650D02*
X11051134Y-17476174D01*
X11051134Y-17476174D02*
X11041611Y-17485698D01*
X11251134Y-17599984D02*
X11232087Y-17590460D01*
X11232087Y-17590460D02*
X11222563Y-17580936D01*
X11222563Y-17580936D02*
X11213039Y-17561889D01*
X11213039Y-17561889D02*
X11213039Y-17504746D01*
X11213039Y-17504746D02*
X11222563Y-17485698D01*
X11222563Y-17485698D02*
X11232087Y-17476174D01*
X11232087Y-17476174D02*
X11251134Y-17466650D01*
X11251134Y-17466650D02*
X11279706Y-17466650D01*
X11279706Y-17466650D02*
X11298753Y-17476174D01*
X11298753Y-17476174D02*
X11308277Y-17485698D01*
X11308277Y-17485698D02*
X11317801Y-17504746D01*
X11317801Y-17504746D02*
X11317801Y-17561889D01*
X11317801Y-17561889D02*
X11308277Y-17580936D01*
X11308277Y-17580936D02*
X11298753Y-17590460D01*
X11298753Y-17590460D02*
X11279706Y-17599984D01*
X11279706Y-17599984D02*
X11251134Y-17599984D01*
X11432087Y-17599984D02*
X11413039Y-17590460D01*
X11413039Y-17590460D02*
X11403515Y-17571412D01*
X11403515Y-17571412D02*
X11403515Y-17399984D01*
X11584468Y-17590460D02*
X11565420Y-17599984D01*
X11565420Y-17599984D02*
X11527325Y-17599984D01*
X11527325Y-17599984D02*
X11508277Y-17590460D01*
X11508277Y-17590460D02*
X11498753Y-17571412D01*
X11498753Y-17571412D02*
X11498753Y-17495222D01*
X11498753Y-17495222D02*
X11508277Y-17476174D01*
X11508277Y-17476174D02*
X11527325Y-17466650D01*
X11527325Y-17466650D02*
X11565420Y-17466650D01*
X11565420Y-17466650D02*
X11584468Y-17476174D01*
X11584468Y-17476174D02*
X11593991Y-17495222D01*
X11593991Y-17495222D02*
X11593991Y-17514270D01*
X11593991Y-17514270D02*
X11498753Y-17533317D01*
X11670182Y-17590460D02*
X11689230Y-17599984D01*
X11689230Y-17599984D02*
X11727325Y-17599984D01*
X11727325Y-17599984D02*
X11746372Y-17590460D01*
X11746372Y-17590460D02*
X11755896Y-17571412D01*
X11755896Y-17571412D02*
X11755896Y-17561889D01*
X11755896Y-17561889D02*
X11746372Y-17542841D01*
X11746372Y-17542841D02*
X11727325Y-17533317D01*
X11727325Y-17533317D02*
X11698753Y-17533317D01*
X11698753Y-17533317D02*
X11679706Y-17523793D01*
X11679706Y-17523793D02*
X11670182Y-17504746D01*
X11670182Y-17504746D02*
X11670182Y-17495222D01*
X11670182Y-17495222D02*
X11679706Y-17476174D01*
X11679706Y-17476174D02*
X11698753Y-17466650D01*
X11698753Y-17466650D02*
X11727325Y-17466650D01*
X11727325Y-17466650D02*
X11746372Y-17476174D01*
X11822563Y-17676174D02*
X11832087Y-17666650D01*
X11832087Y-17666650D02*
X11851134Y-17638079D01*
X11851134Y-17638079D02*
X11860658Y-17619031D01*
X11860658Y-17619031D02*
X11870182Y-17590460D01*
X11870182Y-17590460D02*
X11879706Y-17542841D01*
X11879706Y-17542841D02*
X11879706Y-17504746D01*
X11879706Y-17504746D02*
X11870182Y-17457127D01*
X11870182Y-17457127D02*
X11860658Y-17428555D01*
X11860658Y-17428555D02*
X11851134Y-17409508D01*
X11851134Y-17409508D02*
X11832087Y-17380936D01*
X11832087Y-17380936D02*
X11822563Y-17371412D01*
M02*
