%TF.GenerationSoftware,KiCad,Pcbnew,8.0.7*%
%TF.CreationDate,2025-01-14T10:09:15+01:00*%
%TF.ProjectId,pv_test_station,70765f74-6573-4745-9f73-746174696f6e,rev?*%
%TF.SameCoordinates,Original*%
%TF.FileFunction,Drillmap*%
%TF.FilePolarity,Positive*%
%FSLAX45Y45*%
G04 Gerber Fmt 4.5, Leading zero omitted, Abs format (unit mm)*
G04 Created by KiCad (PCBNEW 8.0.7) date 2025-01-14 10:09:15*
%MOMM*%
%LPD*%
G01*
G04 APERTURE LIST*
%ADD10C,3.025000*%
%ADD11C,0.050000*%
%ADD12C,0.200000*%
G04 APERTURE END LIST*
D10*
X10851250Y-5800000D02*
G75*
G02*
X10548750Y-5800000I-151250J0D01*
G01*
X10548750Y-5800000D02*
G75*
G02*
X10851250Y-5800000I151250J0D01*
G01*
X16151250Y-12900000D02*
G75*
G02*
X15848750Y-12900000I-151250J0D01*
G01*
X15848750Y-12900000D02*
G75*
G02*
X16151250Y-12900000I151250J0D01*
G01*
X8251250Y-9800000D02*
G75*
G02*
X7948750Y-9800000I-151250J0D01*
G01*
X7948750Y-9800000D02*
G75*
G02*
X8251250Y-9800000I151250J0D01*
G01*
D11*
X7050000Y-5250000D02*
X17050000Y-5250000D01*
X17050000Y-15250000D01*
X7050000Y-15250000D01*
X7050000Y-5250000D01*
D12*
X7308277Y-15563984D02*
X7308277Y-15363984D01*
X7308277Y-15363984D02*
X7355896Y-15363984D01*
X7355896Y-15363984D02*
X7384467Y-15373508D01*
X7384467Y-15373508D02*
X7403515Y-15392555D01*
X7403515Y-15392555D02*
X7413039Y-15411603D01*
X7413039Y-15411603D02*
X7422562Y-15449698D01*
X7422562Y-15449698D02*
X7422562Y-15478269D01*
X7422562Y-15478269D02*
X7413039Y-15516365D01*
X7413039Y-15516365D02*
X7403515Y-15535412D01*
X7403515Y-15535412D02*
X7384467Y-15554460D01*
X7384467Y-15554460D02*
X7355896Y-15563984D01*
X7355896Y-15563984D02*
X7308277Y-15563984D01*
X7508277Y-15563984D02*
X7508277Y-15430650D01*
X7508277Y-15468746D02*
X7517801Y-15449698D01*
X7517801Y-15449698D02*
X7527324Y-15440174D01*
X7527324Y-15440174D02*
X7546372Y-15430650D01*
X7546372Y-15430650D02*
X7565420Y-15430650D01*
X7632086Y-15563984D02*
X7632086Y-15430650D01*
X7632086Y-15363984D02*
X7622562Y-15373508D01*
X7622562Y-15373508D02*
X7632086Y-15383031D01*
X7632086Y-15383031D02*
X7641610Y-15373508D01*
X7641610Y-15373508D02*
X7632086Y-15363984D01*
X7632086Y-15363984D02*
X7632086Y-15383031D01*
X7755896Y-15563984D02*
X7736848Y-15554460D01*
X7736848Y-15554460D02*
X7727324Y-15535412D01*
X7727324Y-15535412D02*
X7727324Y-15363984D01*
X7860658Y-15563984D02*
X7841610Y-15554460D01*
X7841610Y-15554460D02*
X7832086Y-15535412D01*
X7832086Y-15535412D02*
X7832086Y-15363984D01*
X8089229Y-15563984D02*
X8089229Y-15363984D01*
X8089229Y-15363984D02*
X8155896Y-15506841D01*
X8155896Y-15506841D02*
X8222562Y-15363984D01*
X8222562Y-15363984D02*
X8222562Y-15563984D01*
X8403515Y-15563984D02*
X8403515Y-15459222D01*
X8403515Y-15459222D02*
X8393991Y-15440174D01*
X8393991Y-15440174D02*
X8374943Y-15430650D01*
X8374943Y-15430650D02*
X8336848Y-15430650D01*
X8336848Y-15430650D02*
X8317801Y-15440174D01*
X8403515Y-15554460D02*
X8384467Y-15563984D01*
X8384467Y-15563984D02*
X8336848Y-15563984D01*
X8336848Y-15563984D02*
X8317801Y-15554460D01*
X8317801Y-15554460D02*
X8308277Y-15535412D01*
X8308277Y-15535412D02*
X8308277Y-15516365D01*
X8308277Y-15516365D02*
X8317801Y-15497317D01*
X8317801Y-15497317D02*
X8336848Y-15487793D01*
X8336848Y-15487793D02*
X8384467Y-15487793D01*
X8384467Y-15487793D02*
X8403515Y-15478269D01*
X8498753Y-15430650D02*
X8498753Y-15630650D01*
X8498753Y-15440174D02*
X8517801Y-15430650D01*
X8517801Y-15430650D02*
X8555896Y-15430650D01*
X8555896Y-15430650D02*
X8574944Y-15440174D01*
X8574944Y-15440174D02*
X8584467Y-15449698D01*
X8584467Y-15449698D02*
X8593991Y-15468746D01*
X8593991Y-15468746D02*
X8593991Y-15525888D01*
X8593991Y-15525888D02*
X8584467Y-15544936D01*
X8584467Y-15544936D02*
X8574944Y-15554460D01*
X8574944Y-15554460D02*
X8555896Y-15563984D01*
X8555896Y-15563984D02*
X8517801Y-15563984D01*
X8517801Y-15563984D02*
X8498753Y-15554460D01*
X8679705Y-15544936D02*
X8689229Y-15554460D01*
X8689229Y-15554460D02*
X8679705Y-15563984D01*
X8679705Y-15563984D02*
X8670182Y-15554460D01*
X8670182Y-15554460D02*
X8679705Y-15544936D01*
X8679705Y-15544936D02*
X8679705Y-15563984D01*
X8679705Y-15440174D02*
X8689229Y-15449698D01*
X8689229Y-15449698D02*
X8679705Y-15459222D01*
X8679705Y-15459222D02*
X8670182Y-15449698D01*
X8670182Y-15449698D02*
X8679705Y-15440174D01*
X8679705Y-15440174D02*
X8679705Y-15459222D01*
M02*
