M48
; DRILL file {KiCad 8.0.7} date 2025-01-14T10:09:15+0100
; FORMAT={-:-/ absolute / metric / decimal}
; #@! TF.CreationDate,2025-01-14T10:09:15+01:00
; #@! TF.GenerationSoftware,Kicad,Pcbnew,8.0.7
; #@! TF.FileFunction,Plated,1,2,PTH
FMAT,2
METRIC
; #@! TA.AperFunction,Plated,PTH,ViaDrill
T1C0.300
; #@! TA.AperFunction,Plated,PTH,ViaDrill
T2C0.600
; #@! TA.AperFunction,Plated,PTH,ComponentDrill
T3C1.000
; #@! TA.AperFunction,Plated,PTH,ComponentDrill
T4C1.200
; #@! TA.AperFunction,Plated,PTH,ComponentDrill
T5C1.500
; #@! TA.AperFunction,Plated,PTH,ComponentDrill
T6C1.700
; #@! TA.AperFunction,Plated,PTH,ComponentDrill
T7C2.540
%
G90
G05
T1
X76.0Y-92.0
X77.75Y-58.0
X78.75Y-128.25
X79.0Y-63.75
X81.75Y-71.5
X82.5Y-76.75
X84.25Y-71.5
X87.5Y-62.5
X88.25Y-71.5
X89.25Y-82.5
X91.25Y-75.0
X97.5Y-71.75
X101.0Y-56.0
X104.0Y-64.75
X104.0Y-66.75
X105.0Y-74.5
X105.0Y-77.0
X106.0Y-91.25
X106.0Y-97.75
X110.0Y-82.5
X120.0Y-128.25
X120.0Y-149.25
X121.0Y-91.25
X122.75Y-66.75
X124.25Y-62.25
X129.75Y-147.5
X132.75Y-99.75
X133.75Y-147.5
X138.0Y-126.5
X139.5Y-124.25
X139.75Y-66.75
X143.0Y-60.5
X149.0Y-128.25
X150.5Y-60.5
X155.25Y-60.5
X155.5Y-78.5
X166.75Y-82.25
X168.75Y-54.25
T2
X97.0Y-111.25
X103.5Y-106.0
X103.5Y-116.5
X109.75Y-121.75
X110.0Y-111.25
X118.25Y-105.0
T3
X74.5Y-114.235
X74.5Y-116.775
X77.88Y-68.5
X77.92Y-74.5
X80.42Y-68.5
X80.46Y-74.5
X82.96Y-68.5
X83.0Y-74.5
X85.5Y-68.5
X85.54Y-74.5
X94.5Y-57.92
X94.5Y-60.46
X94.5Y-63.0
X94.5Y-65.54
X94.5Y-68.08
X94.5Y-70.62
X94.5Y-73.16
X94.5Y-75.7
X94.5Y-87.34
X94.5Y-89.88
X94.5Y-92.42
X94.5Y-94.96
X94.5Y-97.5
X123.32Y-75.93
X125.86Y-75.93
X128.4Y-75.93
X130.94Y-75.93
X133.48Y-55.61
X133.48Y-75.93
X136.02Y-55.61
X136.02Y-75.93
X138.56Y-55.61
X138.56Y-75.93
X141.1Y-55.61
X141.1Y-75.93
X143.64Y-55.61
X143.64Y-75.93
X146.18Y-55.61
X146.18Y-75.93
X148.72Y-55.61
X148.72Y-75.93
X151.26Y-55.61
X151.26Y-75.93
X153.8Y-55.61
X153.8Y-75.93
X156.34Y-55.61
X156.34Y-75.93
X158.88Y-55.61
X158.88Y-75.93
X161.42Y-55.61
X161.42Y-75.93
X166.5Y-59.42
X166.5Y-61.96
X166.5Y-64.5
X166.5Y-72.12
T4
X142.348Y-97.15
X142.348Y-104.75
T5
X162.348Y-97.15
X162.348Y-104.75
X167.348Y-97.15
X167.348Y-104.75
T6
X79.462Y-144.6
X88.962Y-138.25
X151.9Y-119.425
X152.037Y-144.425
X161.4Y-113.075
X161.537Y-138.075
T7
X103.41Y-141.75
X111.03Y-141.75
X126.5Y-84.645
X126.5Y-92.265
X126.5Y-111.235
X126.5Y-118.855
X130.0Y-141.75
X137.62Y-141.75
M30
