%TF.GenerationSoftware,KiCad,Pcbnew,8.0.7*%
%TF.CreationDate,2025-01-14T10:08:52+01:00*%
%TF.ProjectId,pv_test_station,70765f74-6573-4745-9f73-746174696f6e,rev?*%
%TF.SameCoordinates,Original*%
%TF.FileFunction,Legend,Top*%
%TF.FilePolarity,Positive*%
%FSLAX46Y46*%
G04 Gerber Fmt 4.6, Leading zero omitted, Abs format (unit mm)*
G04 Created by KiCad (PCBNEW 8.0.7) date 2025-01-14 10:08:52*
%MOMM*%
%LPD*%
G01*
G04 APERTURE LIST*
G04 Aperture macros list*
%AMRoundRect*
0 Rectangle with rounded corners*
0 $1 Rounding radius*
0 $2 $3 $4 $5 $6 $7 $8 $9 X,Y pos of 4 corners*
0 Add a 4 corners polygon primitive as box body*
4,1,4,$2,$3,$4,$5,$6,$7,$8,$9,$2,$3,0*
0 Add four circle primitives for the rounded corners*
1,1,$1+$1,$2,$3*
1,1,$1+$1,$4,$5*
1,1,$1+$1,$6,$7*
1,1,$1+$1,$8,$9*
0 Add four rect primitives between the rounded corners*
20,1,$1+$1,$2,$3,$4,$5,0*
20,1,$1+$1,$4,$5,$6,$7,0*
20,1,$1+$1,$6,$7,$8,$9,0*
20,1,$1+$1,$8,$9,$2,$3,0*%
G04 Aperture macros list end*
%ADD10C,0.350000*%
%ADD11C,0.300000*%
%ADD12C,0.150000*%
%ADD13C,0.100000*%
%ADD14C,0.254000*%
%ADD15C,0.120000*%
%ADD16C,0.152400*%
%ADD17C,0.200000*%
%ADD18C,0.127000*%
%ADD19RoundRect,1.500000X-2.500000X-1.500000X2.500000X-1.500000X2.500000X1.500000X-2.500000X1.500000X0*%
%ADD20RoundRect,0.200000X-0.200000X-0.275000X0.200000X-0.275000X0.200000X0.275000X-0.200000X0.275000X0*%
%ADD21R,0.406400X0.753100*%
%ADD22RoundRect,0.070000X-0.650000X-0.300000X0.650000X-0.300000X0.650000X0.300000X-0.650000X0.300000X0*%
%ADD23R,0.650000X1.525000*%
%ADD24RoundRect,0.225000X0.225000X0.250000X-0.225000X0.250000X-0.225000X-0.250000X0.225000X-0.250000X0*%
%ADD25RoundRect,0.875000X-0.875000X-0.875000X0.875000X-0.875000X0.875000X0.875000X-0.875000X0.875000X0*%
%ADD26C,3.500000*%
%ADD27RoundRect,0.150000X-0.625000X0.150000X-0.625000X-0.150000X0.625000X-0.150000X0.625000X0.150000X0*%
%ADD28RoundRect,0.250000X-0.650000X0.350000X-0.650000X-0.350000X0.650000X-0.350000X0.650000X0.350000X0*%
%ADD29R,1.700000X1.700000*%
%ADD30O,1.700000X1.700000*%
%ADD31RoundRect,0.102000X1.275000X-1.275000X1.275000X1.275000X-1.275000X1.275000X-1.275000X-1.275000X0*%
%ADD32C,2.754000*%
%ADD33RoundRect,0.200000X0.200000X0.275000X-0.200000X0.275000X-0.200000X-0.275000X0.200000X-0.275000X0*%
%ADD34RoundRect,0.875000X0.875000X-0.875000X0.875000X0.875000X-0.875000X0.875000X-0.875000X-0.875000X0*%
%ADD35R,1.800000X1.800000*%
%ADD36C,1.800000*%
%ADD37C,2.250000*%
%ADD38RoundRect,0.250000X0.550000X-1.050000X0.550000X1.050000X-0.550000X1.050000X-0.550000X-1.050000X0*%
%ADD39O,1.600000X2.600000*%
%ADD40O,2.600000X1.600000*%
%ADD41RoundRect,0.102000X-1.275000X1.275000X-1.275000X-1.275000X1.275000X-1.275000X1.275000X1.275000X0*%
G04 APERTURE END LIST*
D10*
X134675000Y-131750000D02*
G75*
G02*
X134325000Y-131750000I-175000J0D01*
G01*
X134325000Y-131750000D02*
G75*
G02*
X134675000Y-131750000I175000J0D01*
G01*
D11*
X162304510Y-149979400D02*
X163447368Y-149979400D01*
X77054510Y-149979400D02*
X78197368Y-149979400D01*
D12*
X102203152Y-75663220D02*
X103203152Y-75663220D01*
X102250771Y-75663220D02*
X102203152Y-75567982D01*
X102203152Y-75567982D02*
X102203152Y-75377506D01*
X102203152Y-75377506D02*
X102250771Y-75282268D01*
X102250771Y-75282268D02*
X102298390Y-75234649D01*
X102298390Y-75234649D02*
X102393628Y-75187030D01*
X102393628Y-75187030D02*
X102679342Y-75187030D01*
X102679342Y-75187030D02*
X102774580Y-75234649D01*
X102774580Y-75234649D02*
X102822200Y-75282268D01*
X102822200Y-75282268D02*
X102869819Y-75377506D01*
X102869819Y-75377506D02*
X102869819Y-75567982D01*
X102869819Y-75567982D02*
X102822200Y-75663220D01*
X102203152Y-74329887D02*
X102869819Y-74329887D01*
X102203152Y-74758458D02*
X102726961Y-74758458D01*
X102726961Y-74758458D02*
X102822200Y-74710839D01*
X102822200Y-74710839D02*
X102869819Y-74615601D01*
X102869819Y-74615601D02*
X102869819Y-74472744D01*
X102869819Y-74472744D02*
X102822200Y-74377506D01*
X102822200Y-74377506D02*
X102774580Y-74329887D01*
X102869819Y-73710839D02*
X102822200Y-73806077D01*
X102822200Y-73806077D02*
X102726961Y-73853696D01*
X102726961Y-73853696D02*
X101869819Y-73853696D01*
X102869819Y-73187029D02*
X102822200Y-73282267D01*
X102822200Y-73282267D02*
X102726961Y-73329886D01*
X102726961Y-73329886D02*
X101869819Y-73329886D01*
X102203152Y-71615600D02*
X102869819Y-71615600D01*
X102203152Y-72044171D02*
X102726961Y-72044171D01*
X102726961Y-72044171D02*
X102822200Y-71996552D01*
X102822200Y-71996552D02*
X102869819Y-71901314D01*
X102869819Y-71901314D02*
X102869819Y-71758457D01*
X102869819Y-71758457D02*
X102822200Y-71663219D01*
X102822200Y-71663219D02*
X102774580Y-71615600D01*
X102203152Y-71139409D02*
X103203152Y-71139409D01*
X102250771Y-71139409D02*
X102203152Y-71044171D01*
X102203152Y-71044171D02*
X102203152Y-70853695D01*
X102203152Y-70853695D02*
X102250771Y-70758457D01*
X102250771Y-70758457D02*
X102298390Y-70710838D01*
X102298390Y-70710838D02*
X102393628Y-70663219D01*
X102393628Y-70663219D02*
X102679342Y-70663219D01*
X102679342Y-70663219D02*
X102774580Y-70710838D01*
X102774580Y-70710838D02*
X102822200Y-70758457D01*
X102822200Y-70758457D02*
X102869819Y-70853695D01*
X102869819Y-70853695D02*
X102869819Y-71044171D01*
X102869819Y-71044171D02*
X102822200Y-71139409D01*
D11*
X81054510Y-126479400D02*
X82197368Y-126479400D01*
X81625939Y-127050828D02*
X81625939Y-125907971D01*
X166554510Y-132229400D02*
X167697368Y-132229400D01*
X167125939Y-132800828D02*
X167125939Y-131657971D01*
X106554510Y-105979400D02*
X107697368Y-105979400D01*
X107268796Y-126050828D02*
X106554510Y-126050828D01*
X106554510Y-126050828D02*
X106483082Y-126765114D01*
X106483082Y-126765114D02*
X106554510Y-126693685D01*
X106554510Y-126693685D02*
X106697368Y-126622257D01*
X106697368Y-126622257D02*
X107054510Y-126622257D01*
X107054510Y-126622257D02*
X107197368Y-126693685D01*
X107197368Y-126693685D02*
X107268796Y-126765114D01*
X107268796Y-126765114D02*
X107340225Y-126907971D01*
X107340225Y-126907971D02*
X107340225Y-127265114D01*
X107340225Y-127265114D02*
X107268796Y-127407971D01*
X107268796Y-127407971D02*
X107197368Y-127479400D01*
X107197368Y-127479400D02*
X107054510Y-127550828D01*
X107054510Y-127550828D02*
X106697368Y-127550828D01*
X106697368Y-127550828D02*
X106554510Y-127479400D01*
X106554510Y-127479400D02*
X106483082Y-127407971D01*
X107768796Y-126050828D02*
X108268796Y-127550828D01*
X108268796Y-127550828D02*
X108768796Y-126050828D01*
X77054510Y-132479400D02*
X78197368Y-132479400D01*
X77625939Y-133050828D02*
X77625939Y-131907971D01*
D13*
X91738095Y-113707419D02*
X91738095Y-114516942D01*
X91738095Y-114516942D02*
X91785714Y-114612180D01*
X91785714Y-114612180D02*
X91833333Y-114659800D01*
X91833333Y-114659800D02*
X91928571Y-114707419D01*
X91928571Y-114707419D02*
X92119047Y-114707419D01*
X92119047Y-114707419D02*
X92214285Y-114659800D01*
X92214285Y-114659800D02*
X92261904Y-114612180D01*
X92261904Y-114612180D02*
X92309523Y-114516942D01*
X92309523Y-114516942D02*
X92309523Y-113707419D01*
X93309523Y-114707419D02*
X92738095Y-114707419D01*
X93023809Y-114707419D02*
X93023809Y-113707419D01*
X93023809Y-113707419D02*
X92928571Y-113850276D01*
X92928571Y-113850276D02*
X92833333Y-113945514D01*
X92833333Y-113945514D02*
X92738095Y-113993133D01*
D12*
X135704819Y-104238094D02*
X134704819Y-104238094D01*
X134704819Y-104238094D02*
X134704819Y-103999999D01*
X134704819Y-103999999D02*
X134752438Y-103857142D01*
X134752438Y-103857142D02*
X134847676Y-103761904D01*
X134847676Y-103761904D02*
X134942914Y-103714285D01*
X134942914Y-103714285D02*
X135133390Y-103666666D01*
X135133390Y-103666666D02*
X135276247Y-103666666D01*
X135276247Y-103666666D02*
X135466723Y-103714285D01*
X135466723Y-103714285D02*
X135561961Y-103761904D01*
X135561961Y-103761904D02*
X135657200Y-103857142D01*
X135657200Y-103857142D02*
X135704819Y-103999999D01*
X135704819Y-103999999D02*
X135704819Y-104238094D01*
X135704819Y-102714285D02*
X135704819Y-103285713D01*
X135704819Y-102999999D02*
X134704819Y-102999999D01*
X134704819Y-102999999D02*
X134847676Y-103095237D01*
X134847676Y-103095237D02*
X134942914Y-103190475D01*
X134942914Y-103190475D02*
X134990533Y-103285713D01*
X133454819Y-104999999D02*
X133692914Y-104999999D01*
X133597676Y-105238094D02*
X133692914Y-104999999D01*
X133692914Y-104999999D02*
X133597676Y-104761904D01*
X133883390Y-105142856D02*
X133692914Y-104999999D01*
X133692914Y-104999999D02*
X133883390Y-104857142D01*
X135179761Y-95675057D02*
X135084523Y-95627438D01*
X135084523Y-95627438D02*
X134989285Y-95532200D01*
X134989285Y-95532200D02*
X134846428Y-95389342D01*
X134846428Y-95389342D02*
X134751190Y-95341723D01*
X134751190Y-95341723D02*
X134655952Y-95341723D01*
X134703571Y-95579819D02*
X134608333Y-95532200D01*
X134608333Y-95532200D02*
X134513095Y-95436961D01*
X134513095Y-95436961D02*
X134465476Y-95246485D01*
X134465476Y-95246485D02*
X134465476Y-94913152D01*
X134465476Y-94913152D02*
X134513095Y-94722676D01*
X134513095Y-94722676D02*
X134608333Y-94627438D01*
X134608333Y-94627438D02*
X134703571Y-94579819D01*
X134703571Y-94579819D02*
X134894047Y-94579819D01*
X134894047Y-94579819D02*
X134989285Y-94627438D01*
X134989285Y-94627438D02*
X135084523Y-94722676D01*
X135084523Y-94722676D02*
X135132142Y-94913152D01*
X135132142Y-94913152D02*
X135132142Y-95246485D01*
X135132142Y-95246485D02*
X135084523Y-95436961D01*
X135084523Y-95436961D02*
X134989285Y-95532200D01*
X134989285Y-95532200D02*
X134894047Y-95579819D01*
X134894047Y-95579819D02*
X134703571Y-95579819D01*
X136084523Y-95579819D02*
X135513095Y-95579819D01*
X135798809Y-95579819D02*
X135798809Y-94579819D01*
X135798809Y-94579819D02*
X135703571Y-94722676D01*
X135703571Y-94722676D02*
X135608333Y-94817914D01*
X135608333Y-94817914D02*
X135513095Y-94865533D01*
D14*
X138669318Y-131701762D02*
X137399318Y-131701762D01*
X138548365Y-130371285D02*
X138608842Y-130431761D01*
X138608842Y-130431761D02*
X138669318Y-130613190D01*
X138669318Y-130613190D02*
X138669318Y-130734142D01*
X138669318Y-130734142D02*
X138608842Y-130915571D01*
X138608842Y-130915571D02*
X138487889Y-131036523D01*
X138487889Y-131036523D02*
X138366937Y-131097000D01*
X138366937Y-131097000D02*
X138125032Y-131157476D01*
X138125032Y-131157476D02*
X137943603Y-131157476D01*
X137943603Y-131157476D02*
X137701699Y-131097000D01*
X137701699Y-131097000D02*
X137580746Y-131036523D01*
X137580746Y-131036523D02*
X137459794Y-130915571D01*
X137459794Y-130915571D02*
X137399318Y-130734142D01*
X137399318Y-130734142D02*
X137399318Y-130613190D01*
X137399318Y-130613190D02*
X137459794Y-130431761D01*
X137459794Y-130431761D02*
X137520270Y-130371285D01*
X138669318Y-129161761D02*
X138669318Y-129887476D01*
X138669318Y-129524619D02*
X137399318Y-129524619D01*
X137399318Y-129524619D02*
X137580746Y-129645571D01*
X137580746Y-129645571D02*
X137701699Y-129766523D01*
X137701699Y-129766523D02*
X137762175Y-129887476D01*
D12*
X137833333Y-124359580D02*
X137785714Y-124407200D01*
X137785714Y-124407200D02*
X137642857Y-124454819D01*
X137642857Y-124454819D02*
X137547619Y-124454819D01*
X137547619Y-124454819D02*
X137404762Y-124407200D01*
X137404762Y-124407200D02*
X137309524Y-124311961D01*
X137309524Y-124311961D02*
X137261905Y-124216723D01*
X137261905Y-124216723D02*
X137214286Y-124026247D01*
X137214286Y-124026247D02*
X137214286Y-123883390D01*
X137214286Y-123883390D02*
X137261905Y-123692914D01*
X137261905Y-123692914D02*
X137309524Y-123597676D01*
X137309524Y-123597676D02*
X137404762Y-123502438D01*
X137404762Y-123502438D02*
X137547619Y-123454819D01*
X137547619Y-123454819D02*
X137642857Y-123454819D01*
X137642857Y-123454819D02*
X137785714Y-123502438D01*
X137785714Y-123502438D02*
X137833333Y-123550057D01*
X138785714Y-124454819D02*
X138214286Y-124454819D01*
X138500000Y-124454819D02*
X138500000Y-123454819D01*
X138500000Y-123454819D02*
X138404762Y-123597676D01*
X138404762Y-123597676D02*
X138309524Y-123692914D01*
X138309524Y-123692914D02*
X138214286Y-123740533D01*
X120176666Y-136681009D02*
X119843333Y-136681009D01*
X119843333Y-137204819D02*
X119843333Y-136204819D01*
X119843333Y-136204819D02*
X120319523Y-136204819D01*
X121224285Y-137204819D02*
X120652857Y-137204819D01*
X120938571Y-137204819D02*
X120938571Y-136204819D01*
X120938571Y-136204819D02*
X120843333Y-136347676D01*
X120843333Y-136347676D02*
X120748095Y-136442914D01*
X120748095Y-136442914D02*
X120652857Y-136490533D01*
X73454819Y-59833333D02*
X74169104Y-59833333D01*
X74169104Y-59833333D02*
X74311961Y-59880952D01*
X74311961Y-59880952D02*
X74407200Y-59976190D01*
X74407200Y-59976190D02*
X74454819Y-60119047D01*
X74454819Y-60119047D02*
X74454819Y-60214285D01*
X73454819Y-58880952D02*
X73454819Y-59357142D01*
X73454819Y-59357142D02*
X73931009Y-59404761D01*
X73931009Y-59404761D02*
X73883390Y-59357142D01*
X73883390Y-59357142D02*
X73835771Y-59261904D01*
X73835771Y-59261904D02*
X73835771Y-59023809D01*
X73835771Y-59023809D02*
X73883390Y-58928571D01*
X73883390Y-58928571D02*
X73931009Y-58880952D01*
X73931009Y-58880952D02*
X74026247Y-58833333D01*
X74026247Y-58833333D02*
X74264342Y-58833333D01*
X74264342Y-58833333D02*
X74359580Y-58880952D01*
X74359580Y-58880952D02*
X74407200Y-58928571D01*
X74407200Y-58928571D02*
X74454819Y-59023809D01*
X74454819Y-59023809D02*
X74454819Y-59261904D01*
X74454819Y-59261904D02*
X74407200Y-59357142D01*
X74407200Y-59357142D02*
X74359580Y-59404761D01*
X94166666Y-54604819D02*
X94166666Y-55319104D01*
X94166666Y-55319104D02*
X94119047Y-55461961D01*
X94119047Y-55461961D02*
X94023809Y-55557200D01*
X94023809Y-55557200D02*
X93880952Y-55604819D01*
X93880952Y-55604819D02*
X93785714Y-55604819D01*
X95071428Y-54938152D02*
X95071428Y-55604819D01*
X94833333Y-54557200D02*
X94595238Y-55271485D01*
X94595238Y-55271485D02*
X95214285Y-55271485D01*
X160954819Y-144333333D02*
X161669104Y-144333333D01*
X161669104Y-144333333D02*
X161811961Y-144380952D01*
X161811961Y-144380952D02*
X161907200Y-144476190D01*
X161907200Y-144476190D02*
X161954819Y-144619047D01*
X161954819Y-144619047D02*
X161954819Y-144714285D01*
X161050057Y-143904761D02*
X161002438Y-143857142D01*
X161002438Y-143857142D02*
X160954819Y-143761904D01*
X160954819Y-143761904D02*
X160954819Y-143523809D01*
X160954819Y-143523809D02*
X161002438Y-143428571D01*
X161002438Y-143428571D02*
X161050057Y-143380952D01*
X161050057Y-143380952D02*
X161145295Y-143333333D01*
X161145295Y-143333333D02*
X161240533Y-143333333D01*
X161240533Y-143333333D02*
X161383390Y-143380952D01*
X161383390Y-143380952D02*
X161954819Y-143952380D01*
X161954819Y-143952380D02*
X161954819Y-143333333D01*
X136083333Y-149384819D02*
X135750000Y-148908628D01*
X135511905Y-149384819D02*
X135511905Y-148384819D01*
X135511905Y-148384819D02*
X135892857Y-148384819D01*
X135892857Y-148384819D02*
X135988095Y-148432438D01*
X135988095Y-148432438D02*
X136035714Y-148480057D01*
X136035714Y-148480057D02*
X136083333Y-148575295D01*
X136083333Y-148575295D02*
X136083333Y-148718152D01*
X136083333Y-148718152D02*
X136035714Y-148813390D01*
X136035714Y-148813390D02*
X135988095Y-148861009D01*
X135988095Y-148861009D02*
X135892857Y-148908628D01*
X135892857Y-148908628D02*
X135511905Y-148908628D01*
X137035714Y-149384819D02*
X136464286Y-149384819D01*
X136750000Y-149384819D02*
X136750000Y-148384819D01*
X136750000Y-148384819D02*
X136654762Y-148527676D01*
X136654762Y-148527676D02*
X136559524Y-148622914D01*
X136559524Y-148622914D02*
X136464286Y-148670533D01*
X126431009Y-102083333D02*
X126431009Y-102416666D01*
X126954819Y-102416666D02*
X125954819Y-102416666D01*
X125954819Y-102416666D02*
X125954819Y-101940476D01*
X126050057Y-101607142D02*
X126002438Y-101559523D01*
X126002438Y-101559523D02*
X125954819Y-101464285D01*
X125954819Y-101464285D02*
X125954819Y-101226190D01*
X125954819Y-101226190D02*
X126002438Y-101130952D01*
X126002438Y-101130952D02*
X126050057Y-101083333D01*
X126050057Y-101083333D02*
X126145295Y-101035714D01*
X126145295Y-101035714D02*
X126240533Y-101035714D01*
X126240533Y-101035714D02*
X126383390Y-101083333D01*
X126383390Y-101083333D02*
X126954819Y-101654761D01*
X126954819Y-101654761D02*
X126954819Y-101035714D01*
X74564819Y-68833333D02*
X75279104Y-68833333D01*
X75279104Y-68833333D02*
X75421961Y-68880952D01*
X75421961Y-68880952D02*
X75517200Y-68976190D01*
X75517200Y-68976190D02*
X75564819Y-69119047D01*
X75564819Y-69119047D02*
X75564819Y-69214285D01*
X74564819Y-67928571D02*
X74564819Y-68119047D01*
X74564819Y-68119047D02*
X74612438Y-68214285D01*
X74612438Y-68214285D02*
X74660057Y-68261904D01*
X74660057Y-68261904D02*
X74802914Y-68357142D01*
X74802914Y-68357142D02*
X74993390Y-68404761D01*
X74993390Y-68404761D02*
X75374342Y-68404761D01*
X75374342Y-68404761D02*
X75469580Y-68357142D01*
X75469580Y-68357142D02*
X75517200Y-68309523D01*
X75517200Y-68309523D02*
X75564819Y-68214285D01*
X75564819Y-68214285D02*
X75564819Y-68023809D01*
X75564819Y-68023809D02*
X75517200Y-67928571D01*
X75517200Y-67928571D02*
X75469580Y-67880952D01*
X75469580Y-67880952D02*
X75374342Y-67833333D01*
X75374342Y-67833333D02*
X75136247Y-67833333D01*
X75136247Y-67833333D02*
X75041009Y-67880952D01*
X75041009Y-67880952D02*
X74993390Y-67928571D01*
X74993390Y-67928571D02*
X74945771Y-68023809D01*
X74945771Y-68023809D02*
X74945771Y-68214285D01*
X74945771Y-68214285D02*
X74993390Y-68309523D01*
X74993390Y-68309523D02*
X75041009Y-68357142D01*
X75041009Y-68357142D02*
X75136247Y-68404761D01*
D14*
X152960268Y-101524318D02*
X152960268Y-100254318D01*
X153685983Y-101524318D02*
X153141697Y-100798603D01*
X153685983Y-100254318D02*
X152960268Y-100980032D01*
X154895507Y-101524318D02*
X154169792Y-101524318D01*
X154532649Y-101524318D02*
X154532649Y-100254318D01*
X154532649Y-100254318D02*
X154411697Y-100435746D01*
X154411697Y-100435746D02*
X154290745Y-100556699D01*
X154290745Y-100556699D02*
X154169792Y-100617175D01*
D12*
X73690476Y-118559819D02*
X73690476Y-119274104D01*
X73690476Y-119274104D02*
X73642857Y-119416961D01*
X73642857Y-119416961D02*
X73547619Y-119512200D01*
X73547619Y-119512200D02*
X73404762Y-119559819D01*
X73404762Y-119559819D02*
X73309524Y-119559819D01*
X74690476Y-119559819D02*
X74119048Y-119559819D01*
X74404762Y-119559819D02*
X74404762Y-118559819D01*
X74404762Y-118559819D02*
X74309524Y-118702676D01*
X74309524Y-118702676D02*
X74214286Y-118797914D01*
X74214286Y-118797914D02*
X74119048Y-118845533D01*
X75309524Y-118559819D02*
X75404762Y-118559819D01*
X75404762Y-118559819D02*
X75500000Y-118607438D01*
X75500000Y-118607438D02*
X75547619Y-118655057D01*
X75547619Y-118655057D02*
X75595238Y-118750295D01*
X75595238Y-118750295D02*
X75642857Y-118940771D01*
X75642857Y-118940771D02*
X75642857Y-119178866D01*
X75642857Y-119178866D02*
X75595238Y-119369342D01*
X75595238Y-119369342D02*
X75547619Y-119464580D01*
X75547619Y-119464580D02*
X75500000Y-119512200D01*
X75500000Y-119512200D02*
X75404762Y-119559819D01*
X75404762Y-119559819D02*
X75309524Y-119559819D01*
X75309524Y-119559819D02*
X75214286Y-119512200D01*
X75214286Y-119512200D02*
X75166667Y-119464580D01*
X75166667Y-119464580D02*
X75119048Y-119369342D01*
X75119048Y-119369342D02*
X75071429Y-119178866D01*
X75071429Y-119178866D02*
X75071429Y-118940771D01*
X75071429Y-118940771D02*
X75119048Y-118750295D01*
X75119048Y-118750295D02*
X75166667Y-118655057D01*
X75166667Y-118655057D02*
X75214286Y-118607438D01*
X75214286Y-118607438D02*
X75309524Y-118559819D01*
X131583333Y-149384819D02*
X131250000Y-148908628D01*
X131011905Y-149384819D02*
X131011905Y-148384819D01*
X131011905Y-148384819D02*
X131392857Y-148384819D01*
X131392857Y-148384819D02*
X131488095Y-148432438D01*
X131488095Y-148432438D02*
X131535714Y-148480057D01*
X131535714Y-148480057D02*
X131583333Y-148575295D01*
X131583333Y-148575295D02*
X131583333Y-148718152D01*
X131583333Y-148718152D02*
X131535714Y-148813390D01*
X131535714Y-148813390D02*
X131488095Y-148861009D01*
X131488095Y-148861009D02*
X131392857Y-148908628D01*
X131392857Y-148908628D02*
X131011905Y-148908628D01*
X131964286Y-148480057D02*
X132011905Y-148432438D01*
X132011905Y-148432438D02*
X132107143Y-148384819D01*
X132107143Y-148384819D02*
X132345238Y-148384819D01*
X132345238Y-148384819D02*
X132440476Y-148432438D01*
X132440476Y-148432438D02*
X132488095Y-148480057D01*
X132488095Y-148480057D02*
X132535714Y-148575295D01*
X132535714Y-148575295D02*
X132535714Y-148670533D01*
X132535714Y-148670533D02*
X132488095Y-148813390D01*
X132488095Y-148813390D02*
X131916667Y-149384819D01*
X131916667Y-149384819D02*
X132535714Y-149384819D01*
X160704819Y-119583333D02*
X161419104Y-119583333D01*
X161419104Y-119583333D02*
X161561961Y-119630952D01*
X161561961Y-119630952D02*
X161657200Y-119726190D01*
X161657200Y-119726190D02*
X161704819Y-119869047D01*
X161704819Y-119869047D02*
X161704819Y-119964285D01*
X160704819Y-119202380D02*
X160704819Y-118583333D01*
X160704819Y-118583333D02*
X161085771Y-118916666D01*
X161085771Y-118916666D02*
X161085771Y-118773809D01*
X161085771Y-118773809D02*
X161133390Y-118678571D01*
X161133390Y-118678571D02*
X161181009Y-118630952D01*
X161181009Y-118630952D02*
X161276247Y-118583333D01*
X161276247Y-118583333D02*
X161514342Y-118583333D01*
X161514342Y-118583333D02*
X161609580Y-118630952D01*
X161609580Y-118630952D02*
X161657200Y-118678571D01*
X161657200Y-118678571D02*
X161704819Y-118773809D01*
X161704819Y-118773809D02*
X161704819Y-119059523D01*
X161704819Y-119059523D02*
X161657200Y-119154761D01*
X161657200Y-119154761D02*
X161609580Y-119202380D01*
X74604819Y-74833333D02*
X75319104Y-74833333D01*
X75319104Y-74833333D02*
X75461961Y-74880952D01*
X75461961Y-74880952D02*
X75557200Y-74976190D01*
X75557200Y-74976190D02*
X75604819Y-75119047D01*
X75604819Y-75119047D02*
X75604819Y-75214285D01*
X74604819Y-74452380D02*
X74604819Y-73785714D01*
X74604819Y-73785714D02*
X75604819Y-74214285D01*
X115869104Y-66484285D02*
X115869104Y-66008095D01*
X116154819Y-66579523D02*
X115154819Y-66246190D01*
X115154819Y-66246190D02*
X116154819Y-65912857D01*
X116154819Y-65055714D02*
X116154819Y-65627142D01*
X116154819Y-65341428D02*
X115154819Y-65341428D01*
X115154819Y-65341428D02*
X115297676Y-65436666D01*
X115297676Y-65436666D02*
X115392914Y-65531904D01*
X115392914Y-65531904D02*
X115440533Y-65627142D01*
X78704819Y-139833333D02*
X79419104Y-139833333D01*
X79419104Y-139833333D02*
X79561961Y-139880952D01*
X79561961Y-139880952D02*
X79657200Y-139976190D01*
X79657200Y-139976190D02*
X79704819Y-140119047D01*
X79704819Y-140119047D02*
X79704819Y-140214285D01*
X79704819Y-138833333D02*
X79704819Y-139404761D01*
X79704819Y-139119047D02*
X78704819Y-139119047D01*
X78704819Y-139119047D02*
X78847676Y-139214285D01*
X78847676Y-139214285D02*
X78942914Y-139309523D01*
X78942914Y-139309523D02*
X78990533Y-139404761D01*
X94166666Y-99724819D02*
X94166666Y-100439104D01*
X94166666Y-100439104D02*
X94119047Y-100581961D01*
X94119047Y-100581961D02*
X94023809Y-100677200D01*
X94023809Y-100677200D02*
X93880952Y-100724819D01*
X93880952Y-100724819D02*
X93785714Y-100724819D01*
X94690476Y-100724819D02*
X94880952Y-100724819D01*
X94880952Y-100724819D02*
X94976190Y-100677200D01*
X94976190Y-100677200D02*
X95023809Y-100629580D01*
X95023809Y-100629580D02*
X95119047Y-100486723D01*
X95119047Y-100486723D02*
X95166666Y-100296247D01*
X95166666Y-100296247D02*
X95166666Y-99915295D01*
X95166666Y-99915295D02*
X95119047Y-99820057D01*
X95119047Y-99820057D02*
X95071428Y-99772438D01*
X95071428Y-99772438D02*
X94976190Y-99724819D01*
X94976190Y-99724819D02*
X94785714Y-99724819D01*
X94785714Y-99724819D02*
X94690476Y-99772438D01*
X94690476Y-99772438D02*
X94642857Y-99820057D01*
X94642857Y-99820057D02*
X94595238Y-99915295D01*
X94595238Y-99915295D02*
X94595238Y-100153390D01*
X94595238Y-100153390D02*
X94642857Y-100248628D01*
X94642857Y-100248628D02*
X94690476Y-100296247D01*
X94690476Y-100296247D02*
X94785714Y-100343866D01*
X94785714Y-100343866D02*
X94976190Y-100343866D01*
X94976190Y-100343866D02*
X95071428Y-100296247D01*
X95071428Y-100296247D02*
X95119047Y-100248628D01*
X95119047Y-100248628D02*
X95166666Y-100153390D01*
%TO.C,U1*%
D13*
X81500000Y-108250000D02*
X103500000Y-108250000D01*
X103500000Y-124850000D01*
X81500000Y-124850000D01*
X81500000Y-108250000D01*
D15*
%TO.C,R4*%
X99937742Y-72727500D02*
X100412258Y-72727500D01*
X99937742Y-73772500D02*
X100412258Y-73772500D01*
D16*
%TO.C,D1*%
X134399100Y-102420500D02*
X134399100Y-104579500D01*
X134399100Y-104579500D02*
X134714060Y-104579500D01*
X134714060Y-102420500D02*
X134399100Y-102420500D01*
X135785940Y-104579500D02*
X136100900Y-104579500D01*
X136100900Y-102420500D02*
X135785940Y-102420500D01*
X136100900Y-104579500D02*
X136100900Y-102420500D01*
D13*
%TO.C,Q1*%
X134425000Y-97125000D02*
X134425000Y-97175000D01*
X134425000Y-97175000D02*
X133650000Y-97175000D01*
X134425000Y-100150000D02*
X134425000Y-99800000D01*
X134800000Y-96850000D02*
X134425000Y-97125000D01*
X134900000Y-100150000D02*
X134425000Y-100150000D01*
X135075000Y-96850000D02*
X134800000Y-96850000D01*
X135700000Y-96850000D02*
X136075000Y-96850000D01*
X136075000Y-96850000D02*
X136075000Y-97150000D01*
X136075000Y-99850000D02*
X136075000Y-100150000D01*
X136075000Y-99925000D02*
X136075000Y-99800000D01*
X136075000Y-100150000D02*
X135625000Y-100150000D01*
D17*
%TO.C,IC1*%
X135515000Y-133937000D02*
X135515000Y-132412000D01*
X135650000Y-128862000D02*
X140540000Y-128862000D01*
X135650000Y-132062000D02*
X135650000Y-128862000D01*
X140540000Y-128862000D02*
X140540000Y-132062000D01*
X140540000Y-132062000D02*
X135650000Y-132062000D01*
D15*
%TO.C,C1*%
X138390580Y-124990000D02*
X138109420Y-124990000D01*
X138390580Y-126010000D02*
X138109420Y-126010000D01*
%TO.C,F1*%
X103225000Y-137560000D02*
X103225000Y-139750000D01*
X103225000Y-145940000D02*
X103225000Y-143750000D01*
X111260000Y-137560000D02*
X103225000Y-137560000D01*
X111260000Y-137560000D02*
X111260000Y-139750000D01*
X111260000Y-145940000D02*
X103225000Y-145940000D01*
X111260000Y-145940000D02*
X111260000Y-143750000D01*
X129770000Y-137560000D02*
X129770000Y-139750000D01*
X129770000Y-138575000D02*
X111260000Y-138575000D01*
X129770000Y-144925000D02*
X111260000Y-144925000D01*
X129770000Y-145940000D02*
X129770000Y-143750000D01*
X129770000Y-145940000D02*
X137850000Y-145940000D01*
X137850000Y-137560000D02*
X129770000Y-137560000D01*
X137850000Y-139750000D02*
X137850000Y-137560000D01*
X137850000Y-143750000D02*
X137850000Y-145940000D01*
%TO.C,J5*%
X71315000Y-57560000D02*
X71315000Y-61440000D01*
X73285000Y-56390000D02*
X75785000Y-56390000D01*
X73285000Y-62610000D02*
X75785000Y-62610000D01*
X75785000Y-56390000D02*
X75785000Y-57440000D01*
X75785000Y-57440000D02*
X76775000Y-57440000D01*
X75785000Y-62610000D02*
X75785000Y-61560000D01*
%TO.C,J4*%
X93170000Y-59190000D02*
X93170000Y-77030000D01*
X93170000Y-59190000D02*
X95830000Y-59190000D01*
X93170000Y-77030000D02*
X95830000Y-77030000D01*
X94500000Y-56590000D02*
X95830000Y-56590000D01*
X95830000Y-56590000D02*
X95830000Y-57920000D01*
X95830000Y-59190000D02*
X95830000Y-77030000D01*
D18*
%TO.C,J2*%
X149387500Y-134500000D02*
X170137500Y-134500000D01*
X149387500Y-148000000D02*
X149387500Y-134500000D01*
X170137500Y-134500000D02*
X170137500Y-148000000D01*
X170137500Y-148000000D02*
X149387500Y-148000000D01*
D17*
X148887500Y-144425000D02*
G75*
G02*
X148687500Y-144425000I-100000J0D01*
G01*
X148687500Y-144425000D02*
G75*
G02*
X148887500Y-144425000I100000J0D01*
G01*
D15*
%TO.C,R1*%
X136487258Y-146977500D02*
X136012742Y-146977500D01*
X136487258Y-148022500D02*
X136012742Y-148022500D01*
%TO.C,F2*%
X122310000Y-84415000D02*
X122310000Y-92495000D01*
X122310000Y-92495000D02*
X124500000Y-92495000D01*
X122310000Y-111005000D02*
X122310000Y-119040000D01*
X122310000Y-111005000D02*
X124500000Y-111005000D01*
X122310000Y-119040000D02*
X124500000Y-119040000D01*
X123325000Y-92495000D02*
X123325000Y-111005000D01*
X124500000Y-84415000D02*
X122310000Y-84415000D01*
X128500000Y-84415000D02*
X130690000Y-84415000D01*
X129675000Y-92495000D02*
X129675000Y-111005000D01*
X130690000Y-92495000D02*
X128500000Y-92495000D01*
X130690000Y-92495000D02*
X130690000Y-84415000D01*
X130690000Y-111005000D02*
X128500000Y-111005000D01*
X130690000Y-111005000D02*
X130690000Y-119040000D01*
X130690000Y-119040000D02*
X128500000Y-119040000D01*
%TO.C,R3*%
X99937742Y-70227500D02*
X100412258Y-70227500D01*
X99937742Y-71272500D02*
X100412258Y-71272500D01*
%TO.C,J6*%
X76550000Y-67170000D02*
X77880000Y-67170000D01*
X76550000Y-68500000D02*
X76550000Y-67170000D01*
X79150000Y-67170000D02*
X86830000Y-67170000D01*
X79150000Y-69830000D02*
X79150000Y-67170000D01*
X79150000Y-69830000D02*
X86830000Y-69830000D01*
X86830000Y-69830000D02*
X86830000Y-67170000D01*
D13*
%TO.C,K1*%
X138547650Y-104750000D02*
X138547650Y-104750000D01*
X138647650Y-104750000D02*
X138647650Y-104750000D01*
D17*
X139247650Y-94600000D02*
X168547650Y-94600000D01*
X139247650Y-107300000D02*
X139247650Y-94600000D01*
X168547650Y-94600000D02*
X168547650Y-95553000D01*
X168547650Y-97950000D02*
X168547650Y-103750000D01*
X168547650Y-106030000D02*
X168547650Y-107300000D01*
X168547650Y-107300000D02*
X139247650Y-107300000D01*
D13*
X138547650Y-104750000D02*
G75*
G02*
X138647650Y-104750000I50000J0D01*
G01*
X138647650Y-104750000D02*
G75*
G02*
X138547650Y-104750000I-50000J0D01*
G01*
D15*
%TO.C,J10*%
X73170000Y-115505000D02*
X73170000Y-112905000D01*
X75830000Y-112905000D02*
X73170000Y-112905000D01*
X75830000Y-115505000D02*
X73170000Y-115505000D01*
X75830000Y-115505000D02*
X75830000Y-112905000D01*
X75830000Y-116775000D02*
X75830000Y-118105000D01*
X75830000Y-118105000D02*
X74500000Y-118105000D01*
%TO.C,R2*%
X131987258Y-146977500D02*
X131512742Y-146977500D01*
X131987258Y-148022500D02*
X131512742Y-148022500D01*
D18*
%TO.C,J3*%
X149250000Y-109500000D02*
X170000000Y-109500000D01*
X149250000Y-123000000D02*
X149250000Y-109500000D01*
X170000000Y-109500000D02*
X170000000Y-123000000D01*
X170000000Y-123000000D02*
X149250000Y-123000000D01*
D17*
X148750000Y-119425000D02*
G75*
G02*
X148550000Y-119425000I-100000J0D01*
G01*
X148550000Y-119425000D02*
G75*
G02*
X148750000Y-119425000I100000J0D01*
G01*
D15*
%TO.C,J7*%
X76590000Y-73170000D02*
X77920000Y-73170000D01*
X76590000Y-74500000D02*
X76590000Y-73170000D01*
X79190000Y-73170000D02*
X86870000Y-73170000D01*
X79190000Y-75830000D02*
X79190000Y-73170000D01*
X79190000Y-75830000D02*
X86870000Y-75830000D01*
X86870000Y-75830000D02*
X86870000Y-73170000D01*
%TO.C,R5*%
X100012742Y-75227500D02*
X100487258Y-75227500D01*
X100012742Y-76272500D02*
X100487258Y-76272500D01*
%TO.C,A1*%
X116860000Y-56880000D02*
X116860000Y-74660000D01*
X119510000Y-54230000D02*
X165230000Y-54230000D01*
X119510000Y-77310000D02*
X165230000Y-77310000D01*
X124320000Y-77630000D02*
X122320000Y-77630000D01*
X167880000Y-56880000D02*
X167880000Y-74660000D01*
X116860000Y-56880000D02*
G75*
G02*
X119510000Y-54230000I2650000J0D01*
G01*
X119510000Y-77310000D02*
G75*
G02*
X116860000Y-74660000I0J2650000D01*
G01*
X165230000Y-54230000D02*
G75*
G02*
X167880000Y-56880000I0J-2650000D01*
G01*
X167880000Y-74660000D02*
G75*
G02*
X165230000Y-77310000I-2650000J0D01*
G01*
D18*
%TO.C,J1*%
X70862500Y-134675000D02*
X91612500Y-134675000D01*
X70862500Y-148175000D02*
X70862500Y-134675000D01*
X91612500Y-134675000D02*
X91612500Y-148175000D01*
X91612500Y-148175000D02*
X70862500Y-148175000D01*
D17*
X92312500Y-138250000D02*
G75*
G02*
X92112500Y-138250000I-100000J0D01*
G01*
X92112500Y-138250000D02*
G75*
G02*
X92312500Y-138250000I100000J0D01*
G01*
D15*
%TO.C,J9*%
X93170000Y-96230000D02*
X93170000Y-86010000D01*
X93170000Y-98830000D02*
X93170000Y-97500000D01*
X94500000Y-98830000D02*
X93170000Y-98830000D01*
X95830000Y-86010000D02*
X93170000Y-86010000D01*
X95830000Y-96230000D02*
X93170000Y-96230000D01*
X95830000Y-96230000D02*
X95830000Y-86010000D01*
%TD*%
%LPC*%
D19*
%TO.C,U1*%
X81500000Y-111250000D03*
X81500000Y-121750000D03*
X103500000Y-111250000D03*
X103500000Y-121750000D03*
%TD*%
D20*
%TO.C,R4*%
X99350000Y-73250000D03*
X101000000Y-73250000D03*
%TD*%
D21*
%TO.C,D1*%
X135250000Y-104829050D03*
X135250000Y-102170950D03*
%TD*%
D22*
%TO.C,Q1*%
X134200000Y-97550000D03*
X134200000Y-99450000D03*
X136300000Y-98500000D03*
%TD*%
D23*
%TO.C,IC1*%
X136190000Y-133174000D03*
X137460000Y-133174000D03*
X138730000Y-133174000D03*
X140000000Y-133174000D03*
X140000000Y-127750000D03*
X138730000Y-127750000D03*
X137460000Y-127750000D03*
X136190000Y-127750000D03*
%TD*%
D24*
%TO.C,C1*%
X139025000Y-125500000D03*
X137475000Y-125500000D03*
%TD*%
D25*
%TO.C,F1*%
X103410000Y-141750000D03*
X111030000Y-141750000D03*
D26*
X130000000Y-141750000D03*
X137620000Y-141750000D03*
%TD*%
D27*
%TO.C,J5*%
X76000000Y-58000000D03*
X76000000Y-59000000D03*
X76000000Y-60000000D03*
X76000000Y-61000000D03*
D28*
X72125000Y-56700000D03*
X72125000Y-62300000D03*
%TD*%
D29*
%TO.C,J4*%
X94500000Y-57920000D03*
D30*
X94500000Y-60460000D03*
X94500000Y-63000000D03*
X94500000Y-65540000D03*
X94500000Y-68080000D03*
X94500000Y-70620000D03*
X94500000Y-73160000D03*
X94500000Y-75700000D03*
%TD*%
D31*
%TO.C,J2*%
X152037500Y-144425000D03*
D32*
X161537500Y-138075000D03*
%TD*%
D33*
%TO.C,R1*%
X137075000Y-147500000D03*
X135425000Y-147500000D03*
%TD*%
D34*
%TO.C,F2*%
X126500000Y-118855000D03*
X126500000Y-111235000D03*
D26*
X126500000Y-92265000D03*
X126500000Y-84645000D03*
%TD*%
D20*
%TO.C,R3*%
X99350000Y-70750000D03*
X101000000Y-70750000D03*
%TD*%
D29*
%TO.C,J6*%
X77880000Y-68500000D03*
D30*
X80420000Y-68500000D03*
X82960000Y-68500000D03*
X85500000Y-68500000D03*
%TD*%
D35*
%TO.C,K1*%
X142347650Y-104750000D03*
D36*
X142347650Y-97150000D03*
D37*
X162347650Y-97150000D03*
X167347650Y-97150000D03*
X162347650Y-104750000D03*
X167347650Y-104750000D03*
%TD*%
D29*
%TO.C,J10*%
X74500000Y-116775000D03*
D30*
X74500000Y-114235000D03*
%TD*%
D33*
%TO.C,R2*%
X132575000Y-147500000D03*
X130925000Y-147500000D03*
%TD*%
D31*
%TO.C,J3*%
X151900000Y-119425000D03*
D32*
X161400000Y-113075000D03*
%TD*%
D29*
%TO.C,J7*%
X77920000Y-74500000D03*
D30*
X80460000Y-74500000D03*
X83000000Y-74500000D03*
X85540000Y-74500000D03*
%TD*%
D20*
%TO.C,R5*%
X99425000Y-75750000D03*
X101075000Y-75750000D03*
%TD*%
D38*
%TO.C,A1*%
X123320000Y-75630000D03*
D39*
X125860000Y-75630000D03*
X128400000Y-75630000D03*
X130940000Y-75630000D03*
X133480000Y-75630000D03*
X136020000Y-75630000D03*
X138560000Y-75630000D03*
X141100000Y-75630000D03*
X143640000Y-75630000D03*
X146180000Y-75630000D03*
X148720000Y-75630000D03*
X151260000Y-75630000D03*
X153800000Y-75630000D03*
X156340000Y-75630000D03*
X158880000Y-75630000D03*
X161420000Y-75630000D03*
X161420000Y-55910000D03*
X158880000Y-55910000D03*
X156340000Y-55910000D03*
X153800000Y-55910000D03*
X151260000Y-55910000D03*
X148720000Y-55910000D03*
X146180000Y-55910000D03*
X143640000Y-55910000D03*
X141100000Y-55910000D03*
X138560000Y-55910000D03*
X136020000Y-55910000D03*
X133480000Y-55910000D03*
D40*
X166200000Y-72120000D03*
X166200000Y-64500000D03*
X166200000Y-61960000D03*
X166200000Y-59420000D03*
%TD*%
D41*
%TO.C,J1*%
X88962500Y-138250000D03*
D32*
X79462500Y-144600000D03*
%TD*%
D29*
%TO.C,J9*%
X94500000Y-97500000D03*
D30*
X94500000Y-94960000D03*
X94500000Y-92420000D03*
X94500000Y-89880000D03*
X94500000Y-87340000D03*
%TD*%
%LPD*%
M02*
