<svg xmlns="http://www.w3.org/2000/svg" xmlns:xlink="http://www.w3.org/1999/xlink" contentStyleType="text/css" height="539px" preserveAspectRatio="none" style="width:632px;height:539px;background:#FFFFFF;" version="1.1" viewBox="0 0 632 539" width="632px" zoomAndPan="magnify"><defs/><g><rect fill="none" height="161.4688" style="stroke:#000000;stroke-width:1.5;" width="228.6943" x="10" y="296.2266"/><line style="stroke:#181818;stroke-width:0.5;stroke-dasharray:5.0,5.0;" x1="44" x2="44" y1="36.2969" y2="503.8281"/><line style="stroke:#181818;stroke-width:0.5;stroke-dasharray:5.0,5.0;" x1="179.1611" x2="179.1611" y1="36.2969" y2="503.8281"/><line style="stroke:#181818;stroke-width:0.5;stroke-dasharray:5.0,5.0;" x1="290.6943" x2="290.6943" y1="36.2969" y2="503.8281"/><line style="stroke:#181818;stroke-width:0.5;stroke-dasharray:5.0,5.0;" x1="401.0107" x2="401.0107" y1="36.2969" y2="503.8281"/><line style="stroke:#181818;stroke-width:0.5;stroke-dasharray:5.0,5.0;" x1="515.0332" x2="515.0332" y1="36.2969" y2="503.8281"/><line style="stroke:#181818;stroke-width:0.5;stroke-dasharray:5.0,5.0;" x1="603.4863" x2="603.4863" y1="36.2969" y2="503.8281"/><rect fill="#E2E2F0" height="30.2969" rx="2.5" ry="2.5" style="stroke:#181818;stroke-width:0.5;" width="48.9795" x="20" y="5"/><text fill="#000000" font-family="sans-serif" font-size="14" lengthAdjust="spacing" textLength="34.9795" x="27" y="24.9951">main</text><rect fill="#E2E2F0" height="30.2969" rx="2.5" ry="2.5" style="stroke:#181818;stroke-width:0.5;" width="48.9795" x="20" y="502.8281"/><text fill="#000000" font-family="sans-serif" font-size="14" lengthAdjust="spacing" textLength="34.9795" x="27" y="522.8232">main</text><rect fill="#E2E2F0" height="30.2969" rx="2.5" ry="2.5" style="stroke:#181818;stroke-width:0.5;" width="98.5332" x="130.1611" y="5"/><text fill="#000000" font-family="sans-serif" font-size="14" lengthAdjust="spacing" textLength="84.5332" x="137.1611" y="24.9951">gps_module</text><rect fill="#E2E2F0" height="30.2969" rx="2.5" ry="2.5" style="stroke:#181818;stroke-width:0.5;" width="98.5332" x="130.1611" y="502.8281"/><text fill="#000000" font-family="sans-serif" font-size="14" lengthAdjust="spacing" textLength="84.5332" x="137.1611" y="522.8232">gps_module</text><rect fill="#E2E2F0" height="30.2969" rx="2.5" ry="2.5" style="stroke:#181818;stroke-width:0.5;" width="104.3164" x="238.6943" y="5"/><text fill="#000000" font-family="sans-serif" font-size="14" lengthAdjust="spacing" textLength="90.3164" x="245.6943" y="24.9951">tempsensors</text><rect fill="#E2E2F0" height="30.2969" rx="2.5" ry="2.5" style="stroke:#181818;stroke-width:0.5;" width="104.3164" x="238.6943" y="502.8281"/><text fill="#000000" font-family="sans-serif" font-size="14" lengthAdjust="spacing" textLength="90.3164" x="245.6943" y="522.8232">tempsensors</text><rect fill="#E2E2F0" height="30.2969" rx="2.5" ry="2.5" style="stroke:#181818;stroke-width:0.5;" width="97.0225" x="353.0107" y="5"/><text fill="#000000" font-family="sans-serif" font-size="14" lengthAdjust="spacing" textLength="83.0225" x="360.0107" y="24.9951">tempsensor</text><rect fill="#E2E2F0" height="30.2969" rx="2.5" ry="2.5" style="stroke:#181818;stroke-width:0.5;" width="97.0225" x="353.0107" y="502.8281"/><text fill="#000000" font-family="sans-serif" font-size="14" lengthAdjust="spacing" textLength="83.0225" x="360.0107" y="522.8232">tempsensor</text><rect fill="#E2E2F0" height="30.2969" rx="2.5" ry="2.5" style="stroke:#181818;stroke-width:0.5;" width="111.4531" x="460.0332" y="5"/><text fill="#000000" font-family="sans-serif" font-size="14" lengthAdjust="spacing" textLength="97.4531" x="467.0332" y="24.9951">currentsensor</text><rect fill="#E2E2F0" height="30.2969" rx="2.5" ry="2.5" style="stroke:#181818;stroke-width:0.5;" width="111.4531" x="460.0332" y="502.8281"/><text fill="#000000" font-family="sans-serif" font-size="14" lengthAdjust="spacing" textLength="97.4531" x="467.0332" y="522.8232">currentsensor</text><rect fill="#E2E2F0" height="30.2969" rx="2.5" ry="2.5" style="stroke:#181818;stroke-width:0.5;" width="44.7617" x="581.4863" y="5"/><text fill="#000000" font-family="sans-serif" font-size="14" lengthAdjust="spacing" textLength="30.7617" x="588.4863" y="24.9951">loRa</text><rect fill="#E2E2F0" height="30.2969" rx="2.5" ry="2.5" style="stroke:#181818;stroke-width:0.5;" width="44.7617" x="581.4863" y="502.8281"/><text fill="#000000" font-family="sans-serif" font-size="14" lengthAdjust="spacing" textLength="30.7617" x="588.4863" y="522.8232">loRa</text><polygon fill="#181818" points="167.4277,63.4297,177.4277,67.4297,167.4277,71.4297,171.4277,67.4297" style="stroke:#181818;stroke-width:1.0;"/><line style="stroke:#181818;stroke-width:1.0;" x1="44.4897" x2="173.4277" y1="67.4297" y2="67.4297"/><text fill="#000000" font-family="sans-serif" font-size="13" lengthAdjust="spacing" textLength="110.938" x="51.4897" y="62.3638">more then 3 sat?</text><line style="stroke:#181818;stroke-width:1.0;" x1="44.4897" x2="86.4897" y1="96.5625" y2="96.5625"/><line style="stroke:#181818;stroke-width:1.0;" x1="86.4897" x2="86.4897" y1="96.5625" y2="109.5625"/><line style="stroke:#181818;stroke-width:1.0;" x1="45.4897" x2="86.4897" y1="109.5625" y2="109.5625"/><polygon fill="#181818" points="55.4897,105.5625,45.4897,109.5625,55.4897,113.5625,51.4897,109.5625" style="stroke:#181818;stroke-width:1.0;"/><text fill="#000000" font-family="sans-serif" font-size="13" lengthAdjust="spacing" textLength="75.6895" x="51.4897" y="91.4966">wait 700ms</text><polygon fill="#181818" points="389.522,134.6953,399.522,138.6953,389.522,142.6953,393.522,138.6953" style="stroke:#181818;stroke-width:1.0;"/><line style="stroke:#181818;stroke-width:1.0;" x1="44.4897" x2="395.522" y1="138.6953" y2="138.6953"/><text fill="#000000" font-family="sans-serif" font-size="13" lengthAdjust="spacing" textLength="34.125" x="51.4897" y="133.6294">wake</text><line style="stroke:#181818;stroke-width:1.0;" x1="44.4897" x2="86.4897" y1="167.8281" y2="167.8281"/><line style="stroke:#181818;stroke-width:1.0;" x1="86.4897" x2="86.4897" y1="167.8281" y2="180.8281"/><line style="stroke:#181818;stroke-width:1.0;" x1="45.4897" x2="86.4897" y1="180.8281" y2="180.8281"/><polygon fill="#181818" points="55.4897,176.8281,45.4897,180.8281,55.4897,184.8281,51.4897,180.8281" style="stroke:#181818;stroke-width:1.0;"/><text fill="#000000" font-family="sans-serif" font-size="13" lengthAdjust="spacing" textLength="75.6895" x="51.4897" y="162.7622">wait 260ms</text><polygon fill="#181818" points="389.522,205.9609,399.522,209.9609,389.522,213.9609,393.522,209.9609" style="stroke:#181818;stroke-width:1.0;"/><line style="stroke:#181818;stroke-width:1.0;" x1="44.4897" x2="395.522" y1="209.9609" y2="209.9609"/><text fill="#000000" font-family="sans-serif" font-size="13" lengthAdjust="spacing" textLength="67.7041" x="51.4897" y="204.895">read temp</text><polygon fill="#181818" points="503.7598,235.0938,513.7598,239.0938,503.7598,243.0938,507.7598,239.0938" style="stroke:#181818;stroke-width:1.0;"/><line style="stroke:#181818;stroke-width:1.0;" x1="44.4897" x2="509.7598" y1="239.0938" y2="239.0938"/><text fill="#000000" font-family="sans-serif" font-size="13" lengthAdjust="spacing" textLength="81.104" x="51.4897" y="234.0278">read current</text><line style="stroke:#181818;stroke-width:1.0;" x1="44.4897" x2="86.4897" y1="268.2266" y2="268.2266"/><line style="stroke:#181818;stroke-width:1.0;" x1="86.4897" x2="86.4897" y1="268.2266" y2="281.2266"/><line style="stroke:#181818;stroke-width:1.0;" x1="45.4897" x2="86.4897" y1="281.2266" y2="281.2266"/><polygon fill="#181818" points="55.4897,277.2266,45.4897,281.2266,55.4897,285.2266,51.4897,281.2266" style="stroke:#181818;stroke-width:1.0;"/><text fill="#000000" font-family="sans-serif" font-size="13" lengthAdjust="spacing" textLength="82.2656" x="51.4897" y="263.1606">read voltage</text><path d="M10,296.2266 L74.4429,296.2266 L74.4429,303.3594 L64.4429,313.3594 L10,313.3594 L10,296.2266 " fill="#EEEEEE" style="stroke:#000000;stroke-width:1.5;"/><rect fill="none" height="161.4688" style="stroke:#000000;stroke-width:1.5;" width="228.6943" x="10" y="296.2266"/><text fill="#000000" font-family="sans-serif" font-size="13" font-weight="bold" lengthAdjust="spacing" textLength="19.4429" x="25" y="309.2935">alt</text><text fill="#000000" font-family="sans-serif" font-size="11" font-weight="bold" lengthAdjust="spacing" textLength="73.3584" x="89.4429" y="308.437">[pps based]</text><polygon fill="#181818" points="55.4897,330.4922,45.4897,334.4922,55.4897,338.4922,51.4897,334.4922" style="stroke:#181818;stroke-width:1.0;"/><line style="stroke:#181818;stroke-width:1.0;" x1="49.4897" x2="178.4277" y1="334.4922" y2="334.4922"/><text fill="#000000" font-family="sans-serif" font-size="13" lengthAdjust="spacing" textLength="22.4644" x="61.4897" y="329.4263">yes</text><polygon fill="#181818" points="55.4897,359.625,45.4897,363.625,55.4897,367.625,51.4897,363.625" style="stroke:#181818;stroke-width:1.0;"/><line style="stroke:#181818;stroke-width:1.0;" x1="49.4897" x2="178.4277" y1="363.625" y2="363.625"/><text fill="#000000" font-family="sans-serif" font-size="13" lengthAdjust="spacing" textLength="68.231" x="61.4897" y="358.5591">pps_signal</text><line style="stroke:#000000;stroke-width:1.0;stroke-dasharray:2.0,2.0;" x1="10" x2="238.6943" y1="372.625" y2="372.625"/><text fill="#000000" font-family="sans-serif" font-size="11" font-weight="bold" lengthAdjust="spacing" textLength="84.439" x="15" y="382.8354">[timer based]</text><polygon fill="#181818" points="55.4897,403.5625,45.4897,407.5625,55.4897,411.5625,51.4897,407.5625" style="stroke:#181818;stroke-width:1.0;"/><line style="stroke:#181818;stroke-width:1.0;" x1="49.4897" x2="178.4277" y1="407.5625" y2="407.5625"/><text fill="#000000" font-family="sans-serif" font-size="13" lengthAdjust="spacing" textLength="16.1929" x="61.4897" y="402.4966">no</text><line style="stroke:#181818;stroke-width:1.0;" x1="44.4897" x2="86.4897" y1="436.6953" y2="436.6953"/><line style="stroke:#181818;stroke-width:1.0;" x1="86.4897" x2="86.4897" y1="436.6953" y2="449.6953"/><line style="stroke:#181818;stroke-width:1.0;" x1="45.4897" x2="86.4897" y1="449.6953" y2="449.6953"/><polygon fill="#181818" points="55.4897,445.6953,45.4897,449.6953,55.4897,453.6953,51.4897,449.6953" style="stroke:#181818;stroke-width:1.0;"/><text fill="#000000" font-family="sans-serif" font-size="13" lengthAdjust="spacing" textLength="107.3389" x="51.4897" y="431.6294">wait for 1s timer</text><polygon fill="#181818" points="591.8672,481.8281,601.8672,485.8281,591.8672,489.8281,595.8672,485.8281" style="stroke:#181818;stroke-width:1.0;"/><line style="stroke:#181818;stroke-width:1.0;" x1="44.4897" x2="597.8672" y1="485.8281" y2="485.8281"/><text fill="#000000" font-family="sans-serif" font-size="13" lengthAdjust="spacing" textLength="80.3423" x="51.4897" y="480.7622">send Protcol</text><!--SRC=[VP1TQiCm48JVTOgzGC5j8G4_j5SelO3PMXjNLDAAtKr3RX_R2VufTfy4yyqCcYqe5jfGC1ia3DcLXT0LRHBxSwILR9IAKbOMTSuDANXwMvXhI2m4zaqPNa7HtcVNyDPmmM1mhAga4vXB1_n3MucNmrv22FqeJBGzYr2sbU6X_QaUqIz7muwSmsXGYi8NAda7iDWrHwwaUwZFDXgwZB6_3KNjxn0IoVzzcGUoiVZ40izwht2K_VJro9zOGx_EmuUmjHnl]--></g></svg>