<svg xmlns="http://www.w3.org/2000/svg" xmlns:xlink="http://www.w3.org/1999/xlink" contentStyleType="text/css" height="898px" preserveAspectRatio="none" style="width:975px;height:898px;background:#FFFFFF;" version="1.1" viewBox="0 0 975 898" width="975px" zoomAndPan="magnify"><defs/><g><rect fill="#DDDDDD" height="886.5859" style="stroke:#181818;stroke-width:0.5;" width="514.5195" x="16" y="6"/><text fill="#000000" font-family="sans-serif" font-size="13" font-weight="bold" lengthAdjust="spacing" textLength="75.5498" x="235.4849" y="18.0669">dataminer</text><rect fill="#DDDDDD" height="886.5859" style="stroke:#181818;stroke-width:0.5;" width="379.3989" x="584.4985" y="6"/><text fill="#000000" font-family="sans-serif" font-size="13" font-weight="bold" lengthAdjust="spacing" textLength="76.6924" x="735.8518" y="18.0669">db_station</text><rect fill="none" height="203.6016" style="stroke:#000000;stroke-width:1.5;" width="228.6943" x="10" y="316.3594"/><rect fill="none" height="88.3984" style="stroke:#000000;stroke-width:1.5;" width="187.0625" x="578.4985" y="563.0938"/><rect fill="none" height="88.3984" style="stroke:#000000;stroke-width:1.5;" width="220.6538" x="749.2437" y="752.8906"/><line style="stroke:#181818;stroke-width:0.5;stroke-dasharray:5.0,5.0;" x1="44" x2="44" y1="56.4297" y2="858.2891"/><line style="stroke:#181818;stroke-width:0.5;stroke-dasharray:5.0,5.0;" x1="179.1611" x2="179.1611" y1="56.4297" y2="858.2891"/><line style="stroke:#181818;stroke-width:0.5;stroke-dasharray:5.0,5.0;" x1="290.6943" x2="290.6943" y1="56.4297" y2="858.2891"/><line style="stroke:#181818;stroke-width:0.5;stroke-dasharray:5.0,5.0;" x1="412.0107" x2="412.0107" y1="56.4297" y2="858.2891"/><line style="stroke:#181818;stroke-width:0.5;stroke-dasharray:5.0,5.0;" x1="503.7578" x2="503.7578" y1="56.4297" y2="858.2891"/><line style="stroke:#181818;stroke-width:0.5;stroke-dasharray:5.0,5.0;" x1="608.4985" x2="608.4985" y1="56.4297" y2="858.2891"/><line style="stroke:#181818;stroke-width:0.5;stroke-dasharray:5.0,5.0;" x1="699.2007" x2="699.2007" y1="56.4297" y2="858.2891"/><line style="stroke:#181818;stroke-width:0.5;stroke-dasharray:5.0,5.0;" x1="795.2437" x2="795.2437" y1="56.4297" y2="858.2891"/><line style="stroke:#181818;stroke-width:0.5;stroke-dasharray:5.0,5.0;" x1="907.0615" x2="907.0615" y1="56.4297" y2="858.2891"/><rect fill="#E2E2F0" height="30.2969" rx="2.5" ry="2.5" style="stroke:#181818;stroke-width:0.5;" width="48.9795" x="20" y="25.1328"/><text fill="#000000" font-family="sans-serif" font-size="14" lengthAdjust="spacing" textLength="34.9795" x="27" y="45.1279">main</text><rect fill="#E2E2F0" height="30.2969" rx="2.5" ry="2.5" style="stroke:#181818;stroke-width:0.5;" width="48.9795" x="20" y="857.2891"/><text fill="#000000" font-family="sans-serif" font-size="14" lengthAdjust="spacing" textLength="34.9795" x="27" y="877.2842">main</text><rect fill="#E2E2F0" height="30.2969" rx="2.5" ry="2.5" style="stroke:#181818;stroke-width:0.5;" width="98.5332" x="130.1611" y="25.1328"/><text fill="#000000" font-family="sans-serif" font-size="14" lengthAdjust="spacing" textLength="84.5332" x="137.1611" y="45.1279">gps_module</text><rect fill="#E2E2F0" height="30.2969" rx="2.5" ry="2.5" style="stroke:#181818;stroke-width:0.5;" width="98.5332" x="130.1611" y="857.2891"/><text fill="#000000" font-family="sans-serif" font-size="14" lengthAdjust="spacing" textLength="84.5332" x="137.1611" y="877.2842">gps_module</text><rect fill="#E2E2F0" height="30.2969" rx="2.5" ry="2.5" style="stroke:#181818;stroke-width:0.5;" width="104.3164" x="238.6943" y="25.1328"/><text fill="#000000" font-family="sans-serif" font-size="14" lengthAdjust="spacing" textLength="90.3164" x="245.6943" y="45.1279">tempsensors</text><rect fill="#E2E2F0" height="30.2969" rx="2.5" ry="2.5" style="stroke:#181818;stroke-width:0.5;" width="104.3164" x="238.6943" y="857.2891"/><text fill="#000000" font-family="sans-serif" font-size="14" lengthAdjust="spacing" textLength="90.3164" x="245.6943" y="877.2842">tempsensors</text><rect fill="#E2E2F0" height="30.2969" rx="2.5" ry="2.5" style="stroke:#181818;stroke-width:0.5;" width="118.7471" x="353.0107" y="25.1328"/><text fill="#000000" font-family="sans-serif" font-size="14" lengthAdjust="spacing" textLength="104.7471" x="360.0107" y="45.1279">currentsensors</text><rect fill="#E2E2F0" height="30.2969" rx="2.5" ry="2.5" style="stroke:#181818;stroke-width:0.5;" width="118.7471" x="353.0107" y="857.2891"/><text fill="#000000" font-family="sans-serif" font-size="14" lengthAdjust="spacing" textLength="104.7471" x="360.0107" y="877.2842">currentsensors</text><rect fill="#E2E2F0" height="30.2969" rx="2.5" ry="2.5" style="stroke:#181818;stroke-width:0.5;" width="44.7617" x="481.7578" y="25.1328"/><text fill="#000000" font-family="sans-serif" font-size="14" lengthAdjust="spacing" textLength="30.7617" x="488.7578" y="45.1279">loRa</text><rect fill="#E2E2F0" height="30.2969" rx="2.5" ry="2.5" style="stroke:#181818;stroke-width:0.5;" width="44.7617" x="481.7578" y="857.2891"/><text fill="#000000" font-family="sans-serif" font-size="14" lengthAdjust="spacing" textLength="30.7617" x="488.7578" y="877.2842">loRa</text><rect fill="#E2E2F0" height="30.2969" rx="2.5" ry="2.5" style="stroke:#181818;stroke-width:0.5;" width="40.79" x="588.4985" y="25.1328"/><text fill="#000000" font-family="sans-serif" font-size="14" lengthAdjust="spacing" textLength="26.79" x="595.4985" y="45.1279">lora</text><rect fill="#E2E2F0" height="30.2969" rx="2.5" ry="2.5" style="stroke:#181818;stroke-width:0.5;" width="40.79" x="588.4985" y="857.2891"/><text fill="#000000" font-family="sans-serif" font-size="14" lengthAdjust="spacing" textLength="26.79" x="595.4985" y="877.2842">lora</text><rect fill="#E2E2F0" height="30.2969" rx="2.5" ry="2.5" style="stroke:#181818;stroke-width:0.5;" width="73.7529" x="663.2007" y="25.1328"/><text fill="#000000" font-family="sans-serif" font-size="14" lengthAdjust="spacing" textLength="59.7529" x="670.2007" y="45.1279">db_main</text><rect fill="#E2E2F0" height="30.2969" rx="2.5" ry="2.5" style="stroke:#181818;stroke-width:0.5;" width="73.7529" x="663.2007" y="857.2891"/><text fill="#000000" font-family="sans-serif" font-size="14" lengthAdjust="spacing" textLength="59.7529" x="670.2007" y="877.2842">db_main</text><rect fill="#E2E2F0" height="30.2969" rx="2.5" ry="2.5" style="stroke:#181818;stroke-width:0.5;" width="73.124" x="759.2437" y="25.1328"/><text fill="#000000" font-family="sans-serif" font-size="14" lengthAdjust="spacing" textLength="59.124" x="766.2437" y="45.1279">influxDB</text><rect fill="#E2E2F0" height="30.2969" rx="2.5" ry="2.5" style="stroke:#181818;stroke-width:0.5;" width="73.124" x="759.2437" y="857.2891"/><text fill="#000000" font-family="sans-serif" font-size="14" lengthAdjust="spacing" textLength="59.124" x="766.2437" y="877.2842">influxDB</text><rect fill="#E2E2F0" height="30.2969" rx="2.5" ry="2.5" style="stroke:#181818;stroke-width:0.5;" width="104.8359" x="855.0615" y="25.1328"/><text fill="#000000" font-family="sans-serif" font-size="14" lengthAdjust="spacing" textLength="90.8359" x="862.0615" y="45.1279">HDD_Backup</text><rect fill="#E2E2F0" height="30.2969" rx="2.5" ry="2.5" style="stroke:#181818;stroke-width:0.5;" width="104.8359" x="855.0615" y="857.2891"/><text fill="#000000" font-family="sans-serif" font-size="14" lengthAdjust="spacing" textLength="90.8359" x="862.0615" y="877.2842">HDD_Backup</text><polygon fill="#181818" points="167.4277,83.5625,177.4277,87.5625,167.4277,91.5625,171.4277,87.5625" style="stroke:#181818;stroke-width:1.0;"/><line style="stroke:#181818;stroke-width:1.0;" x1="44.4897" x2="173.4277" y1="87.5625" y2="87.5625"/><text fill="#000000" font-family="sans-serif" font-size="13" lengthAdjust="spacing" textLength="110.938" x="51.4897" y="82.4966">more then 3 sat?</text><line style="stroke:#181818;stroke-width:1.0;" x1="44.4897" x2="86.4897" y1="116.6953" y2="116.6953"/><line style="stroke:#181818;stroke-width:1.0;" x1="86.4897" x2="86.4897" y1="116.6953" y2="129.6953"/><line style="stroke:#181818;stroke-width:1.0;" x1="45.4897" x2="86.4897" y1="129.6953" y2="129.6953"/><polygon fill="#181818" points="55.4897,125.6953,45.4897,129.6953,55.4897,133.6953,51.4897,129.6953" style="stroke:#181818;stroke-width:1.0;"/><text fill="#000000" font-family="sans-serif" font-size="13" lengthAdjust="spacing" textLength="75.6895" x="51.4897" y="111.6294">wait 700ms</text><polygon fill="#181818" points="278.8525,154.8281,288.8525,158.8281,278.8525,162.8281,282.8525,158.8281" style="stroke:#181818;stroke-width:1.0;"/><line style="stroke:#181818;stroke-width:1.0;" x1="44.4897" x2="284.8525" y1="158.8281" y2="158.8281"/><text fill="#000000" font-family="sans-serif" font-size="13" lengthAdjust="spacing" textLength="34.125" x="51.4897" y="153.7622">wake</text><line style="stroke:#181818;stroke-width:1.0;" x1="44.4897" x2="86.4897" y1="187.9609" y2="187.9609"/><line style="stroke:#181818;stroke-width:1.0;" x1="86.4897" x2="86.4897" y1="187.9609" y2="200.9609"/><line style="stroke:#181818;stroke-width:1.0;" x1="45.4897" x2="86.4897" y1="200.9609" y2="200.9609"/><polygon fill="#181818" points="55.4897,196.9609,45.4897,200.9609,55.4897,204.9609,51.4897,200.9609" style="stroke:#181818;stroke-width:1.0;"/><text fill="#000000" font-family="sans-serif" font-size="13" lengthAdjust="spacing" textLength="75.6895" x="51.4897" y="182.895">wait 260ms</text><polygon fill="#181818" points="278.8525,226.0938,288.8525,230.0938,278.8525,234.0938,282.8525,230.0938" style="stroke:#181818;stroke-width:1.0;"/><line style="stroke:#181818;stroke-width:1.0;" x1="44.4897" x2="284.8525" y1="230.0938" y2="230.0938"/><text fill="#000000" font-family="sans-serif" font-size="13" lengthAdjust="spacing" textLength="67.7041" x="51.4897" y="225.0278">read temp</text><polygon fill="#181818" points="400.3843,255.2266,410.3843,259.2266,400.3843,263.2266,404.3843,259.2266" style="stroke:#181818;stroke-width:1.0;"/><line style="stroke:#181818;stroke-width:1.0;" x1="44.4897" x2="406.3843" y1="259.2266" y2="259.2266"/><text fill="#000000" font-family="sans-serif" font-size="13" lengthAdjust="spacing" textLength="81.104" x="51.4897" y="254.1606">read current</text><line style="stroke:#181818;stroke-width:1.0;" x1="44.4897" x2="86.4897" y1="288.3594" y2="288.3594"/><line style="stroke:#181818;stroke-width:1.0;" x1="86.4897" x2="86.4897" y1="288.3594" y2="301.3594"/><line style="stroke:#181818;stroke-width:1.0;" x1="45.4897" x2="86.4897" y1="301.3594" y2="301.3594"/><polygon fill="#181818" points="55.4897,297.3594,45.4897,301.3594,55.4897,305.3594,51.4897,301.3594" style="stroke:#181818;stroke-width:1.0;"/><text fill="#000000" font-family="sans-serif" font-size="13" lengthAdjust="spacing" textLength="82.2656" x="51.4897" y="283.2935">read voltage</text><path d="M10,316.3594 L74.4429,316.3594 L74.4429,323.4922 L64.4429,333.4922 L10,333.4922 L10,316.3594 " fill="#EEEEEE" style="stroke:#000000;stroke-width:1.5;"/><rect fill="none" height="203.6016" style="stroke:#000000;stroke-width:1.5;" width="228.6943" x="10" y="316.3594"/><text fill="#000000" font-family="sans-serif" font-size="13" font-weight="bold" lengthAdjust="spacing" textLength="19.4429" x="25" y="329.4263">alt</text><text fill="#000000" font-family="sans-serif" font-size="11" font-weight="bold" lengthAdjust="spacing" textLength="73.3584" x="89.4429" y="328.5698">[pps based]</text><polygon fill="#181818" points="55.4897,350.625,45.4897,354.625,55.4897,358.625,51.4897,354.625" style="stroke:#181818;stroke-width:1.0;"/><line style="stroke:#181818;stroke-width:1.0;" x1="49.4897" x2="178.4277" y1="354.625" y2="354.625"/><text fill="#000000" font-family="sans-serif" font-size="13" lengthAdjust="spacing" textLength="22.4644" x="61.4897" y="349.5591">yes</text><line style="stroke:#181818;stroke-width:1.0;" x1="44.4897" x2="86.4897" y1="383.7578" y2="383.7578"/><line style="stroke:#181818;stroke-width:1.0;" x1="86.4897" x2="86.4897" y1="383.7578" y2="396.7578"/><line style="stroke:#181818;stroke-width:1.0;" x1="45.4897" x2="86.4897" y1="396.7578" y2="396.7578"/><polygon fill="#181818" points="55.4897,392.7578,45.4897,396.7578,55.4897,400.7578,51.4897,396.7578" style="stroke:#181818;stroke-width:1.0;"/><text fill="#000000" font-family="sans-serif" font-size="13" lengthAdjust="spacing" textLength="76.7241" x="51.4897" y="378.6919">wait for pps</text><polygon fill="#181818" points="55.4897,421.8906,45.4897,425.8906,55.4897,429.8906,51.4897,425.8906" style="stroke:#181818;stroke-width:1.0;"/><line style="stroke:#181818;stroke-width:1.0;" x1="49.4897" x2="178.4277" y1="425.8906" y2="425.8906"/><text fill="#000000" font-family="sans-serif" font-size="13" lengthAdjust="spacing" textLength="68.231" x="61.4897" y="420.8247">pps_signal</text><line style="stroke:#000000;stroke-width:1.0;stroke-dasharray:2.0,2.0;" x1="10" x2="238.6943" y1="434.8906" y2="434.8906"/><text fill="#000000" font-family="sans-serif" font-size="11" font-weight="bold" lengthAdjust="spacing" textLength="84.439" x="15" y="445.1011">[timer based]</text><polygon fill="#181818" points="55.4897,465.8281,45.4897,469.8281,55.4897,473.8281,51.4897,469.8281" style="stroke:#181818;stroke-width:1.0;"/><line style="stroke:#181818;stroke-width:1.0;" x1="49.4897" x2="178.4277" y1="469.8281" y2="469.8281"/><text fill="#000000" font-family="sans-serif" font-size="13" lengthAdjust="spacing" textLength="16.1929" x="61.4897" y="464.7622">no</text><line style="stroke:#181818;stroke-width:1.0;" x1="44.4897" x2="86.4897" y1="498.9609" y2="498.9609"/><line style="stroke:#181818;stroke-width:1.0;" x1="86.4897" x2="86.4897" y1="498.9609" y2="511.9609"/><line style="stroke:#181818;stroke-width:1.0;" x1="45.4897" x2="86.4897" y1="511.9609" y2="511.9609"/><polygon fill="#181818" points="55.4897,507.9609,45.4897,511.9609,55.4897,515.9609,51.4897,511.9609" style="stroke:#181818;stroke-width:1.0;"/><text fill="#000000" font-family="sans-serif" font-size="13" lengthAdjust="spacing" textLength="107.3389" x="51.4897" y="493.895">wait for 1s timer</text><polygon fill="#181818" points="492.1387,544.0938,502.1387,548.0938,492.1387,552.0938,496.1387,548.0938" style="stroke:#181818;stroke-width:1.0;"/><line style="stroke:#181818;stroke-width:1.0;" x1="44.4897" x2="498.1387" y1="548.0938" y2="548.0938"/><text fill="#000000" font-family="sans-serif" font-size="13" lengthAdjust="spacing" textLength="80.7549" x="51.4897" y="543.0278">send protcol</text><path d="M578.4985,563.0938 L655.1226,563.0938 L655.1226,570.2266 L645.1226,580.2266 L578.4985,580.2266 L578.4985,563.0938 " fill="#EEEEEE" style="stroke:#000000;stroke-width:1.5;"/><rect fill="none" height="88.3984" style="stroke:#000000;stroke-width:1.5;" width="187.0625" x="578.4985" y="563.0938"/><text fill="#000000" font-family="sans-serif" font-size="13" font-weight="bold" lengthAdjust="spacing" textLength="31.624" x="593.4985" y="576.1606">loop</text><polygon fill="#181818" points="619.8936,597.3594,609.8936,601.3594,619.8936,605.3594,615.8936,601.3594" style="stroke:#181818;stroke-width:1.0;"/><line style="stroke:#181818;stroke-width:1.0;" x1="613.8936" x2="699.0771" y1="601.3594" y2="601.3594"/><text fill="#000000" font-family="sans-serif" font-size="13" lengthAdjust="spacing" textLength="67.1836" x="625.8936" y="596.2935">new data?</text><line style="stroke:#181818;stroke-width:1.0;" x1="700.0771" x2="742.0771" y1="630.4922" y2="630.4922"/><line style="stroke:#181818;stroke-width:1.0;" x1="742.0771" x2="742.0771" y1="630.4922" y2="643.4922"/><line style="stroke:#181818;stroke-width:1.0;" x1="701.0771" x2="742.0771" y1="643.4922" y2="643.4922"/><polygon fill="#181818" points="711.0771,639.4922,701.0771,643.4922,711.0771,647.4922,707.0771,643.4922" style="stroke:#181818;stroke-width:1.0;"/><text fill="#000000" font-family="sans-serif" font-size="13" lengthAdjust="spacing" textLength="46.4839" x="707.0771" y="625.4263">wait 1s</text><polygon fill="#181818" points="596.8936,675.625,606.8936,679.625,596.8936,683.625,600.8936,679.625" style="stroke:#181818;stroke-width:1.0;"/><line style="stroke:#181818;stroke-width:1.0;" x1="504.1387" x2="602.8936" y1="679.625" y2="679.625"/><text fill="#000000" font-family="sans-serif" font-size="13" lengthAdjust="spacing" textLength="80.7549" x="511.1387" y="674.5591">send protcol</text><polygon fill="#181818" points="688.0771,704.7578,698.0771,708.7578,688.0771,712.7578,692.0771,708.7578" style="stroke:#181818;stroke-width:1.0;"/><line style="stroke:#181818;stroke-width:1.0;" x1="608.8936" x2="694.0771" y1="708.7578" y2="708.7578"/><text fill="#000000" font-family="sans-serif" font-size="13" lengthAdjust="spacing" textLength="29.2817" x="615.8936" y="703.6919">data</text><polygon fill="#181818" points="783.8057,733.8906,793.8057,737.8906,783.8057,741.8906,787.8057,737.8906" style="stroke:#181818;stroke-width:1.0;"/><line style="stroke:#181818;stroke-width:1.0;" x1="700.0771" x2="789.8057" y1="737.8906" y2="737.8906"/><text fill="#000000" font-family="sans-serif" font-size="13" lengthAdjust="spacing" textLength="71.7285" x="707.0771" y="732.8247">write in DB</text><path d="M749.2437,752.8906 L825.8677,752.8906 L825.8677,760.0234 L815.8677,770.0234 L749.2437,770.0234 L749.2437,752.8906 " fill="#EEEEEE" style="stroke:#000000;stroke-width:1.5;"/><rect fill="none" height="88.3984" style="stroke:#000000;stroke-width:1.5;" width="220.6538" x="749.2437" y="752.8906"/><text fill="#000000" font-family="sans-serif" font-size="13" font-weight="bold" lengthAdjust="spacing" textLength="31.624" x="764.2437" y="765.9575">loop</text><text fill="#000000" font-family="sans-serif" font-size="11" font-weight="bold" lengthAdjust="spacing" textLength="66.3545" x="840.8677" y="765.1011">["backup"]</text><polygon fill="#181818" points="895.4795,787.1563,905.4795,791.1563,895.4795,795.1563,899.4795,791.1563" style="stroke:#181818;stroke-width:1.0;"/><line style="stroke:#181818;stroke-width:1.0;" x1="795.8057" x2="901.4795" y1="791.1563" y2="791.1563"/><text fill="#000000" font-family="sans-serif" font-size="13" lengthAdjust="spacing" textLength="87.6738" x="802.8057" y="786.0903">make backup</text><line style="stroke:#181818;stroke-width:1.0;" x1="795.8057" x2="837.8057" y1="820.2891" y2="820.2891"/><line style="stroke:#181818;stroke-width:1.0;" x1="837.8057" x2="837.8057" y1="820.2891" y2="833.2891"/><line style="stroke:#181818;stroke-width:1.0;" x1="796.8057" x2="837.8057" y1="833.2891" y2="833.2891"/><polygon fill="#181818" points="806.8057,829.2891,796.8057,833.2891,806.8057,837.2891,802.8057,833.2891" style="stroke:#181818;stroke-width:1.0;"/><text fill="#000000" font-family="sans-serif" font-size="13" lengthAdjust="spacing" textLength="67.7549" x="802.8057" y="815.2231">wait 1 day</text><!--SRC=[VL9BRuCm3BxdLrZS9xMRj4azh5BLmyxx0yY0sqNDIt5Ost-_96L0-Ze1tyisTcDFK7KOK4j3lX8EVP2jT6W2Q9Ic0FQEQssxNb411zAEoR3rNE1jxpsPS8zIzXi5cGuQUnAYoKqqDGSCqfhgIkgn0ABmfZDfTge_RJS5-BNTrXji3xsRIYKdl7pEHbc1jfuW_921Ds0CwqcLdYiueWpmiLXe7edPo8a_q3tBw_j3YoViCZBIvSyQ50Du5PwfNwi2xaa8L06SOsYGgHC0iz4covauKNUQt5cVx8-CaQfPxWqg8KXn_4zIatzUpDWdjPPyYKWh6UTAvx02JbjoteRMnchAMfToXdLVP3xA31qXNUpwYXrUXrfBpalFAIb-yXTb4bIOKxAOfVvVLeprCb3yXdXckJkecdnTLMfa52RJT7dnkk9rm4Luevk5vvvZzVFOzXy0]--></g></svg>